solid OpenSCAD_Model
  facet normal -1 0 0
    outer loop
      vertex -67 0 0
      vertex -67 47 19
      vertex -67 47 0
    endloop
  endfacet
  facet normal -1 -0 0
    outer loop
      vertex -67 47 19
      vertex -67 0 0
      vertex -67 0 19
    endloop
  endfacet
  facet normal 0 0 1
    outer loop
      vertex -61 19 19
      vertex -65 19 19
      vertex -61 1 19
    endloop
  endfacet
  facet normal 0 0 1
    outer loop
      vertex 0 47 19
      vertex -2 45 19
      vertex 0 0 19
    endloop
  endfacet
  facet normal 0 0 1
    outer loop
      vertex 0 47 19
      vertex -65 45 19
      vertex -2 45 19
    endloop
  endfacet
  facet normal 0 0 1
    outer loop
      vertex -65 45 19
      vertex -67 47 19
      vertex -65 19 19
    endloop
  endfacet
  facet normal -0 0 1
    outer loop
      vertex -67 47 19
      vertex -65 45 19
      vertex 0 47 19
    endloop
  endfacet
  facet normal -0 0 1
    outer loop
      vertex -2 1 19
      vertex 0 0 19
      vertex -2 45 19
    endloop
  endfacet
  facet normal -0 0 1
    outer loop
      vertex -61 1 19
      vertex 0 0 19
      vertex -2 1 19
    endloop
  endfacet
  facet normal 0 0 1
    outer loop
      vertex -61 1 19
      vertex -67 0 19
      vertex 0 0 19
    endloop
  endfacet
  facet normal 0 0 1
    outer loop
      vertex -65 19 19
      vertex -67 0 19
      vertex -61 1 19
    endloop
  endfacet
  facet normal 0 0 1
    outer loop
      vertex -67 0 19
      vertex -65 19 19
      vertex -67 47 19
    endloop
  endfacet
  facet normal -0 0 1
    outer loop
      vertex -56 19 19
      vertex -51 7 19
      vertex -51 19 19
    endloop
  endfacet
  facet normal 0 0 1
    outer loop
      vertex -51 7 19
      vertex -56 19 19
      vertex -56 7 19
    endloop
  endfacet
  facet normal 1 -0 0
    outer loop
      vertex 0 0 19
      vertex 0 47 0
      vertex 0 47 19
    endloop
  endfacet
  facet normal 1 0 0
    outer loop
      vertex 0 47 0
      vertex 0 0 19
      vertex 0 0 0
    endloop
  endfacet
  facet normal 0 1 0
    outer loop
      vertex 0 47 19
      vertex -49 47 16
      vertex -67 47 19
    endloop
  endfacet
  facet normal 0 1 0
    outer loop
      vertex 0 47 19
      vertex -49 47 3
      vertex -49 47 16
    endloop
  endfacet
  facet normal 0 1 0
    outer loop
      vertex -67 47 0
      vertex -49 47 3
      vertex 0 47 0
    endloop
  endfacet
  facet normal 0 1 -0
    outer loop
      vertex 0 47 0
      vertex -49 47 3
      vertex 0 47 19
    endloop
  endfacet
  facet normal 0 1 -0
    outer loop
      vertex -62 47 16
      vertex -67 47 19
      vertex -49 47 16
    endloop
  endfacet
  facet normal 0 1 -0
    outer loop
      vertex -62 47 3
      vertex -67 47 19
      vertex -62 47 16
    endloop
  endfacet
  facet normal 0 1 0
    outer loop
      vertex -62 47 3
      vertex -67 47 0
      vertex -67 47 19
    endloop
  endfacet
  facet normal 0 1 0
    outer loop
      vertex -49 47 3
      vertex -67 47 0
      vertex -62 47 3
    endloop
  endfacet
  facet normal 0 0 -1
    outer loop
      vertex -10 20.3 0
      vertex -15.6129 26.3135 0
      vertex -15.5 33.6 0
    endloop
  endfacet
  facet normal 0 0 -1
    outer loop
      vertex -15.822 26.6756 0
      vertex -15.5 33.6 0
      vertex -15.6129 26.3135 0
    endloop
  endfacet
  facet normal 0 0 -1
    outer loop
      vertex -16.1017 26.9863 0
      vertex -15.5 33.6 0
      vertex -15.822 26.6756 0
    endloop
  endfacet
  facet normal 0 0 -1
    outer loop
      vertex -16.44 27.232 0
      vertex -15.5 33.6 0
      vertex -16.1017 26.9863 0
    endloop
  endfacet
  facet normal 0 0 -1
    outer loop
      vertex -16.822 27.4021 0
      vertex -15.5 33.6 0
      vertex -16.44 27.232 0
    endloop
  endfacet
  facet normal 0 0 -1
    outer loop
      vertex -17.2309 27.489 0
      vertex -15.5 33.6 0
      vertex -16.822 27.4021 0
    endloop
  endfacet
  facet normal 0 0 -1
    outer loop
      vertex -17.6491 27.489 0
      vertex -15.5 33.6 0
      vertex -17.2309 27.489 0
    endloop
  endfacet
  facet normal 0 0 -1
    outer loop
      vertex -18.058 27.4021 0
      vertex -15.5 33.6 0
      vertex -17.6491 27.489 0
    endloop
  endfacet
  facet normal 0 0 -1
    outer loop
      vertex -18.44 27.232 0
      vertex -15.5 33.6 0
      vertex -18.058 27.4021 0
    endloop
  endfacet
  facet normal 0 0 -1
    outer loop
      vertex -26.5 27.232 0
      vertex -18.44 27.232 0
      vertex -18.7783 26.9863 0
    endloop
  endfacet
  facet normal 0 0 -1
    outer loop
      vertex -26.1617 26.9863 0
      vertex -18.7783 26.9863 0
      vertex -19.058 26.6756 0
    endloop
  endfacet
  facet normal 0 0 -1
    outer loop
      vertex -25.882 26.6756 0
      vertex -19.058 26.6756 0
      vertex -19.2671 26.3135 0
    endloop
  endfacet
  facet normal 0 -0 -1
    outer loop
      vertex -25.5437 25.0842 0
      vertex -19.3963 25.0842 0
      vertex -25.6729 24.6865 0
    endloop
  endfacet
  facet normal 0 -0 -1
    outer loop
      vertex -25.5 25.5 0
      vertex -19.44 25.5 0
      vertex -25.5437 25.0842 0
    endloop
  endfacet
  facet normal 0 0 -1
    outer loop
      vertex -19.44 25.5 0
      vertex -25.5 25.5 0
      vertex -19.3963 25.9158 0
    endloop
  endfacet
  facet normal 0 0 -1
    outer loop
      vertex -19.3963 25.9158 0
      vertex -25.5437 25.9158 0
      vertex -19.2671 26.3135 0
    endloop
  endfacet
  facet normal 0 0 -1
    outer loop
      vertex -25.6729 26.3135 0
      vertex -19.2671 26.3135 0
      vertex -25.5437 25.9158 0
    endloop
  endfacet
  facet normal 0 0 -1
    outer loop
      vertex -25.882 26.6756 0
      vertex -19.2671 26.3135 0
      vertex -25.6729 26.3135 0
    endloop
  endfacet
  facet normal 0 0 -1
    outer loop
      vertex -19.058 26.6756 0
      vertex -25.882 26.6756 0
      vertex -26.1617 26.9863 0
    endloop
  endfacet
  facet normal 0 0 -1
    outer loop
      vertex -18.7783 26.9863 0
      vertex -26.1617 26.9863 0
      vertex -26.5 27.232 0
    endloop
  endfacet
  facet normal 0 0 -1
    outer loop
      vertex -18.44 27.232 0
      vertex -26.5 27.232 0
      vertex -15.5 33.6 0
    endloop
  endfacet
  facet normal 0 0 -1
    outer loop
      vertex -26.882 27.4021 0
      vertex -15.5 33.6 0
      vertex -26.5 27.232 0
    endloop
  endfacet
  facet normal 0 0 -1
    outer loop
      vertex -27.2909 27.489 0
      vertex -15.5 33.6 0
      vertex -26.882 27.4021 0
    endloop
  endfacet
  facet normal 0 0 -1
    outer loop
      vertex -38.5 33.6 0
      vertex -27.2909 27.489 0
      vertex -27.7091 27.489 0
    endloop
  endfacet
  facet normal 0 0 -1
    outer loop
      vertex -38.5 33.6 0
      vertex -27.7091 27.489 0
      vertex -28.118 27.4021 0
    endloop
  endfacet
  facet normal 0 0 -1
    outer loop
      vertex -38.5 33.6 0
      vertex -28.118 27.4021 0
      vertex -28.5 27.232 0
    endloop
  endfacet
  facet normal 0 0 -1
    outer loop
      vertex -37 25.5 0
      vertex -29.4563 25.9158 0
      vertex -29.5 25.5 0
    endloop
  endfacet
  facet normal 0 0 -1
    outer loop
      vertex -37.0437 25.9158 0
      vertex -29.4563 25.9158 0
      vertex -37 25.5 0
    endloop
  endfacet
  facet normal 0 0 -1
    outer loop
      vertex -29.4563 25.9158 0
      vertex -37.0437 25.9158 0
      vertex -29.3271 26.3135 0
    endloop
  endfacet
  facet normal 0 0 -1
    outer loop
      vertex -37.1729 26.3135 0
      vertex -29.3271 26.3135 0
      vertex -37.0437 25.9158 0
    endloop
  endfacet
  facet normal 0 0 -1
    outer loop
      vertex -29.3271 26.3135 0
      vertex -37.1729 26.3135 0
      vertex -29.118 26.6756 0
    endloop
  endfacet
  facet normal 0 0 -1
    outer loop
      vertex -37.382 26.6756 0
      vertex -29.118 26.6756 0
      vertex -37.1729 26.3135 0
    endloop
  endfacet
  facet normal 0 0 -1
    outer loop
      vertex -29.118 26.6756 0
      vertex -37.382 26.6756 0
      vertex -28.8383 26.9863 0
    endloop
  endfacet
  facet normal 0 0 -1
    outer loop
      vertex -37.6617 26.9863 0
      vertex -28.8383 26.9863 0
      vertex -37.382 26.6756 0
    endloop
  endfacet
  facet normal 0 0 -1
    outer loop
      vertex -38.5 33.6 0
      vertex -28.8383 26.9863 0
      vertex -37.6617 26.9863 0
    endloop
  endfacet
  facet normal 0 0 -1
    outer loop
      vertex -28.8383 26.9863 0
      vertex -38.5 33.6 0
      vertex -28.5 27.232 0
    endloop
  endfacet
  facet normal 0 0 -1
    outer loop
      vertex -38.5 33.6 0
      vertex -37.6617 26.9863 0
      vertex -38 27.232 0
    endloop
  endfacet
  facet normal 0 0 -1
    outer loop
      vertex -38.5 33.6 0
      vertex -38 27.232 0
      vertex -38.382 27.4021 0
    endloop
  endfacet
  facet normal 0 0 -1
    outer loop
      vertex -27.2909 27.489 0
      vertex -38.5 33.6 0
      vertex -15.5 33.6 0
    endloop
  endfacet
  facet normal 0 0 -1
    outer loop
      vertex -39.2091 27.489 0
      vertex -38.5 33.6 0
      vertex -38.7909 27.489 0
    endloop
  endfacet
  facet normal 0 0 -1
    outer loop
      vertex -38.7909 27.489 0
      vertex -38.5 33.6 0
      vertex -38.382 27.4021 0
    endloop
  endfacet
  facet normal 0 0 -1
    outer loop
      vertex -10 20.3 0
      vertex -15.4837 25.0842 0
      vertex -15.44 25.5 0
    endloop
  endfacet
  facet normal 0 0 -1
    outer loop
      vertex -10 20.3 0
      vertex -15.6129 24.6865 0
      vertex -15.4837 25.0842 0
    endloop
  endfacet
  facet normal 0 0 -1
    outer loop
      vertex -10 20.3 0
      vertex -15.822 24.3244 0
      vertex -15.6129 24.6865 0
    endloop
  endfacet
  facet normal 0 0 -1
    outer loop
      vertex -10 20.3 0
      vertex -16.1017 24.0137 0
      vertex -15.822 24.3244 0
    endloop
  endfacet
  facet normal 0 0 -1
    outer loop
      vertex -10 20.3 0
      vertex -16.44 23.7679 0
      vertex -16.1017 24.0137 0
    endloop
  endfacet
  facet normal 0 0 -1
    outer loop
      vertex -10 20.3 0
      vertex -16.822 23.5979 0
      vertex -16.44 23.7679 0
    endloop
  endfacet
  facet normal 0 0 -1
    outer loop
      vertex -10 20.3 0
      vertex -17.2309 23.511 0
      vertex -16.822 23.5979 0
    endloop
  endfacet
  facet normal 0 0 -1
    outer loop
      vertex -23 20.3 0
      vertex -17.2309 23.511 0
      vertex -10 20.3 0
    endloop
  endfacet
  facet normal -0 0 -1
    outer loop
      vertex -17.2309 23.511 0
      vertex -23 20.3 0
      vertex -17.6491 23.511 0
    endloop
  endfacet
  facet normal 0 0 -1
    outer loop
      vertex -19.2671 24.6865 0
      vertex -25.6729 24.6865 0
      vertex -19.3963 25.0842 0
    endloop
  endfacet
  facet normal 0 0 -1
    outer loop
      vertex -25.6729 24.6865 0
      vertex -19.2671 24.6865 0
      vertex -23 20.3 0
    endloop
  endfacet
  facet normal -0 0 -1
    outer loop
      vertex -19.058 24.3244 0
      vertex -23 20.3 0
      vertex -19.2671 24.6865 0
    endloop
  endfacet
  facet normal -0 0 -1
    outer loop
      vertex -18.7783 24.0137 0
      vertex -23 20.3 0
      vertex -19.058 24.3244 0
    endloop
  endfacet
  facet normal -0 0 -1
    outer loop
      vertex -18.44 23.7679 0
      vertex -23 20.3 0
      vertex -18.7783 24.0137 0
    endloop
  endfacet
  facet normal -0 0 -1
    outer loop
      vertex -18.058 23.5979 0
      vertex -23 20.3 0
      vertex -18.44 23.7679 0
    endloop
  endfacet
  facet normal -0 0 -1
    outer loop
      vertex -17.6491 23.511 0
      vertex -23 20.3 0
      vertex -18.058 23.5979 0
    endloop
  endfacet
  facet normal 0 0 -1
    outer loop
      vertex -10 20.3 0
      vertex 0 0 0
      vertex -10 4 0
    endloop
  endfacet
  facet normal 0 0 -1
    outer loop
      vertex 0 0 0
      vertex -23 4 0
      vertex -10 4 0
    endloop
  endfacet
  facet normal 0 0 -1
    outer loop
      vertex -28.118 23.5979 0
      vertex -23 20.3 0
      vertex -23 4 0
    endloop
  endfacet
  facet normal 0 0 -1
    outer loop
      vertex -25.5437 25.9158 0
      vertex -19.3963 25.9158 0
      vertex -25.5 25.5 0
    endloop
  endfacet
  facet normal 0 0 -1
    outer loop
      vertex -19.3963 25.0842 0
      vertex -25.5437 25.0842 0
      vertex -19.44 25.5 0
    endloop
  endfacet
  facet normal 0 0 -1
    outer loop
      vertex -23 20.3 0
      vertex -25.882 24.3244 0
      vertex -25.6729 24.6865 0
    endloop
  endfacet
  facet normal 0 0 -1
    outer loop
      vertex -23 20.3 0
      vertex -26.1617 24.0137 0
      vertex -25.882 24.3244 0
    endloop
  endfacet
  facet normal 0 0 -1
    outer loop
      vertex -23 20.3 0
      vertex -26.5 23.7679 0
      vertex -26.1617 24.0137 0
    endloop
  endfacet
  facet normal 0 0 -1
    outer loop
      vertex -23 20.3 0
      vertex -26.882 23.5979 0
      vertex -26.5 23.7679 0
    endloop
  endfacet
  facet normal 0 0 -1
    outer loop
      vertex -23 20.3 0
      vertex -27.2909 23.511 0
      vertex -26.882 23.5979 0
    endloop
  endfacet
  facet normal 0 0 -1
    outer loop
      vertex -23 20.3 0
      vertex -27.7091 23.511 0
      vertex -27.2909 23.511 0
    endloop
  endfacet
  facet normal 0 0 -1
    outer loop
      vertex -23 20.3 0
      vertex -28.118 23.5979 0
      vertex -27.7091 23.511 0
    endloop
  endfacet
  facet normal 0 0 -1
    outer loop
      vertex -38.382 23.5979 0
      vertex -28.118 23.5979 0
      vertex -23 4 0
    endloop
  endfacet
  facet normal 0 0 -1
    outer loop
      vertex -28.118 23.5979 0
      vertex -38.382 23.5979 0
      vertex -28.5 23.7679 0
    endloop
  endfacet
  facet normal 0 -0 -1
    outer loop
      vertex -38 23.7679 0
      vertex -28.5 23.7679 0
      vertex -38.382 23.5979 0
    endloop
  endfacet
  facet normal 0 -0 -1
    outer loop
      vertex -37.6617 24.0137 0
      vertex -28.8383 24.0137 0
      vertex -38 23.7679 0
    endloop
  endfacet
  facet normal 0 0 -1
    outer loop
      vertex -28.8383 24.0137 0
      vertex -37.6617 24.0137 0
      vertex -29.118 24.3244 0
    endloop
  endfacet
  facet normal 0 0 -1
    outer loop
      vertex -29.4563 25.0842 0
      vertex -37 25.5 0
      vertex -29.5 25.5 0
    endloop
  endfacet
  facet normal 0 -0 -1
    outer loop
      vertex -37.382 24.3244 0
      vertex -29.118 24.3244 0
      vertex -37.6617 24.0137 0
    endloop
  endfacet
  facet normal 0 0 -1
    outer loop
      vertex -29.4563 25.0842 0
      vertex -37.0437 25.0842 0
      vertex -37 25.5 0
    endloop
  endfacet
  facet normal -0 0 -1
    outer loop
      vertex -29.4563 25.0842 0
      vertex -37.1729 24.6865 0
      vertex -37.0437 25.0842 0
    endloop
  endfacet
  facet normal 0 0 -1
    outer loop
      vertex -29.3271 24.6865 0
      vertex -37.1729 24.6865 0
      vertex -29.4563 25.0842 0
    endloop
  endfacet
  facet normal 0 -0 -1
    outer loop
      vertex -37.1729 24.6865 0
      vertex -29.3271 24.6865 0
      vertex -37.382 24.3244 0
    endloop
  endfacet
  facet normal 0 0 -1
    outer loop
      vertex -29.118 24.3244 0
      vertex -37.382 24.3244 0
      vertex -29.3271 24.6865 0
    endloop
  endfacet
  facet normal 0 0 -1
    outer loop
      vertex -28.5 23.7679 0
      vertex -38 23.7679 0
      vertex -28.8383 24.0137 0
    endloop
  endfacet
  facet normal 0 0 -1
    outer loop
      vertex -23 4 0
      vertex -38.7909 23.511 0
      vertex -38.382 23.5979 0
    endloop
  endfacet
  facet normal 0 0 -1
    outer loop
      vertex -23 4 0
      vertex -39.2091 23.511 0
      vertex -38.7909 23.511 0
    endloop
  endfacet
  facet normal 0 0 -1
    outer loop
      vertex -23 4 0
      vertex -39.618 23.5979 0
      vertex -39.2091 23.511 0
    endloop
  endfacet
  facet normal 0 0 -1
    outer loop
      vertex -67 0 0
      vertex -39.618 23.5979 0
      vertex -23 4 0
    endloop
  endfacet
  facet normal -0 0 -1
    outer loop
      vertex -39.618 23.5979 0
      vertex -67 0 0
      vertex -40 23.7679 0
    endloop
  endfacet
  facet normal -0 0 -1
    outer loop
      vertex -40 23.7679 0
      vertex -67 0 0
      vertex -40.3383 24.0137 0
    endloop
  endfacet
  facet normal -0 0 -1
    outer loop
      vertex -40.9563 25.0842 0
      vertex -67 0 0
      vertex -41 25.5 0
    endloop
  endfacet
  facet normal -0 0 -1
    outer loop
      vertex -40.8271 24.6865 0
      vertex -67 0 0
      vertex -40.9563 25.0842 0
    endloop
  endfacet
  facet normal -0 0 -1
    outer loop
      vertex -40.618 24.3244 0
      vertex -67 0 0
      vertex -40.8271 24.6865 0
    endloop
  endfacet
  facet normal -0 0 -1
    outer loop
      vertex -40.3383 24.0137 0
      vertex -67 0 0
      vertex -40.618 24.3244 0
    endloop
  endfacet
  facet normal 0 0 -1
    outer loop
      vertex -67 0 0
      vertex -23 4 0
      vertex 0 0 0
    endloop
  endfacet
  facet normal 0 0 -1
    outer loop
      vertex 0 0 0
      vertex -10 20.3 0
      vertex 0 47 0
    endloop
  endfacet
  facet normal 0 0 -1
    outer loop
      vertex -15.4837 25.9158 0
      vertex -10 20.3 0
      vertex -15.44 25.5 0
    endloop
  endfacet
  facet normal 0 0 -1
    outer loop
      vertex -15.6129 26.3135 0
      vertex -10 20.3 0
      vertex -15.4837 25.9158 0
    endloop
  endfacet
  facet normal 0 0 -1
    outer loop
      vertex -10 20.3 0
      vertex -15.5 33.6 0
      vertex 0 47 0
    endloop
  endfacet
  facet normal 0 0 -1
    outer loop
      vertex -15.5 43.6 0
      vertex 0 47 0
      vertex -15.5 33.6 0
    endloop
  endfacet
  facet normal 0 0 -1
    outer loop
      vertex -38.5 43.6 0
      vertex 0 47 0
      vertex -15.5 43.6 0
    endloop
  endfacet
  facet normal 0 0 -1
    outer loop
      vertex -39.618 27.4021 0
      vertex -38.5 33.6 0
      vertex -39.2091 27.489 0
    endloop
  endfacet
  facet normal 0 0 -1
    outer loop
      vertex -40 27.232 0
      vertex -38.5 33.6 0
      vertex -39.618 27.4021 0
    endloop
  endfacet
  facet normal 0 0 -1
    outer loop
      vertex -40.3383 26.9863 0
      vertex -38.5 33.6 0
      vertex -40 27.232 0
    endloop
  endfacet
  facet normal 0 0 -1
    outer loop
      vertex -40.618 26.6756 0
      vertex -38.5 33.6 0
      vertex -40.3383 26.9863 0
    endloop
  endfacet
  facet normal 0 0 -1
    outer loop
      vertex -67 47 0
      vertex -38.5 33.6 0
      vertex -40.618 26.6756 0
    endloop
  endfacet
  facet normal 0 0 -1
    outer loop
      vertex -67 47 0
      vertex -40.618 26.6756 0
      vertex -40.8271 26.3135 0
    endloop
  endfacet
  facet normal 0 0 -1
    outer loop
      vertex -67 47 0
      vertex -40.8271 26.3135 0
      vertex -40.9563 25.9158 0
    endloop
  endfacet
  facet normal 0 0 -1
    outer loop
      vertex -67 47 0
      vertex -41 25.5 0
      vertex -67 0 0
    endloop
  endfacet
  facet normal 0 0 -1
    outer loop
      vertex -41 25.5 0
      vertex -67 47 0
      vertex -40.9563 25.9158 0
    endloop
  endfacet
  facet normal 0 0 -1
    outer loop
      vertex -38.5 43.6 0
      vertex -67 47 0
      vertex 0 47 0
    endloop
  endfacet
  facet normal 0 0 -1
    outer loop
      vertex -38.5 33.6 0
      vertex -67 47 0
      vertex -38.5 43.6 0
    endloop
  endfacet
  facet normal 0 -1 0
    outer loop
      vertex -67 0 19
      vertex -10 0 17
      vertex 0 0 19
    endloop
  endfacet
  facet normal 0 -1 0
    outer loop
      vertex -67 0 19
      vertex -10 0 12
      vertex -10 0 17
    endloop
  endfacet
  facet normal 0 -1 0
    outer loop
      vertex 0 0 0
      vertex -10 0 12
      vertex -67 0 0
    endloop
  endfacet
  facet normal 0 -1 0
    outer loop
      vertex -67 0 0
      vertex -10 0 12
      vertex -67 0 19
    endloop
  endfacet
  facet normal 0 -1 0
    outer loop
      vertex -5 0 17
      vertex 0 0 19
      vertex -10 0 17
    endloop
  endfacet
  facet normal 0 -1 0
    outer loop
      vertex -5 0 12
      vertex 0 0 19
      vertex -5 0 17
    endloop
  endfacet
  facet normal 0 -1 0
    outer loop
      vertex -5 0 12
      vertex 0 0 0
      vertex 0 0 19
    endloop
  endfacet
  facet normal 0 -1 0
    outer loop
      vertex -10 0 12
      vertex 0 0 0
      vertex -5 0 12
    endloop
  endfacet
  facet normal 1 -0 0
    outer loop
      vertex -51 7 19
      vertex -51 19 2
      vertex -51 19 19
    endloop
  endfacet
  facet normal 1 0 0
    outer loop
      vertex -51 19 2
      vertex -51 7 19
      vertex -51 7 2
    endloop
  endfacet
  facet normal -1 0 0
    outer loop
      vertex -2 1 2
      vertex -2 45 19
      vertex -2 45 2
    endloop
  endfacet
  facet normal -1 -0 0
    outer loop
      vertex -2 45 19
      vertex -2 1 2
      vertex -2 1 19
    endloop
  endfacet
  facet normal 0 -1 0
    outer loop
      vertex -49 45 16
      vertex -65 45 19
      vertex -62 45 16
    endloop
  endfacet
  facet normal 0 -1 0
    outer loop
      vertex -65 45 2
      vertex -62 45 16
      vertex -65 45 19
    endloop
  endfacet
  facet normal 0 -1 -0
    outer loop
      vertex -62 45 3
      vertex -65 45 2
      vertex -49 45 3
    endloop
  endfacet
  facet normal 0 -1 -0
    outer loop
      vertex -62 45 16
      vertex -65 45 2
      vertex -62 45 3
    endloop
  endfacet
  facet normal 0 -1 0
    outer loop
      vertex -65 45 19
      vertex -49 45 16
      vertex -2 45 19
    endloop
  endfacet
  facet normal 0 -1 0
    outer loop
      vertex -2 45 2
      vertex -49 45 16
      vertex -49 45 3
    endloop
  endfacet
  facet normal 0 -1 0
    outer loop
      vertex -49 45 16
      vertex -2 45 2
      vertex -2 45 19
    endloop
  endfacet
  facet normal 0 -1 0
    outer loop
      vertex -2 45 2
      vertex -49 45 3
      vertex -65 45 2
    endloop
  endfacet
  facet normal 0 0 1
    outer loop
      vertex -2 45 2
      vertex -10 20.3 2
      vertex -2 1 2
    endloop
  endfacet
  facet normal -0 0 1
    outer loop
      vertex -15.5 33.6 2
      vertex -10 20.3 2
      vertex -2 45 2
    endloop
  endfacet
  facet normal 0 0 1
    outer loop
      vertex -10 20.3 2
      vertex -15.4837 25.9158 2
      vertex -15.44 25.5 2
    endloop
  endfacet
  facet normal 0 0 1
    outer loop
      vertex -15.5 33.6 2
      vertex -2 45 2
      vertex -15.5 43.6 2
    endloop
  endfacet
  facet normal 0 0 1
    outer loop
      vertex -2 45 2
      vertex -38.5 43.6 2
      vertex -15.5 43.6 2
    endloop
  endfacet
  facet normal 0 0 1
    outer loop
      vertex -65 45 2
      vertex -38.5 33.6 2
      vertex -38.5 43.6 2
    endloop
  endfacet
  facet normal 0 0 1
    outer loop
      vertex -38.5 33.6 2
      vertex -39.2091 27.489 2
      vertex -38.7909 27.489 2
    endloop
  endfacet
  facet normal 0 0 1
    outer loop
      vertex -38.5 33.6 2
      vertex -39.618 27.4021 2
      vertex -39.2091 27.489 2
    endloop
  endfacet
  facet normal 0 0 1
    outer loop
      vertex -38.5 33.6 2
      vertex -40 27.232 2
      vertex -39.618 27.4021 2
    endloop
  endfacet
  facet normal 0 0 1
    outer loop
      vertex -38.5 33.6 2
      vertex -40.3383 26.9863 2
      vertex -40 27.232 2
    endloop
  endfacet
  facet normal 0 0 1
    outer loop
      vertex -38.5 33.6 2
      vertex -40.618 26.6756 2
      vertex -40.3383 26.9863 2
    endloop
  endfacet
  facet normal 0 0 1
    outer loop
      vertex -38.5 33.6 2
      vertex -65 45 2
      vertex -40.618 26.6756 2
    endloop
  endfacet
  facet normal 0 0 1
    outer loop
      vertex -40.618 26.6756 2
      vertex -65 45 2
      vertex -40.8271 26.3135 2
    endloop
  endfacet
  facet normal 0 0 1
    outer loop
      vertex -40.9563 25.9158 2
      vertex -51 19 2
      vertex -41 25.5 2
    endloop
  endfacet
  facet normal 0 -0 1
    outer loop
      vertex -56 19 2
      vertex -40.8271 26.3135 2
      vertex -65 45 2
    endloop
  endfacet
  facet normal 0 -0 1
    outer loop
      vertex -51 19 2
      vertex -40.8271 26.3135 2
      vertex -56 19 2
    endloop
  endfacet
  facet normal 0 0 1
    outer loop
      vertex -56 19 2
      vertex -61 19 2
      vertex -56 7 2
    endloop
  endfacet
  facet normal 0 0 1
    outer loop
      vertex -40.8271 26.3135 2
      vertex -51 19 2
      vertex -40.9563 25.9158 2
    endloop
  endfacet
  facet normal -0 0 1
    outer loop
      vertex -65 45 2
      vertex -38.5 43.6 2
      vertex -2 45 2
    endloop
  endfacet
  facet normal 0 0 1
    outer loop
      vertex -56 19 2
      vertex -65 45 2
      vertex -61 19 2
    endloop
  endfacet
  facet normal 0 0 1
    outer loop
      vertex -61 19 2
      vertex -65 45 2
      vertex -65 19 2
    endloop
  endfacet
  facet normal -0 0 1
    outer loop
      vertex -10 4 2
      vertex -2 1 2
      vertex -10 20.3 2
    endloop
  endfacet
  facet normal -0 0 1
    outer loop
      vertex -23 4 2
      vertex -2 1 2
      vertex -10 4 2
    endloop
  endfacet
  facet normal 0 0 1
    outer loop
      vertex -19.2671 24.6865 2
      vertex -25.6729 24.6865 2
      vertex -23 20.3 2
    endloop
  endfacet
  facet normal -0 0 1
    outer loop
      vertex -25.882 24.3244 2
      vertex -23 20.3 2
      vertex -25.6729 24.6865 2
    endloop
  endfacet
  facet normal -0 0 1
    outer loop
      vertex -26.1617 24.0137 2
      vertex -23 20.3 2
      vertex -25.882 24.3244 2
    endloop
  endfacet
  facet normal -0 0 1
    outer loop
      vertex -26.5 23.7679 2
      vertex -23 20.3 2
      vertex -26.1617 24.0137 2
    endloop
  endfacet
  facet normal -0 0 1
    outer loop
      vertex -26.882 23.5979 2
      vertex -23 20.3 2
      vertex -26.5 23.7679 2
    endloop
  endfacet
  facet normal -0 0 1
    outer loop
      vertex -27.2909 23.511 2
      vertex -23 20.3 2
      vertex -26.882 23.5979 2
    endloop
  endfacet
  facet normal -0 0 1
    outer loop
      vertex -27.7091 23.511 2
      vertex -23 20.3 2
      vertex -27.2909 23.511 2
    endloop
  endfacet
  facet normal 0 0 1
    outer loop
      vertex -28.118 23.5979 2
      vertex -23 20.3 2
      vertex -27.7091 23.511 2
    endloop
  endfacet
  facet normal 0 0 1
    outer loop
      vertex -23 20.3 2
      vertex -28.118 23.5979 2
      vertex -23 4 2
    endloop
  endfacet
  facet normal 0 0 1
    outer loop
      vertex -38.382 23.5979 2
      vertex -28.118 23.5979 2
      vertex -28.5 23.7679 2
    endloop
  endfacet
  facet normal 0 0 1
    outer loop
      vertex -38 23.7679 2
      vertex -28.5 23.7679 2
      vertex -28.8383 24.0137 2
    endloop
  endfacet
  facet normal 0 0 1
    outer loop
      vertex -37.6617 24.0137 2
      vertex -28.8383 24.0137 2
      vertex -29.118 24.3244 2
    endloop
  endfacet
  facet normal 0 0 1
    outer loop
      vertex -37.382 24.3244 2
      vertex -29.118 24.3244 2
      vertex -29.3271 24.6865 2
    endloop
  endfacet
  facet normal 0 0 1
    outer loop
      vertex -37.1729 24.6865 2
      vertex -29.3271 24.6865 2
      vertex -29.4563 25.0842 2
    endloop
  endfacet
  facet normal -0 0 1
    outer loop
      vertex -37 25.5 2
      vertex -29.4563 25.0842 2
      vertex -29.5 25.5 2
    endloop
  endfacet
  facet normal 0 0 1
    outer loop
      vertex -37.0437 25.0842 2
      vertex -29.4563 25.0842 2
      vertex -37 25.5 2
    endloop
  endfacet
  facet normal 0 0 1
    outer loop
      vertex -37.1729 24.6865 2
      vertex -29.4563 25.0842 2
      vertex -37.0437 25.0842 2
    endloop
  endfacet
  facet normal 0 0 1
    outer loop
      vertex -29.3271 24.6865 2
      vertex -37.1729 24.6865 2
      vertex -37.382 24.3244 2
    endloop
  endfacet
  facet normal 0 0 1
    outer loop
      vertex -29.118 24.3244 2
      vertex -37.382 24.3244 2
      vertex -37.6617 24.0137 2
    endloop
  endfacet
  facet normal 0 0 1
    outer loop
      vertex -28.8383 24.0137 2
      vertex -37.6617 24.0137 2
      vertex -38 23.7679 2
    endloop
  endfacet
  facet normal 0 0 1
    outer loop
      vertex -28.5 23.7679 2
      vertex -38 23.7679 2
      vertex -38.382 23.5979 2
    endloop
  endfacet
  facet normal 0 0 1
    outer loop
      vertex -28.118 23.5979 2
      vertex -38.382 23.5979 2
      vertex -23 4 2
    endloop
  endfacet
  facet normal -0 0 1
    outer loop
      vertex -38.7909 23.511 2
      vertex -23 4 2
      vertex -38.382 23.5979 2
    endloop
  endfacet
  facet normal 0 0 1
    outer loop
      vertex -51 7 2
      vertex -38.7909 23.511 2
      vertex -39.2091 23.511 2
    endloop
  endfacet
  facet normal 0 0 1
    outer loop
      vertex -51 7 2
      vertex -39.2091 23.511 2
      vertex -39.618 23.5979 2
    endloop
  endfacet
  facet normal 0 0 1
    outer loop
      vertex -51 19 2
      vertex -39.618 23.5979 2
      vertex -40 23.7679 2
    endloop
  endfacet
  facet normal 0 0 1
    outer loop
      vertex -51 19 2
      vertex -40 23.7679 2
      vertex -40.3383 24.0137 2
    endloop
  endfacet
  facet normal 0 0 1
    outer loop
      vertex -51 19 2
      vertex -40.3383 24.0137 2
      vertex -40.618 24.3244 2
    endloop
  endfacet
  facet normal 0 0 1
    outer loop
      vertex -51 19 2
      vertex -40.9563 25.0842 2
      vertex -41 25.5 2
    endloop
  endfacet
  facet normal 0 0 1
    outer loop
      vertex -51 19 2
      vertex -40.8271 24.6865 2
      vertex -40.9563 25.0842 2
    endloop
  endfacet
  facet normal 0 0 1
    outer loop
      vertex -51 19 2
      vertex -40.618 24.3244 2
      vertex -40.8271 24.6865 2
    endloop
  endfacet
  facet normal 0 0 1
    outer loop
      vertex -39.618 23.5979 2
      vertex -51 19 2
      vertex -51 7 2
    endloop
  endfacet
  facet normal 0 0 1
    outer loop
      vertex -38.7909 23.511 2
      vertex -51 7 2
      vertex -23 4 2
    endloop
  endfacet
  facet normal 0 0 1
    outer loop
      vertex -61 1 2
      vertex -23 4 2
      vertex -51 7 2
    endloop
  endfacet
  facet normal 0 0 1
    outer loop
      vertex -61 1 2
      vertex -51 7 2
      vertex -56 7 2
    endloop
  endfacet
  facet normal 0 0 1
    outer loop
      vertex -23 4 2
      vertex -61 1 2
      vertex -2 1 2
    endloop
  endfacet
  facet normal 0 0 1
    outer loop
      vertex -61 1 2
      vertex -56 7 2
      vertex -61 19 2
    endloop
  endfacet
  facet normal -0 0 1
    outer loop
      vertex -15.4837 25.0842 2
      vertex -10 20.3 2
      vertex -15.44 25.5 2
    endloop
  endfacet
  facet normal -0 0 1
    outer loop
      vertex -15.6129 24.6865 2
      vertex -10 20.3 2
      vertex -15.4837 25.0842 2
    endloop
  endfacet
  facet normal -0 0 1
    outer loop
      vertex -15.822 24.3244 2
      vertex -10 20.3 2
      vertex -15.6129 24.6865 2
    endloop
  endfacet
  facet normal -0 0 1
    outer loop
      vertex -16.1017 24.0137 2
      vertex -10 20.3 2
      vertex -15.822 24.3244 2
    endloop
  endfacet
  facet normal -0 0 1
    outer loop
      vertex -16.44 23.7679 2
      vertex -10 20.3 2
      vertex -16.1017 24.0137 2
    endloop
  endfacet
  facet normal -0 0 1
    outer loop
      vertex -16.822 23.5979 2
      vertex -10 20.3 2
      vertex -16.44 23.7679 2
    endloop
  endfacet
  facet normal -0 0 1
    outer loop
      vertex -17.2309 23.511 2
      vertex -10 20.3 2
      vertex -16.822 23.5979 2
    endloop
  endfacet
  facet normal 0 0 1
    outer loop
      vertex -23 20.3 2
      vertex -17.2309 23.511 2
      vertex -17.6491 23.511 2
    endloop
  endfacet
  facet normal 0 0 1
    outer loop
      vertex -23 20.3 2
      vertex -17.6491 23.511 2
      vertex -18.058 23.5979 2
    endloop
  endfacet
  facet normal 0 0 1
    outer loop
      vertex -17.2309 23.511 2
      vertex -23 20.3 2
      vertex -10 20.3 2
    endloop
  endfacet
  facet normal 0 0 1
    outer loop
      vertex -18.44 23.7679 2
      vertex -23 20.3 2
      vertex -18.058 23.5979 2
    endloop
  endfacet
  facet normal 0 0 1
    outer loop
      vertex -18.7783 24.0137 2
      vertex -23 20.3 2
      vertex -18.44 23.7679 2
    endloop
  endfacet
  facet normal 0 0 1
    outer loop
      vertex -19.058 24.3244 2
      vertex -23 20.3 2
      vertex -18.7783 24.0137 2
    endloop
  endfacet
  facet normal 0 0 1
    outer loop
      vertex -19.2671 24.6865 2
      vertex -23 20.3 2
      vertex -19.058 24.3244 2
    endloop
  endfacet
  facet normal 0 0 1
    outer loop
      vertex -25.5437 25.0842 2
      vertex -19.3963 25.0842 2
      vertex -25.5 25.5 2
    endloop
  endfacet
  facet normal -0 0 1
    outer loop
      vertex -25.5 25.5 2
      vertex -19.3963 25.0842 2
      vertex -19.44 25.5 2
    endloop
  endfacet
  facet normal -0 0 1
    outer loop
      vertex -15.6129 26.3135 2
      vertex -10 20.3 2
      vertex -15.5 33.6 2
    endloop
  endfacet
  facet normal 0 0 1
    outer loop
      vertex -10 20.3 2
      vertex -15.6129 26.3135 2
      vertex -15.4837 25.9158 2
    endloop
  endfacet
  facet normal 0 0 1
    outer loop
      vertex -15.5 33.6 2
      vertex -15.822 26.6756 2
      vertex -15.6129 26.3135 2
    endloop
  endfacet
  facet normal 0 0 1
    outer loop
      vertex -15.5 33.6 2
      vertex -16.1017 26.9863 2
      vertex -15.822 26.6756 2
    endloop
  endfacet
  facet normal 0 0 1
    outer loop
      vertex -15.5 33.6 2
      vertex -16.44 27.232 2
      vertex -16.1017 26.9863 2
    endloop
  endfacet
  facet normal 0 0 1
    outer loop
      vertex -15.5 33.6 2
      vertex -16.822 27.4021 2
      vertex -16.44 27.232 2
    endloop
  endfacet
  facet normal 0 0 1
    outer loop
      vertex -15.5 33.6 2
      vertex -17.2309 27.489 2
      vertex -16.822 27.4021 2
    endloop
  endfacet
  facet normal 0 0 1
    outer loop
      vertex -15.5 33.6 2
      vertex -17.6491 27.489 2
      vertex -17.2309 27.489 2
    endloop
  endfacet
  facet normal 0 0 1
    outer loop
      vertex -15.5 33.6 2
      vertex -18.058 27.4021 2
      vertex -17.6491 27.489 2
    endloop
  endfacet
  facet normal 0 0 1
    outer loop
      vertex -15.5 33.6 2
      vertex -18.44 27.232 2
      vertex -18.058 27.4021 2
    endloop
  endfacet
  facet normal 0 0 1
    outer loop
      vertex -26.5 27.232 2
      vertex -18.44 27.232 2
      vertex -15.5 33.6 2
    endloop
  endfacet
  facet normal 0 0 1
    outer loop
      vertex -18.44 27.232 2
      vertex -26.5 27.232 2
      vertex -18.7783 26.9863 2
    endloop
  endfacet
  facet normal 0 -0 1
    outer loop
      vertex -26.1617 26.9863 2
      vertex -18.7783 26.9863 2
      vertex -26.5 27.232 2
    endloop
  endfacet
  facet normal 0 0 1
    outer loop
      vertex -25.5 25.5 2
      vertex -19.44 25.5 2
      vertex -19.3963 25.9158 2
    endloop
  endfacet
  facet normal 0 0 1
    outer loop
      vertex -25.5437 25.9158 2
      vertex -19.3963 25.9158 2
      vertex -19.2671 26.3135 2
    endloop
  endfacet
  facet normal 0 -0 1
    outer loop
      vertex -25.882 26.6756 2
      vertex -19.058 26.6756 2
      vertex -26.1617 26.9863 2
    endloop
  endfacet
  facet normal 0 0 1
    outer loop
      vertex -25.6729 24.6865 2
      vertex -19.2671 24.6865 2
      vertex -25.5437 25.0842 2
    endloop
  endfacet
  facet normal 0 0 1
    outer loop
      vertex -19.3963 25.0842 2
      vertex -25.5437 25.0842 2
      vertex -19.2671 24.6865 2
    endloop
  endfacet
  facet normal 0 0 1
    outer loop
      vertex -19.3963 25.9158 2
      vertex -25.5437 25.9158 2
      vertex -25.5 25.5 2
    endloop
  endfacet
  facet normal 0 0 1
    outer loop
      vertex -19.2671 26.3135 2
      vertex -25.6729 26.3135 2
      vertex -25.5437 25.9158 2
    endloop
  endfacet
  facet normal 0 0 1
    outer loop
      vertex -19.2671 26.3135 2
      vertex -25.882 26.6756 2
      vertex -25.6729 26.3135 2
    endloop
  endfacet
  facet normal 0 0 1
    outer loop
      vertex -19.058 26.6756 2
      vertex -25.882 26.6756 2
      vertex -19.2671 26.3135 2
    endloop
  endfacet
  facet normal 0 0 1
    outer loop
      vertex -18.7783 26.9863 2
      vertex -26.1617 26.9863 2
      vertex -19.058 26.6756 2
    endloop
  endfacet
  facet normal 0 0 1
    outer loop
      vertex -15.5 33.6 2
      vertex -26.882 27.4021 2
      vertex -26.5 27.232 2
    endloop
  endfacet
  facet normal 0 0 1
    outer loop
      vertex -15.5 33.6 2
      vertex -27.2909 27.489 2
      vertex -26.882 27.4021 2
    endloop
  endfacet
  facet normal -0 0 1
    outer loop
      vertex -38.5 33.6 2
      vertex -27.2909 27.489 2
      vertex -15.5 33.6 2
    endloop
  endfacet
  facet normal 0 0 1
    outer loop
      vertex -27.2909 27.489 2
      vertex -38.5 33.6 2
      vertex -27.7091 27.489 2
    endloop
  endfacet
  facet normal 0 0 1
    outer loop
      vertex -27.7091 27.489 2
      vertex -38.5 33.6 2
      vertex -28.118 27.4021 2
    endloop
  endfacet
  facet normal 0 0 1
    outer loop
      vertex -29.4563 25.9158 2
      vertex -37 25.5 2
      vertex -29.5 25.5 2
    endloop
  endfacet
  facet normal 0 0 1
    outer loop
      vertex -37.0437 25.9158 2
      vertex -29.4563 25.9158 2
      vertex -29.3271 26.3135 2
    endloop
  endfacet
  facet normal 0 0 1
    outer loop
      vertex -37.1729 26.3135 2
      vertex -29.3271 26.3135 2
      vertex -29.118 26.6756 2
    endloop
  endfacet
  facet normal 0 0 1
    outer loop
      vertex -37.382 26.6756 2
      vertex -29.118 26.6756 2
      vertex -28.8383 26.9863 2
    endloop
  endfacet
  facet normal 0 0 1
    outer loop
      vertex -38.5 33.6 2
      vertex -28.8383 26.9863 2
      vertex -28.5 27.232 2
    endloop
  endfacet
  facet normal 0 0 1
    outer loop
      vertex -28.118 27.4021 2
      vertex -38.5 33.6 2
      vertex -28.5 27.232 2
    endloop
  endfacet
  facet normal 0 0 1
    outer loop
      vertex -29.4563 25.9158 2
      vertex -37.0437 25.9158 2
      vertex -37 25.5 2
    endloop
  endfacet
  facet normal 0 0 1
    outer loop
      vertex -29.3271 26.3135 2
      vertex -37.1729 26.3135 2
      vertex -37.0437 25.9158 2
    endloop
  endfacet
  facet normal 0 0 1
    outer loop
      vertex -28.8383 26.9863 2
      vertex -38.5 33.6 2
      vertex -37.6617 26.9863 2
    endloop
  endfacet
  facet normal 0 0 1
    outer loop
      vertex -29.118 26.6756 2
      vertex -37.382 26.6756 2
      vertex -37.1729 26.3135 2
    endloop
  endfacet
  facet normal 0 0 1
    outer loop
      vertex -28.8383 26.9863 2
      vertex -37.6617 26.9863 2
      vertex -37.382 26.6756 2
    endloop
  endfacet
  facet normal 0 0 1
    outer loop
      vertex -37.6617 26.9863 2
      vertex -38.5 33.6 2
      vertex -38 27.232 2
    endloop
  endfacet
  facet normal 0 0 1
    outer loop
      vertex -38 27.232 2
      vertex -38.5 33.6 2
      vertex -38.382 27.4021 2
    endloop
  endfacet
  facet normal 0 0 1
    outer loop
      vertex -38.382 27.4021 2
      vertex -38.5 33.6 2
      vertex -38.7909 27.489 2
    endloop
  endfacet
  facet normal 0 1 -0
    outer loop
      vertex -10 4 0
      vertex -23 4 2
      vertex -10 4 2
    endloop
  endfacet
  facet normal 0 1 0
    outer loop
      vertex -23 4 2
      vertex -10 4 0
      vertex -23 4 0
    endloop
  endfacet
  facet normal 1 -0 0
    outer loop
      vertex -65 19 19
      vertex -65 45 2
      vertex -65 45 19
    endloop
  endfacet
  facet normal 1 0 0
    outer loop
      vertex -65 45 2
      vertex -65 19 19
      vertex -65 19 2
    endloop
  endfacet
  facet normal 0 1 -0
    outer loop
      vertex -61 19 2
      vertex -65 19 19
      vertex -61 19 19
    endloop
  endfacet
  facet normal 0 1 0
    outer loop
      vertex -65 19 19
      vertex -61 19 2
      vertex -65 19 2
    endloop
  endfacet
  facet normal 0 1 -0
    outer loop
      vertex -51 19 2
      vertex -56 19 19
      vertex -51 19 19
    endloop
  endfacet
  facet normal 0 1 0
    outer loop
      vertex -56 19 19
      vertex -51 19 2
      vertex -56 19 2
    endloop
  endfacet
  facet normal 1 -0 0
    outer loop
      vertex -62 45 16
      vertex -62 47 3
      vertex -62 47 16
    endloop
  endfacet
  facet normal 1 0 0
    outer loop
      vertex -62 47 3
      vertex -62 45 16
      vertex -62 45 3
    endloop
  endfacet
  facet normal 0 0 -1
    outer loop
      vertex -62 45 16
      vertex -49 47 16
      vertex -49 45 16
    endloop
  endfacet
  facet normal -0 0 -1
    outer loop
      vertex -49 47 16
      vertex -62 45 16
      vertex -62 47 16
    endloop
  endfacet
  facet normal -1 0 0
    outer loop
      vertex -49 45 3
      vertex -49 47 16
      vertex -49 47 3
    endloop
  endfacet
  facet normal -1 -0 0
    outer loop
      vertex -49 47 16
      vertex -49 45 3
      vertex -49 45 16
    endloop
  endfacet
  facet normal -0 0 1
    outer loop
      vertex -62 47 3
      vertex -49 45 3
      vertex -49 47 3
    endloop
  endfacet
  facet normal 0 0 1
    outer loop
      vertex -49 45 3
      vertex -62 47 3
      vertex -62 45 3
    endloop
  endfacet
  facet normal 1 -0 0
    outer loop
      vertex -38.5 33.6 2
      vertex -38.5 43.6 0
      vertex -38.5 43.6 2
    endloop
  endfacet
  facet normal 1 0 0
    outer loop
      vertex -38.5 43.6 0
      vertex -38.5 33.6 2
      vertex -38.5 33.6 0
    endloop
  endfacet
  facet normal -1 0 0
    outer loop
      vertex -15.5 33.6 0
      vertex -15.5 43.6 2
      vertex -15.5 43.6 0
    endloop
  endfacet
  facet normal -1 -0 0
    outer loop
      vertex -15.5 43.6 2
      vertex -15.5 33.6 0
      vertex -15.5 33.6 2
    endloop
  endfacet
  facet normal 0 -1 0
    outer loop
      vertex -38.5 43.6 0
      vertex -15.5 43.6 2
      vertex -38.5 43.6 2
    endloop
  endfacet
  facet normal 0 -1 -0
    outer loop
      vertex -15.5 43.6 2
      vertex -38.5 43.6 0
      vertex -15.5 43.6 0
    endloop
  endfacet
  facet normal 0 1 -0
    outer loop
      vertex -15.5 33.6 0
      vertex -38.5 33.6 2
      vertex -15.5 33.6 2
    endloop
  endfacet
  facet normal 0 1 0
    outer loop
      vertex -38.5 33.6 2
      vertex -15.5 33.6 0
      vertex -38.5 33.6 0
    endloop
  endfacet
  facet normal -0.994522 -0.104529 0
    outer loop
      vertex -37 25.5 0
      vertex -37.0437 25.9158 2
      vertex -37.0437 25.9158 0
    endloop
  endfacet
  facet normal -0.994522 -0.104529 0
    outer loop
      vertex -37.0437 25.9158 2
      vertex -37 25.5 0
      vertex -37 25.5 2
    endloop
  endfacet
  facet normal 0.994522 -0.104529 0
    outer loop
      vertex -41 25.5 2
      vertex -40.9563 25.9158 0
      vertex -40.9563 25.9158 2
    endloop
  endfacet
  facet normal 0.994522 -0.104529 0
    outer loop
      vertex -40.9563 25.9158 0
      vertex -41 25.5 2
      vertex -41 25.5 0
    endloop
  endfacet
  facet normal 0 -1 0
    outer loop
      vertex -39.2091 27.489 0
      vertex -38.7909 27.489 2
      vertex -39.2091 27.489 2
    endloop
  endfacet
  facet normal 0 -1 -0
    outer loop
      vertex -38.7909 27.489 2
      vertex -39.2091 27.489 0
      vertex -38.7909 27.489 0
    endloop
  endfacet
  facet normal 0 1 -0
    outer loop
      vertex -38.7909 23.511 0
      vertex -39.2091 23.511 2
      vertex -38.7909 23.511 2
    endloop
  endfacet
  facet normal 0 1 0
    outer loop
      vertex -39.2091 23.511 2
      vertex -38.7909 23.511 0
      vertex -39.2091 23.511 0
    endloop
  endfacet
  facet normal -0.743143 -0.669133 0
    outer loop
      vertex -37.382 26.6756 0
      vertex -37.6617 26.9863 2
      vertex -37.6617 26.9863 0
    endloop
  endfacet
  facet normal -0.743143 -0.669133 0
    outer loop
      vertex -37.6617 26.9863 2
      vertex -37.382 26.6756 0
      vertex -37.382 26.6756 2
    endloop
  endfacet
  facet normal 0.743143 -0.669133 0
    outer loop
      vertex -40.618 26.6756 2
      vertex -40.3383 26.9863 0
      vertex -40.3383 26.9863 2
    endloop
  endfacet
  facet normal 0.743143 -0.669133 0
    outer loop
      vertex -40.3383 26.9863 0
      vertex -40.618 26.6756 2
      vertex -40.618 26.6756 0
    endloop
  endfacet
  facet normal 0.406739 -0.913545 0
    outer loop
      vertex -40 27.232 0
      vertex -39.618 27.4021 2
      vertex -40 27.232 2
    endloop
  endfacet
  facet normal 0.406739 -0.913545 0
    outer loop
      vertex -39.618 27.4021 2
      vertex -40 27.232 0
      vertex -39.618 27.4021 0
    endloop
  endfacet
  facet normal -0.866026 0.499998 0
    outer loop
      vertex -37.382 24.3244 0
      vertex -37.1729 24.6865 2
      vertex -37.1729 24.6865 0
    endloop
  endfacet
  facet normal -0.866026 0.499998 0
    outer loop
      vertex -37.1729 24.6865 2
      vertex -37.382 24.3244 0
      vertex -37.382 24.3244 2
    endloop
  endfacet
  facet normal -0.866026 -0.499998 0
    outer loop
      vertex -37.1729 26.3135 0
      vertex -37.382 26.6756 2
      vertex -37.382 26.6756 0
    endloop
  endfacet
  facet normal -0.866026 -0.499998 0
    outer loop
      vertex -37.382 26.6756 2
      vertex -37.1729 26.3135 0
      vertex -37.1729 26.3135 2
    endloop
  endfacet
  facet normal -0.951057 -0.309016 0
    outer loop
      vertex -37.0437 25.9158 0
      vertex -37.1729 26.3135 2
      vertex -37.1729 26.3135 0
    endloop
  endfacet
  facet normal -0.951057 -0.309016 0
    outer loop
      vertex -37.1729 26.3135 2
      vertex -37.0437 25.9158 0
      vertex -37.0437 25.9158 2
    endloop
  endfacet
  facet normal -0.406739 -0.913545 0
    outer loop
      vertex -38.382 27.4021 0
      vertex -38 27.232 2
      vertex -38.382 27.4021 2
    endloop
  endfacet
  facet normal -0.406739 -0.913545 -0
    outer loop
      vertex -38 27.232 2
      vertex -38.382 27.4021 0
      vertex -38 27.232 0
    endloop
  endfacet
  facet normal -0.207913 -0.978147 0
    outer loop
      vertex -38.7909 27.489 0
      vertex -38.382 27.4021 2
      vertex -38.7909 27.489 2
    endloop
  endfacet
  facet normal -0.207913 -0.978147 -0
    outer loop
      vertex -38.382 27.4021 2
      vertex -38.7909 27.489 0
      vertex -38.382 27.4021 0
    endloop
  endfacet
  facet normal -0.587784 -0.809018 0
    outer loop
      vertex -38 27.232 0
      vertex -37.6617 26.9863 2
      vertex -38 27.232 2
    endloop
  endfacet
  facet normal -0.587784 -0.809018 -0
    outer loop
      vertex -37.6617 26.9863 2
      vertex -38 27.232 0
      vertex -37.6617 26.9863 0
    endloop
  endfacet
  facet normal 0.866026 -0.499998 0
    outer loop
      vertex -40.8271 26.3135 2
      vertex -40.618 26.6756 0
      vertex -40.618 26.6756 2
    endloop
  endfacet
  facet normal 0.866026 -0.499998 0
    outer loop
      vertex -40.618 26.6756 0
      vertex -40.8271 26.3135 2
      vertex -40.8271 26.3135 0
    endloop
  endfacet
  facet normal 0.951057 -0.309016 0
    outer loop
      vertex -40.9563 25.9158 2
      vertex -40.8271 26.3135 0
      vertex -40.8271 26.3135 2
    endloop
  endfacet
  facet normal 0.951057 -0.309016 0
    outer loop
      vertex -40.8271 26.3135 0
      vertex -40.9563 25.9158 2
      vertex -40.9563 25.9158 0
    endloop
  endfacet
  facet normal 0.587784 -0.809018 0
    outer loop
      vertex -40.3383 26.9863 0
      vertex -40 27.232 2
      vertex -40.3383 26.9863 2
    endloop
  endfacet
  facet normal 0.587784 -0.809018 0
    outer loop
      vertex -40 27.232 2
      vertex -40.3383 26.9863 0
      vertex -40 27.232 0
    endloop
  endfacet
  facet normal 0.207913 -0.978147 0
    outer loop
      vertex -39.618 27.4021 0
      vertex -39.2091 27.489 2
      vertex -39.618 27.4021 2
    endloop
  endfacet
  facet normal 0.207913 -0.978147 0
    outer loop
      vertex -39.2091 27.489 2
      vertex -39.618 27.4021 0
      vertex -39.2091 27.489 0
    endloop
  endfacet
  facet normal -0.994522 0.104529 0
    outer loop
      vertex -37.0437 25.0842 0
      vertex -37 25.5 2
      vertex -37 25.5 0
    endloop
  endfacet
  facet normal -0.994522 0.104529 0
    outer loop
      vertex -37 25.5 2
      vertex -37.0437 25.0842 0
      vertex -37.0437 25.0842 2
    endloop
  endfacet
  facet normal -0.207908 0.978148 0
    outer loop
      vertex -38.382 23.5979 0
      vertex -38.7909 23.511 2
      vertex -38.382 23.5979 2
    endloop
  endfacet
  facet normal -0.207908 0.978148 0
    outer loop
      vertex -38.7909 23.511 2
      vertex -38.382 23.5979 0
      vertex -38.7909 23.511 0
    endloop
  endfacet
  facet normal -0.951056 0.309017 0
    outer loop
      vertex -37.1729 24.6865 0
      vertex -37.0437 25.0842 2
      vertex -37.0437 25.0842 0
    endloop
  endfacet
  facet normal -0.951056 0.309017 0
    outer loop
      vertex -37.0437 25.0842 2
      vertex -37.1729 24.6865 0
      vertex -37.1729 24.6865 2
    endloop
  endfacet
  facet normal -0.587787 0.809016 0
    outer loop
      vertex -37.6617 24.0137 0
      vertex -38 23.7679 2
      vertex -37.6617 24.0137 2
    endloop
  endfacet
  facet normal -0.587787 0.809016 0
    outer loop
      vertex -38 23.7679 2
      vertex -37.6617 24.0137 0
      vertex -38 23.7679 0
    endloop
  endfacet
  facet normal -0.406739 0.913545 0
    outer loop
      vertex -38 23.7679 0
      vertex -38.382 23.5979 2
      vertex -38 23.7679 2
    endloop
  endfacet
  facet normal -0.406739 0.913545 0
    outer loop
      vertex -38.382 23.5979 2
      vertex -38 23.7679 0
      vertex -38.382 23.5979 0
    endloop
  endfacet
  facet normal 0.207908 0.978148 -0
    outer loop
      vertex -39.2091 23.511 0
      vertex -39.618 23.5979 2
      vertex -39.2091 23.511 2
    endloop
  endfacet
  facet normal 0.207908 0.978148 0
    outer loop
      vertex -39.618 23.5979 2
      vertex -39.2091 23.511 0
      vertex -39.618 23.5979 0
    endloop
  endfacet
  facet normal 0.743143 0.669133 0
    outer loop
      vertex -40.3383 24.0137 2
      vertex -40.618 24.3244 0
      vertex -40.618 24.3244 2
    endloop
  endfacet
  facet normal 0.743143 0.669133 0
    outer loop
      vertex -40.618 24.3244 0
      vertex -40.3383 24.0137 2
      vertex -40.3383 24.0137 0
    endloop
  endfacet
  facet normal 0.866026 0.499998 0
    outer loop
      vertex -40.618 24.3244 2
      vertex -40.8271 24.6865 0
      vertex -40.8271 24.6865 2
    endloop
  endfacet
  facet normal 0.866026 0.499998 0
    outer loop
      vertex -40.8271 24.6865 0
      vertex -40.618 24.3244 2
      vertex -40.618 24.3244 0
    endloop
  endfacet
  facet normal 0.951056 0.309017 0
    outer loop
      vertex -40.8271 24.6865 2
      vertex -40.9563 25.0842 0
      vertex -40.9563 25.0842 2
    endloop
  endfacet
  facet normal 0.951056 0.309017 0
    outer loop
      vertex -40.9563 25.0842 0
      vertex -40.8271 24.6865 2
      vertex -40.8271 24.6865 0
    endloop
  endfacet
  facet normal 0.994522 0.104529 0
    outer loop
      vertex -40.9563 25.0842 2
      vertex -41 25.5 0
      vertex -41 25.5 2
    endloop
  endfacet
  facet normal 0.994522 0.104529 0
    outer loop
      vertex -41 25.5 0
      vertex -40.9563 25.0842 2
      vertex -40.9563 25.0842 0
    endloop
  endfacet
  facet normal -0.743143 0.669133 0
    outer loop
      vertex -37.6617 24.0137 0
      vertex -37.382 24.3244 2
      vertex -37.382 24.3244 0
    endloop
  endfacet
  facet normal -0.743143 0.669133 0
    outer loop
      vertex -37.382 24.3244 2
      vertex -37.6617 24.0137 0
      vertex -37.6617 24.0137 2
    endloop
  endfacet
  facet normal 0.587787 0.809016 -0
    outer loop
      vertex -40 23.7679 0
      vertex -40.3383 24.0137 2
      vertex -40 23.7679 2
    endloop
  endfacet
  facet normal 0.587787 0.809016 0
    outer loop
      vertex -40.3383 24.0137 2
      vertex -40 23.7679 0
      vertex -40.3383 24.0137 0
    endloop
  endfacet
  facet normal 0.406739 0.913545 -0
    outer loop
      vertex -39.618 23.5979 0
      vertex -40 23.7679 2
      vertex -39.618 23.5979 2
    endloop
  endfacet
  facet normal 0.406739 0.913545 0
    outer loop
      vertex -40 23.7679 2
      vertex -39.618 23.5979 0
      vertex -40 23.7679 0
    endloop
  endfacet
  facet normal -0.994522 -0.104529 0
    outer loop
      vertex -25.5 25.5 0
      vertex -25.5437 25.9158 2
      vertex -25.5437 25.9158 0
    endloop
  endfacet
  facet normal -0.994522 -0.104529 0
    outer loop
      vertex -25.5437 25.9158 2
      vertex -25.5 25.5 0
      vertex -25.5 25.5 2
    endloop
  endfacet
  facet normal 0.994522 -0.104529 0
    outer loop
      vertex -29.5 25.5 2
      vertex -29.4563 25.9158 0
      vertex -29.4563 25.9158 2
    endloop
  endfacet
  facet normal 0.994522 -0.104529 0
    outer loop
      vertex -29.4563 25.9158 0
      vertex -29.5 25.5 2
      vertex -29.5 25.5 0
    endloop
  endfacet
  facet normal 0 -1 0
    outer loop
      vertex -27.7091 27.489 0
      vertex -27.2909 27.489 2
      vertex -27.7091 27.489 2
    endloop
  endfacet
  facet normal 0 -1 -0
    outer loop
      vertex -27.2909 27.489 2
      vertex -27.7091 27.489 0
      vertex -27.2909 27.489 0
    endloop
  endfacet
  facet normal 0 1 -0
    outer loop
      vertex -27.2909 23.511 0
      vertex -27.7091 23.511 2
      vertex -27.2909 23.511 2
    endloop
  endfacet
  facet normal 0 1 0
    outer loop
      vertex -27.7091 23.511 2
      vertex -27.2909 23.511 0
      vertex -27.7091 23.511 0
    endloop
  endfacet
  facet normal -0.743143 -0.669133 0
    outer loop
      vertex -25.882 26.6756 0
      vertex -26.1617 26.9863 2
      vertex -26.1617 26.9863 0
    endloop
  endfacet
  facet normal -0.743143 -0.669133 0
    outer loop
      vertex -26.1617 26.9863 2
      vertex -25.882 26.6756 0
      vertex -25.882 26.6756 2
    endloop
  endfacet
  facet normal 0.743143 -0.669133 0
    outer loop
      vertex -29.118 26.6756 2
      vertex -28.8383 26.9863 0
      vertex -28.8383 26.9863 2
    endloop
  endfacet
  facet normal 0.743143 -0.669133 0
    outer loop
      vertex -28.8383 26.9863 0
      vertex -29.118 26.6756 2
      vertex -29.118 26.6756 0
    endloop
  endfacet
  facet normal 0.406739 -0.913545 0
    outer loop
      vertex -28.5 27.232 0
      vertex -28.118 27.4021 2
      vertex -28.5 27.232 2
    endloop
  endfacet
  facet normal 0.406739 -0.913545 0
    outer loop
      vertex -28.118 27.4021 2
      vertex -28.5 27.232 0
      vertex -28.118 27.4021 0
    endloop
  endfacet
  facet normal -0.866026 0.499998 0
    outer loop
      vertex -25.882 24.3244 0
      vertex -25.6729 24.6865 2
      vertex -25.6729 24.6865 0
    endloop
  endfacet
  facet normal -0.866026 0.499998 0
    outer loop
      vertex -25.6729 24.6865 2
      vertex -25.882 24.3244 0
      vertex -25.882 24.3244 2
    endloop
  endfacet
  facet normal -0.866026 -0.499998 0
    outer loop
      vertex -25.6729 26.3135 0
      vertex -25.882 26.6756 2
      vertex -25.882 26.6756 0
    endloop
  endfacet
  facet normal -0.866026 -0.499998 0
    outer loop
      vertex -25.882 26.6756 2
      vertex -25.6729 26.3135 0
      vertex -25.6729 26.3135 2
    endloop
  endfacet
  facet normal -0.951057 -0.309016 0
    outer loop
      vertex -25.5437 25.9158 0
      vertex -25.6729 26.3135 2
      vertex -25.6729 26.3135 0
    endloop
  endfacet
  facet normal -0.951057 -0.309016 0
    outer loop
      vertex -25.6729 26.3135 2
      vertex -25.5437 25.9158 0
      vertex -25.5437 25.9158 2
    endloop
  endfacet
  facet normal -0.406739 -0.913545 0
    outer loop
      vertex -26.882 27.4021 0
      vertex -26.5 27.232 2
      vertex -26.882 27.4021 2
    endloop
  endfacet
  facet normal -0.406739 -0.913545 -0
    outer loop
      vertex -26.5 27.232 2
      vertex -26.882 27.4021 0
      vertex -26.5 27.232 0
    endloop
  endfacet
  facet normal -0.207913 -0.978147 0
    outer loop
      vertex -27.2909 27.489 0
      vertex -26.882 27.4021 2
      vertex -27.2909 27.489 2
    endloop
  endfacet
  facet normal -0.207913 -0.978147 -0
    outer loop
      vertex -26.882 27.4021 2
      vertex -27.2909 27.489 0
      vertex -26.882 27.4021 0
    endloop
  endfacet
  facet normal -0.587784 -0.809018 0
    outer loop
      vertex -26.5 27.232 0
      vertex -26.1617 26.9863 2
      vertex -26.5 27.232 2
    endloop
  endfacet
  facet normal -0.587784 -0.809018 -0
    outer loop
      vertex -26.1617 26.9863 2
      vertex -26.5 27.232 0
      vertex -26.1617 26.9863 0
    endloop
  endfacet
  facet normal 0.866026 -0.499998 0
    outer loop
      vertex -29.3271 26.3135 2
      vertex -29.118 26.6756 0
      vertex -29.118 26.6756 2
    endloop
  endfacet
  facet normal 0.866026 -0.499998 0
    outer loop
      vertex -29.118 26.6756 0
      vertex -29.3271 26.3135 2
      vertex -29.3271 26.3135 0
    endloop
  endfacet
  facet normal 0.951057 -0.309016 0
    outer loop
      vertex -29.4563 25.9158 2
      vertex -29.3271 26.3135 0
      vertex -29.3271 26.3135 2
    endloop
  endfacet
  facet normal 0.951057 -0.309016 0
    outer loop
      vertex -29.3271 26.3135 0
      vertex -29.4563 25.9158 2
      vertex -29.4563 25.9158 0
    endloop
  endfacet
  facet normal 0.587784 -0.809018 0
    outer loop
      vertex -28.8383 26.9863 0
      vertex -28.5 27.232 2
      vertex -28.8383 26.9863 2
    endloop
  endfacet
  facet normal 0.587784 -0.809018 0
    outer loop
      vertex -28.5 27.232 2
      vertex -28.8383 26.9863 0
      vertex -28.5 27.232 0
    endloop
  endfacet
  facet normal 0.207913 -0.978147 0
    outer loop
      vertex -28.118 27.4021 0
      vertex -27.7091 27.489 2
      vertex -28.118 27.4021 2
    endloop
  endfacet
  facet normal 0.207913 -0.978147 0
    outer loop
      vertex -27.7091 27.489 2
      vertex -28.118 27.4021 0
      vertex -27.7091 27.489 0
    endloop
  endfacet
  facet normal -0.207908 0.978148 0
    outer loop
      vertex -26.882 23.5979 0
      vertex -27.2909 23.511 2
      vertex -26.882 23.5979 2
    endloop
  endfacet
  facet normal -0.207908 0.978148 0
    outer loop
      vertex -27.2909 23.511 2
      vertex -26.882 23.5979 0
      vertex -27.2909 23.511 0
    endloop
  endfacet
  facet normal -0.951056 0.309017 0
    outer loop
      vertex -25.6729 24.6865 0
      vertex -25.5437 25.0842 2
      vertex -25.5437 25.0842 0
    endloop
  endfacet
  facet normal -0.951056 0.309017 0
    outer loop
      vertex -25.5437 25.0842 2
      vertex -25.6729 24.6865 0
      vertex -25.6729 24.6865 2
    endloop
  endfacet
  facet normal -0.994522 0.104529 0
    outer loop
      vertex -25.5437 25.0842 0
      vertex -25.5 25.5 2
      vertex -25.5 25.5 0
    endloop
  endfacet
  facet normal -0.994522 0.104529 0
    outer loop
      vertex -25.5 25.5 2
      vertex -25.5437 25.0842 0
      vertex -25.5437 25.0842 2
    endloop
  endfacet
  facet normal -0.587787 0.809016 0
    outer loop
      vertex -26.1617 24.0137 0
      vertex -26.5 23.7679 2
      vertex -26.1617 24.0137 2
    endloop
  endfacet
  facet normal -0.587787 0.809016 0
    outer loop
      vertex -26.5 23.7679 2
      vertex -26.1617 24.0137 0
      vertex -26.5 23.7679 0
    endloop
  endfacet
  facet normal -0.406739 0.913545 0
    outer loop
      vertex -26.5 23.7679 0
      vertex -26.882 23.5979 2
      vertex -26.5 23.7679 2
    endloop
  endfacet
  facet normal -0.406739 0.913545 0
    outer loop
      vertex -26.882 23.5979 2
      vertex -26.5 23.7679 0
      vertex -26.882 23.5979 0
    endloop
  endfacet
  facet normal 0.743143 0.669133 0
    outer loop
      vertex -28.8383 24.0137 2
      vertex -29.118 24.3244 0
      vertex -29.118 24.3244 2
    endloop
  endfacet
  facet normal 0.743143 0.669133 0
    outer loop
      vertex -29.118 24.3244 0
      vertex -28.8383 24.0137 2
      vertex -28.8383 24.0137 0
    endloop
  endfacet
  facet normal 0.866026 0.499998 0
    outer loop
      vertex -29.118 24.3244 2
      vertex -29.3271 24.6865 0
      vertex -29.3271 24.6865 2
    endloop
  endfacet
  facet normal 0.866026 0.499998 0
    outer loop
      vertex -29.3271 24.6865 0
      vertex -29.118 24.3244 2
      vertex -29.118 24.3244 0
    endloop
  endfacet
  facet normal 0.951056 0.309017 0
    outer loop
      vertex -29.3271 24.6865 2
      vertex -29.4563 25.0842 0
      vertex -29.4563 25.0842 2
    endloop
  endfacet
  facet normal 0.951056 0.309017 0
    outer loop
      vertex -29.4563 25.0842 0
      vertex -29.3271 24.6865 2
      vertex -29.3271 24.6865 0
    endloop
  endfacet
  facet normal 0.994522 0.104529 0
    outer loop
      vertex -29.4563 25.0842 2
      vertex -29.5 25.5 0
      vertex -29.5 25.5 2
    endloop
  endfacet
  facet normal 0.994522 0.104529 0
    outer loop
      vertex -29.5 25.5 0
      vertex -29.4563 25.0842 2
      vertex -29.4563 25.0842 0
    endloop
  endfacet
  facet normal -0.743143 0.669133 0
    outer loop
      vertex -26.1617 24.0137 0
      vertex -25.882 24.3244 2
      vertex -25.882 24.3244 0
    endloop
  endfacet
  facet normal -0.743143 0.669133 0
    outer loop
      vertex -25.882 24.3244 2
      vertex -26.1617 24.0137 0
      vertex -26.1617 24.0137 2
    endloop
  endfacet
  facet normal 0.406739 0.913545 -0
    outer loop
      vertex -28.118 23.5979 0
      vertex -28.5 23.7679 2
      vertex -28.118 23.5979 2
    endloop
  endfacet
  facet normal 0.406739 0.913545 0
    outer loop
      vertex -28.5 23.7679 2
      vertex -28.118 23.5979 0
      vertex -28.5 23.7679 0
    endloop
  endfacet
  facet normal 0.587787 0.809016 -0
    outer loop
      vertex -28.5 23.7679 0
      vertex -28.8383 24.0137 2
      vertex -28.5 23.7679 2
    endloop
  endfacet
  facet normal 0.587787 0.809016 0
    outer loop
      vertex -28.8383 24.0137 2
      vertex -28.5 23.7679 0
      vertex -28.8383 24.0137 0
    endloop
  endfacet
  facet normal 0.207908 0.978148 -0
    outer loop
      vertex -27.7091 23.511 0
      vertex -28.118 23.5979 2
      vertex -27.7091 23.511 2
    endloop
  endfacet
  facet normal 0.207908 0.978148 0
    outer loop
      vertex -28.118 23.5979 2
      vertex -27.7091 23.511 0
      vertex -28.118 23.5979 0
    endloop
  endfacet
  facet normal -0.994522 -0.104529 0
    outer loop
      vertex -15.44 25.5 0
      vertex -15.4837 25.9158 2
      vertex -15.4837 25.9158 0
    endloop
  endfacet
  facet normal -0.994522 -0.104529 0
    outer loop
      vertex -15.4837 25.9158 2
      vertex -15.44 25.5 0
      vertex -15.44 25.5 2
    endloop
  endfacet
  facet normal 0.207913 -0.978147 0
    outer loop
      vertex -18.058 27.4021 0
      vertex -17.6491 27.489 2
      vertex -18.058 27.4021 2
    endloop
  endfacet
  facet normal 0.207913 -0.978147 0
    outer loop
      vertex -17.6491 27.489 2
      vertex -18.058 27.4021 0
      vertex -17.6491 27.489 0
    endloop
  endfacet
  facet normal -0.207908 0.978148 0
    outer loop
      vertex -16.822 23.5979 0
      vertex -17.2309 23.511 2
      vertex -16.822 23.5979 2
    endloop
  endfacet
  facet normal -0.207908 0.978148 0
    outer loop
      vertex -17.2309 23.511 2
      vertex -16.822 23.5979 0
      vertex -17.2309 23.511 0
    endloop
  endfacet
  facet normal -0.587784 -0.809018 0
    outer loop
      vertex -16.44 27.232 0
      vertex -16.1017 26.9863 2
      vertex -16.44 27.232 2
    endloop
  endfacet
  facet normal -0.587784 -0.809018 -0
    outer loop
      vertex -16.1017 26.9863 2
      vertex -16.44 27.232 0
      vertex -16.1017 26.9863 0
    endloop
  endfacet
  facet normal 0.743145 -0.66913 0
    outer loop
      vertex -19.058 26.6756 2
      vertex -18.7783 26.9863 0
      vertex -18.7783 26.9863 2
    endloop
  endfacet
  facet normal 0.743145 -0.66913 0
    outer loop
      vertex -18.7783 26.9863 0
      vertex -19.058 26.6756 2
      vertex -19.058 26.6756 0
    endloop
  endfacet
  facet normal 0.587782 -0.809019 0
    outer loop
      vertex -18.7783 26.9863 0
      vertex -18.44 27.232 2
      vertex -18.7783 26.9863 2
    endloop
  endfacet
  facet normal 0.587782 -0.809019 0
    outer loop
      vertex -18.44 27.232 2
      vertex -18.7783 26.9863 0
      vertex -18.44 27.232 0
    endloop
  endfacet
  facet normal -0.866026 -0.499998 0
    outer loop
      vertex -15.6129 26.3135 0
      vertex -15.822 26.6756 2
      vertex -15.822 26.6756 0
    endloop
  endfacet
  facet normal -0.866026 -0.499998 0
    outer loop
      vertex -15.822 26.6756 2
      vertex -15.6129 26.3135 0
      vertex -15.6129 26.3135 2
    endloop
  endfacet
  facet normal -0.951057 -0.309016 0
    outer loop
      vertex -15.4837 25.9158 0
      vertex -15.6129 26.3135 2
      vertex -15.6129 26.3135 0
    endloop
  endfacet
  facet normal -0.951057 -0.309016 0
    outer loop
      vertex -15.6129 26.3135 2
      vertex -15.4837 25.9158 0
      vertex -15.4837 25.9158 2
    endloop
  endfacet
  facet normal -0.743144 -0.669131 0
    outer loop
      vertex -15.822 26.6756 0
      vertex -16.1017 26.9863 2
      vertex -16.1017 26.9863 0
    endloop
  endfacet
  facet normal -0.743144 -0.669131 0
    outer loop
      vertex -16.1017 26.9863 2
      vertex -15.822 26.6756 0
      vertex -15.822 26.6756 2
    endloop
  endfacet
  facet normal -0.207913 -0.978147 0
    outer loop
      vertex -17.2309 27.489 0
      vertex -16.822 27.4021 2
      vertex -17.2309 27.489 2
    endloop
  endfacet
  facet normal -0.207913 -0.978147 -0
    outer loop
      vertex -16.822 27.4021 2
      vertex -17.2309 27.489 0
      vertex -16.822 27.4021 0
    endloop
  endfacet
  facet normal 0 -1 0
    outer loop
      vertex -17.6491 27.489 0
      vertex -17.2309 27.489 2
      vertex -17.6491 27.489 2
    endloop
  endfacet
  facet normal 0 -1 -0
    outer loop
      vertex -17.2309 27.489 2
      vertex -17.6491 27.489 0
      vertex -17.2309 27.489 0
    endloop
  endfacet
  facet normal -0.406739 -0.913545 0
    outer loop
      vertex -16.822 27.4021 0
      vertex -16.44 27.232 2
      vertex -16.822 27.4021 2
    endloop
  endfacet
  facet normal -0.406739 -0.913545 -0
    outer loop
      vertex -16.44 27.232 2
      vertex -16.822 27.4021 0
      vertex -16.44 27.232 0
    endloop
  endfacet
  facet normal 0.951057 -0.309016 0
    outer loop
      vertex -19.3963 25.9158 2
      vertex -19.2671 26.3135 0
      vertex -19.2671 26.3135 2
    endloop
  endfacet
  facet normal 0.951057 -0.309016 0
    outer loop
      vertex -19.2671 26.3135 0
      vertex -19.3963 25.9158 2
      vertex -19.3963 25.9158 0
    endloop
  endfacet
  facet normal 0.866026 -0.499998 0
    outer loop
      vertex -19.2671 26.3135 2
      vertex -19.058 26.6756 0
      vertex -19.058 26.6756 2
    endloop
  endfacet
  facet normal 0.866026 -0.499998 0
    outer loop
      vertex -19.058 26.6756 0
      vertex -19.2671 26.3135 2
      vertex -19.2671 26.3135 0
    endloop
  endfacet
  facet normal 0.994522 -0.104529 0
    outer loop
      vertex -19.44 25.5 2
      vertex -19.3963 25.9158 0
      vertex -19.3963 25.9158 2
    endloop
  endfacet
  facet normal 0.994522 -0.104529 0
    outer loop
      vertex -19.3963 25.9158 0
      vertex -19.44 25.5 2
      vertex -19.44 25.5 0
    endloop
  endfacet
  facet normal 0.406739 -0.913545 0
    outer loop
      vertex -18.44 27.232 0
      vertex -18.058 27.4021 2
      vertex -18.44 27.232 2
    endloop
  endfacet
  facet normal 0.406739 -0.913545 0
    outer loop
      vertex -18.058 27.4021 2
      vertex -18.44 27.232 0
      vertex -18.058 27.4021 0
    endloop
  endfacet
  facet normal -0.994522 0.104529 0
    outer loop
      vertex -15.4837 25.0842 0
      vertex -15.44 25.5 2
      vertex -15.44 25.5 0
    endloop
  endfacet
  facet normal -0.994522 0.104529 0
    outer loop
      vertex -15.44 25.5 2
      vertex -15.4837 25.0842 0
      vertex -15.4837 25.0842 2
    endloop
  endfacet
  facet normal -0.743144 0.669131 0
    outer loop
      vertex -16.1017 24.0137 0
      vertex -15.822 24.3244 2
      vertex -15.822 24.3244 0
    endloop
  endfacet
  facet normal -0.743144 0.669131 0
    outer loop
      vertex -15.822 24.3244 2
      vertex -16.1017 24.0137 0
      vertex -16.1017 24.0137 2
    endloop
  endfacet
  facet normal 0.994522 0.104529 0
    outer loop
      vertex -19.3963 25.0842 2
      vertex -19.44 25.5 0
      vertex -19.44 25.5 2
    endloop
  endfacet
  facet normal 0.994522 0.104529 0
    outer loop
      vertex -19.44 25.5 0
      vertex -19.3963 25.0842 2
      vertex -19.3963 25.0842 0
    endloop
  endfacet
  facet normal -0.951056 0.309017 0
    outer loop
      vertex -15.6129 24.6865 0
      vertex -15.4837 25.0842 2
      vertex -15.4837 25.0842 0
    endloop
  endfacet
  facet normal -0.951056 0.309017 0
    outer loop
      vertex -15.4837 25.0842 2
      vertex -15.6129 24.6865 0
      vertex -15.6129 24.6865 2
    endloop
  endfacet
  facet normal -0.866026 0.499998 0
    outer loop
      vertex -15.822 24.3244 0
      vertex -15.6129 24.6865 2
      vertex -15.6129 24.6865 0
    endloop
  endfacet
  facet normal -0.866026 0.499998 0
    outer loop
      vertex -15.6129 24.6865 2
      vertex -15.822 24.3244 0
      vertex -15.822 24.3244 2
    endloop
  endfacet
  facet normal 0.743145 0.66913 0
    outer loop
      vertex -18.7783 24.0137 2
      vertex -19.058 24.3244 0
      vertex -19.058 24.3244 2
    endloop
  endfacet
  facet normal 0.743145 0.66913 0
    outer loop
      vertex -19.058 24.3244 0
      vertex -18.7783 24.0137 2
      vertex -18.7783 24.0137 0
    endloop
  endfacet
  facet normal 0 1 -0
    outer loop
      vertex -17.2309 23.511 0
      vertex -17.6491 23.511 2
      vertex -17.2309 23.511 2
    endloop
  endfacet
  facet normal 0 1 0
    outer loop
      vertex -17.6491 23.511 2
      vertex -17.2309 23.511 0
      vertex -17.6491 23.511 0
    endloop
  endfacet
  facet normal 0.587785 0.809017 -0
    outer loop
      vertex -18.44 23.7679 0
      vertex -18.7783 24.0137 2
      vertex -18.44 23.7679 2
    endloop
  endfacet
  facet normal 0.587785 0.809017 0
    outer loop
      vertex -18.7783 24.0137 2
      vertex -18.44 23.7679 0
      vertex -18.7783 24.0137 0
    endloop
  endfacet
  facet normal 0.866026 0.499998 0
    outer loop
      vertex -19.058 24.3244 2
      vertex -19.2671 24.6865 0
      vertex -19.2671 24.6865 2
    endloop
  endfacet
  facet normal 0.866026 0.499998 0
    outer loop
      vertex -19.2671 24.6865 0
      vertex -19.058 24.3244 2
      vertex -19.058 24.3244 0
    endloop
  endfacet
  facet normal 0.951056 0.309017 0
    outer loop
      vertex -19.2671 24.6865 2
      vertex -19.3963 25.0842 0
      vertex -19.3963 25.0842 2
    endloop
  endfacet
  facet normal 0.951056 0.309017 0
    outer loop
      vertex -19.3963 25.0842 0
      vertex -19.2671 24.6865 2
      vertex -19.2671 24.6865 0
    endloop
  endfacet
  facet normal -0.587787 0.809016 0
    outer loop
      vertex -16.1017 24.0137 0
      vertex -16.44 23.7679 2
      vertex -16.1017 24.0137 2
    endloop
  endfacet
  facet normal -0.587787 0.809016 0
    outer loop
      vertex -16.44 23.7679 2
      vertex -16.1017 24.0137 0
      vertex -16.44 23.7679 0
    endloop
  endfacet
  facet normal -0.406739 0.913545 0
    outer loop
      vertex -16.44 23.7679 0
      vertex -16.822 23.5979 2
      vertex -16.44 23.7679 2
    endloop
  endfacet
  facet normal -0.406739 0.913545 0
    outer loop
      vertex -16.822 23.5979 2
      vertex -16.44 23.7679 0
      vertex -16.822 23.5979 0
    endloop
  endfacet
  facet normal 0.207908 0.978148 -0
    outer loop
      vertex -17.6491 23.511 0
      vertex -18.058 23.5979 2
      vertex -17.6491 23.511 2
    endloop
  endfacet
  facet normal 0.207908 0.978148 0
    outer loop
      vertex -18.058 23.5979 2
      vertex -17.6491 23.511 0
      vertex -18.058 23.5979 0
    endloop
  endfacet
  facet normal 0.406739 0.913545 -0
    outer loop
      vertex -18.058 23.5979 0
      vertex -18.44 23.7679 2
      vertex -18.058 23.5979 2
    endloop
  endfacet
  facet normal 0.406739 0.913545 0
    outer loop
      vertex -18.44 23.7679 2
      vertex -18.058 23.5979 0
      vertex -18.44 23.7679 0
    endloop
  endfacet
  facet normal 1 -0 0
    outer loop
      vertex -23 4 2
      vertex -23 20.3 0
      vertex -23 20.3 2
    endloop
  endfacet
  facet normal 1 0 0
    outer loop
      vertex -23 20.3 0
      vertex -23 4 2
      vertex -23 4 0
    endloop
  endfacet
  facet normal -1 0 0
    outer loop
      vertex -10 4 0
      vertex -10 20.3 2
      vertex -10 20.3 0
    endloop
  endfacet
  facet normal -1 -0 0
    outer loop
      vertex -10 20.3 2
      vertex -10 4 0
      vertex -10 4 2
    endloop
  endfacet
  facet normal 0 -1 0
    outer loop
      vertex -23 20.3 0
      vertex -10 20.3 2
      vertex -23 20.3 2
    endloop
  endfacet
  facet normal 0 -1 -0
    outer loop
      vertex -10 20.3 2
      vertex -23 20.3 0
      vertex -10 20.3 0
    endloop
  endfacet
  facet normal 0 -1 0
    outer loop
      vertex -56 7 2
      vertex -51 7 19
      vertex -56 7 19
    endloop
  endfacet
  facet normal 0 -1 -0
    outer loop
      vertex -51 7 19
      vertex -56 7 2
      vertex -51 7 2
    endloop
  endfacet
  facet normal 0 1 0
    outer loop
      vertex -10 1 17
      vertex -2 1 19
      vertex -5 1 17
    endloop
  endfacet
  facet normal 0 1 0
    outer loop
      vertex -2 1 19
      vertex -5 1 12
      vertex -5 1 17
    endloop
  endfacet
  facet normal 0 1 0
    outer loop
      vertex -5 1 12
      vertex -2 1 2
      vertex -10 1 12
    endloop
  endfacet
  facet normal 0 1 -0
    outer loop
      vertex -2 1 2
      vertex -5 1 12
      vertex -2 1 19
    endloop
  endfacet
  facet normal 0 1 0
    outer loop
      vertex -2 1 19
      vertex -10 1 17
      vertex -61 1 19
    endloop
  endfacet
  facet normal 0 1 -0
    outer loop
      vertex -10 1 12
      vertex -61 1 19
      vertex -10 1 17
    endloop
  endfacet
  facet normal 0 1 0
    outer loop
      vertex -61 1 2
      vertex -10 1 12
      vertex -2 1 2
    endloop
  endfacet
  facet normal 0 1 0
    outer loop
      vertex -10 1 12
      vertex -61 1 2
      vertex -61 1 19
    endloop
  endfacet
  facet normal 1 -0 0
    outer loop
      vertex -61 1 19
      vertex -61 19 2
      vertex -61 19 19
    endloop
  endfacet
  facet normal 1 0 0
    outer loop
      vertex -61 19 2
      vertex -61 1 19
      vertex -61 1 2
    endloop
  endfacet
  facet normal -1 0 0
    outer loop
      vertex -56 7 2
      vertex -56 19 19
      vertex -56 19 2
    endloop
  endfacet
  facet normal -1 -0 0
    outer loop
      vertex -56 19 19
      vertex -56 7 2
      vertex -56 7 19
    endloop
  endfacet
  facet normal 1 -0 0
    outer loop
      vertex -10 0 17
      vertex -10 1 12
      vertex -10 1 17
    endloop
  endfacet
  facet normal 1 0 0
    outer loop
      vertex -10 1 12
      vertex -10 0 17
      vertex -10 0 12
    endloop
  endfacet
  facet normal 0 0 -1
    outer loop
      vertex -10 0 17
      vertex -5 1 17
      vertex -5 0 17
    endloop
  endfacet
  facet normal -0 0 -1
    outer loop
      vertex -5 1 17
      vertex -10 0 17
      vertex -10 1 17
    endloop
  endfacet
  facet normal -1 0 0
    outer loop
      vertex -5 0 12
      vertex -5 1 17
      vertex -5 1 12
    endloop
  endfacet
  facet normal -1 -0 0
    outer loop
      vertex -5 1 17
      vertex -5 0 12
      vertex -5 0 17
    endloop
  endfacet
  facet normal -0 0 1
    outer loop
      vertex -10 1 12
      vertex -5 0 12
      vertex -5 1 12
    endloop
  endfacet
  facet normal 0 0 1
    outer loop
      vertex -5 0 12
      vertex -10 1 12
      vertex -10 0 12
    endloop
  endfacet
endsolid OpenSCAD_Model
