solid OpenSCAD_Model
  facet normal -1 0 0
    outer loop
      vertex 0 0 0
      vertex 0 80 1
      vertex 0 80 0
    endloop
  endfacet
  facet normal -1 -0 0
    outer loop
      vertex 0 80 1
      vertex 0 0 0
      vertex 0 0 1
    endloop
  endfacet
  facet normal -0 0 1
    outer loop
      vertex 0 80 1
      vertex 0.612499 0 1
      vertex 0.612499 80 1
    endloop
  endfacet
  facet normal 0 0 1
    outer loop
      vertex 0.612499 0 1
      vertex 0 80 1
      vertex 0 0 1
    endloop
  endfacet
  facet normal -0 0 1
    outer loop
      vertex 1.3625 80 1
      vertex 2 0 1
      vertex 2 80 1
    endloop
  endfacet
  facet normal 0 0 1
    outer loop
      vertex 2 0 1
      vertex 1.3625 80 1
      vertex 1.3625 0 1
    endloop
  endfacet
  facet normal 1 -0 0
    outer loop
      vertex 2 0 1
      vertex 2 80 0
      vertex 2 80 1
    endloop
  endfacet
  facet normal 1 0 0
    outer loop
      vertex 2 80 0
      vertex 2 0 1
      vertex 2 0 0
    endloop
  endfacet
  facet normal 0 1 -0
    outer loop
      vertex 2 80 0
      vertex 1.3625 80 1
      vertex 2 80 1
    endloop
  endfacet
  facet normal 0 1 0
    outer loop
      vertex 0 80 0
      vertex 1.3625 80 1
      vertex 2 80 0
    endloop
  endfacet
  facet normal 0 1 0
    outer loop
      vertex 1.3625 80 1
      vertex 0 80 0
      vertex 0.612499 80 1
    endloop
  endfacet
  facet normal 0 1 0
    outer loop
      vertex 0.612499 80 1
      vertex 0 80 0
      vertex 0 80 1
    endloop
  endfacet
  facet normal 0 1 -0
    outer loop
      vertex 1.3625 80 1
      vertex 0.612499 80 10
      vertex 1.3625 80 10
    endloop
  endfacet
  facet normal 0 1 0
    outer loop
      vertex 0.612499 80 10
      vertex 1.3625 80 1
      vertex 0.612499 80 1
    endloop
  endfacet
  facet normal 0 0 -1
    outer loop
      vertex 0 0 0
      vertex 2 80 0
      vertex 2 0 0
    endloop
  endfacet
  facet normal -0 0 -1
    outer loop
      vertex 2 80 0
      vertex 0 0 0
      vertex 0 80 0
    endloop
  endfacet
  facet normal 0 -1 0
    outer loop
      vertex 0 0 0
      vertex 0.612499 0 1
      vertex 0 0 1
    endloop
  endfacet
  facet normal 0 -1 -0
    outer loop
      vertex 0.612499 0 1
      vertex 0 0 0
      vertex 1.3625 0 1
    endloop
  endfacet
  facet normal 0 -1 0
    outer loop
      vertex 2 0 0
      vertex 1.3625 0 1
      vertex 0 0 0
    endloop
  endfacet
  facet normal 0 -1 0
    outer loop
      vertex 1.3625 0 1
      vertex 2 0 0
      vertex 2 0 1
    endloop
  endfacet
  facet normal 0 -1 0
    outer loop
      vertex 0.612499 0 1
      vertex 1.3625 0 10
      vertex 0.612499 0 10
    endloop
  endfacet
  facet normal 0 -1 -0
    outer loop
      vertex 1.3625 0 10
      vertex 0.612499 0 1
      vertex 1.3625 0 1
    endloop
  endfacet
  facet normal -1 0 0
    outer loop
      vertex 0.612499 0 1
      vertex 0.612499 80 10
      vertex 0.612499 80 1
    endloop
  endfacet
  facet normal -1 -0 0
    outer loop
      vertex 0.612499 80 10
      vertex 0.612499 0 1
      vertex 0.612499 0 10
    endloop
  endfacet
  facet normal -0 0 1
    outer loop
      vertex 0.612499 80 10
      vertex 1.3625 0 10
      vertex 1.3625 80 10
    endloop
  endfacet
  facet normal 0 0 1
    outer loop
      vertex 1.3625 0 10
      vertex 0.612499 80 10
      vertex 0.612499 0 10
    endloop
  endfacet
  facet normal 1 -0 0
    outer loop
      vertex 1.3625 0 10
      vertex 1.3625 80 1
      vertex 1.3625 80 10
    endloop
  endfacet
  facet normal 1 0 0
    outer loop
      vertex 1.3625 80 1
      vertex 1.3625 0 10
      vertex 1.3625 0 1
    endloop
  endfacet
endsolid OpenSCAD_Model
