solid OpenSCAD_Model
  facet normal 0 0 1
    outer loop
      vertex 6.13843 3.12219 -3
      vertex 7.38904 3.26868 -3
      vertex 7.50317 3.99866 -3
    endloop
  endfacet
  facet normal -0 0 1
    outer loop
      vertex 6.13843 3.12219 -3
      vertex 6.06824 2.45203 -3
      vertex 7.38904 3.26868 -3
    endloop
  endfacet
  facet normal 0 0 1
    outer loop
      vertex 4.38855 2.45081 -3
      vertex 6.06824 2.45203 -3
      vertex 6.13843 3.12219 -3
    endloop
  endfacet
  facet normal 0 0 1
    outer loop
      vertex 6.06824 2.45203 -3
      vertex 4.38855 2.45081 -3
      vertex 4.44043 1.86304 -3
    endloop
  endfacet
  facet normal -0 0 1
    outer loop
      vertex 3 2.2323 -3
      vertex 4.44043 1.86304 -3
      vertex 4.38855 2.45081 -3
    endloop
  endfacet
  facet normal 0 0 1
    outer loop
      vertex 4.44043 1.86304 -3
      vertex 3 2.2323 -3
      vertex 3 1.64819 -3
    endloop
  endfacet
  facet normal 0 0 1
    outer loop
      vertex 7.38904 3.26868 -3
      vertex 7.98535 3.99866 -3
      vertex 7.50317 3.99866 -3
    endloop
  endfacet
  facet normal 0 0 1
    outer loop
      vertex 7.98535 3.99866 -3
      vertex 7.38904 3.26868 -3
      vertex 7.98535 1 -3
    endloop
  endfacet
  facet normal 0 0 1
    outer loop
      vertex 7.98535 1 -3
      vertex 7.38904 3.26868 -3
      vertex 7.38904 1 -3
    endloop
  endfacet
  facet normal 0 0 -1
    outer loop
      vertex 7.38904 3.26868 -4
      vertex 7.98535 3.99866 -4
      vertex 7.98535 1 -4
    endloop
  endfacet
  facet normal 0 0 -1
    outer loop
      vertex 7.38904 3.26868 -4
      vertex 7.98535 1 -4
      vertex 7.38904 1 -4
    endloop
  endfacet
  facet normal -0 0 -1
    outer loop
      vertex 7.98535 3.99866 -4
      vertex 7.38904 3.26868 -4
      vertex 7.50317 3.99866 -4
    endloop
  endfacet
  facet normal -0 0 -1
    outer loop
      vertex 7.38904 3.26868 -4
      vertex 6.13843 3.12219 -4
      vertex 7.50317 3.99866 -4
    endloop
  endfacet
  facet normal 0 0 -1
    outer loop
      vertex 6.06824 2.45203 -4
      vertex 6.13843 3.12219 -4
      vertex 7.38904 3.26868 -4
    endloop
  endfacet
  facet normal 0 0 -1
    outer loop
      vertex 4.38855 2.45081 -4
      vertex 6.06824 2.45203 -4
      vertex 4.44043 1.86304 -4
    endloop
  endfacet
  facet normal -0 0 -1
    outer loop
      vertex 6.06824 2.45203 -4
      vertex 4.38855 2.45081 -4
      vertex 6.13843 3.12219 -4
    endloop
  endfacet
  facet normal 0 0 -1
    outer loop
      vertex 3 2.2323 -4
      vertex 4.44043 1.86304 -4
      vertex 3 1.64819 -4
    endloop
  endfacet
  facet normal 0 0 -1
    outer loop
      vertex 4.44043 1.86304 -4
      vertex 3 2.2323 -4
      vertex 4.38855 2.45081 -4
    endloop
  endfacet
  facet normal -0.358215 0.933639 0
    outer loop
      vertex 6.13843 3.12219 -4
      vertex 4.38855 2.45081 -3
      vertex 6.13843 3.12219 -3
    endloop
  endfacet
  facet normal -0.358215 0.933639 0
    outer loop
      vertex 4.38855 2.45081 -3
      vertex 6.13843 3.12219 -4
      vertex 4.38855 2.45081 -4
    endloop
  endfacet
  facet normal -0.540377 0.841423 0
    outer loop
      vertex 7.50317 3.99866 -4
      vertex 6.13843 3.12219 -3
      vertex 7.50317 3.99866 -3
    endloop
  endfacet
  facet normal -0.540377 0.841423 0
    outer loop
      vertex 6.13843 3.12219 -3
      vertex 7.50317 3.99866 -4
      vertex 6.13843 3.12219 -4
    endloop
  endfacet
  facet normal 0 1 -0
    outer loop
      vertex 7.98535 3.99866 -4
      vertex 7.50317 3.99866 -3
      vertex 7.98535 3.99866 -3
    endloop
  endfacet
  facet normal 0 1 0
    outer loop
      vertex 7.50317 3.99866 -3
      vertex 7.98535 3.99866 -4
      vertex 7.50317 3.99866 -4
    endloop
  endfacet
  facet normal 1 -0 0
    outer loop
      vertex 7.98535 1 -3
      vertex 7.98535 3.99866 -4
      vertex 7.98535 3.99866 -3
    endloop
  endfacet
  facet normal 1 0 0
    outer loop
      vertex 7.98535 3.99866 -4
      vertex 7.98535 1 -3
      vertex 7.98535 1 -4
    endloop
  endfacet
  facet normal 0 -1 0
    outer loop
      vertex 7.38904 1 -4
      vertex 7.98535 1 -3
      vertex 7.38904 1 -3
    endloop
  endfacet
  facet normal 0 -1 -0
    outer loop
      vertex 7.98535 1 -3
      vertex 7.38904 1 -4
      vertex 7.98535 1 -4
    endloop
  endfacet
  facet normal -1 0 0
    outer loop
      vertex 7.38904 1 -4
      vertex 7.38904 3.26868 -3
      vertex 7.38904 3.26868 -4
    endloop
  endfacet
  facet normal -1 -0 0
    outer loop
      vertex 7.38904 3.26868 -3
      vertex 7.38904 1 -4
      vertex 7.38904 1 -3
    endloop
  endfacet
  facet normal 0.525894 -0.85055 0
    outer loop
      vertex 6.06824 2.45203 -4
      vertex 7.38904 3.26868 -3
      vertex 6.06824 2.45203 -3
    endloop
  endfacet
  facet normal 0.525894 -0.85055 0
    outer loop
      vertex 7.38904 3.26868 -3
      vertex 6.06824 2.45203 -4
      vertex 7.38904 3.26868 -4
    endloop
  endfacet
  facet normal 0.340242 -0.940338 0
    outer loop
      vertex 4.44043 1.86304 -4
      vertex 6.06824 2.45203 -3
      vertex 4.44043 1.86304 -3
    endloop
  endfacet
  facet normal 0.340242 -0.940338 0
    outer loop
      vertex 6.06824 2.45203 -3
      vertex 4.44043 1.86304 -4
      vertex 6.06824 2.45203 -4
    endloop
  endfacet
  facet normal 0.147521 -0.989059 0
    outer loop
      vertex 3 1.64819 -4
      vertex 4.44043 1.86304 -3
      vertex 3 1.64819 -3
    endloop
  endfacet
  facet normal 0.147521 -0.989059 0
    outer loop
      vertex 4.44043 1.86304 -3
      vertex 3 1.64819 -4
      vertex 4.44043 1.86304 -4
    endloop
  endfacet
  facet normal -1 0 0
    outer loop
      vertex 3 1.64819 -4
      vertex 3 2.2323 -3
      vertex 3 2.2323 -4
    endloop
  endfacet
  facet normal -1 -0 0
    outer loop
      vertex 3 2.2323 -3
      vertex 3 1.64819 -4
      vertex 3 1.64819 -3
    endloop
  endfacet
  facet normal -0.15545 0.987844 0
    outer loop
      vertex 4.38855 2.45081 -4
      vertex 3 2.2323 -3
      vertex 4.38855 2.45081 -3
    endloop
  endfacet
  facet normal -0.15545 0.987844 0
    outer loop
      vertex 3 2.2323 -3
      vertex 4.38855 2.45081 -4
      vertex 3 2.2323 -4
    endloop
  endfacet
  facet normal 0 0 1
    outer loop
      vertex 6.36243 6.09521 -3
      vertex 5.51343 6.61523 -3
      vertex 5.81494 5.98352 -3
    endloop
  endfacet
  facet normal 0 0 1
    outer loop
      vertex 4.72607 7.43616 -3
      vertex 5.51343 6.61523 -3
      vertex 5.90588 7.04431 -3
    endloop
  endfacet
  facet normal 0 0 1
    outer loop
      vertex 4.72607 7.43616 -3
      vertex 4.68823 6.86609 -3
      vertex 5.51343 6.61523 -3
    endloop
  endfacet
  facet normal -0 0 1
    outer loop
      vertex 3.84229 7.25183 -3
      vertex 4.68823 6.86609 -3
      vertex 4.72607 7.43616 -3
    endloop
  endfacet
  facet normal 0 0 1
    outer loop
      vertex 3.84229 7.25183 -3
      vertex 3.82703 6.61218 -3
      vertex 4.68823 6.86609 -3
    endloop
  endfacet
  facet normal -0 0 1
    outer loop
      vertex 3.21729 6.74524 -3
      vertex 3.82703 6.61218 -3
      vertex 3.84229 7.25183 -3
    endloop
  endfacet
  facet normal 0 0 1
    outer loop
      vertex 3.82703 6.61218 -3
      vertex 3.21729 6.74524 -3
      vertex 3.51025 6.00488 -3
    endloop
  endfacet
  facet normal -0 0 1
    outer loop
      vertex 5.51343 6.61523 -3
      vertex 6.36243 6.09521 -3
      vertex 5.90588 7.04431 -3
    endloop
  endfacet
  facet normal 0 0 1
    outer loop
      vertex 6.36243 6.09521 -3
      vertex 5.81494 5.98352 -3
      vertex 6.19702 5.48486 -3
    endloop
  endfacet
  facet normal 0 0 1
    outer loop
      vertex 5.51343 5.34204 -3
      vertex 6.19702 5.48486 -3
      vertex 5.81494 5.98352 -3
    endloop
  endfacet
  facet normal 0 0 1
    outer loop
      vertex 6.19702 5.48486 -3
      vertex 5.51343 5.34204 -3
      vertex 5.69104 4.99231 -3
    endloop
  endfacet
  facet normal 0 0 1
    outer loop
      vertex 7.823 6.94543 -3
      vertex 7.38232 6.59082 -3
      vertex 7.64783 6.03296 -3
    endloop
  endfacet
  facet normal 0 0 1
    outer loop
      vertex 6.90015 7.35559 -3
      vertex 7.38232 6.59082 -3
      vertex 7.823 6.94543 -3
    endloop
  endfacet
  facet normal 0 0 1
    outer loop
      vertex 7.38232 6.59082 -3
      vertex 6.90015 7.35559 -3
      vertex 6.85193 6.80139 -3
    endloop
  endfacet
  facet normal 0 0 1
    outer loop
      vertex 7.64783 6.03296 -3
      vertex 8.15747 6.06714 -3
      vertex 7.823 6.94543 -3
    endloop
  endfacet
  facet normal 0 0 1
    outer loop
      vertex 7.48242 5.56543 -3
      vertex 8.15747 6.06714 -3
      vertex 7.64783 6.03296 -3
    endloop
  endfacet
  facet normal 0 0 1
    outer loop
      vertex 8.15747 6.06714 -3
      vertex 7.48242 5.56543 -3
      vertex 7.57886 4.92395 -3
    endloop
  endfacet
  facet normal -0 0 1
    outer loop
      vertex 6.85864 5.15039 -3
      vertex 7.57886 4.92395 -3
      vertex 7.48242 5.56543 -3
    endloop
  endfacet
  facet normal 0 0 1
    outer loop
      vertex 5.44934 4.4375 -3
      vertex 6.85864 5.15039 -3
      vertex 5.69104 4.99231 -3
    endloop
  endfacet
  facet normal 0 0 1
    outer loop
      vertex 6.85864 5.15039 -3
      vertex 5.44934 4.4375 -3
      vertex 7.57886 4.92395 -3
    endloop
  endfacet
  facet normal -0 0 1
    outer loop
      vertex 4.72302 5.07898 -3
      vertex 5.69104 4.99231 -3
      vertex 5.51343 5.34204 -3
    endloop
  endfacet
  facet normal 0 0 1
    outer loop
      vertex 5.69104 4.99231 -3
      vertex 4.72302 5.07898 -3
      vertex 5.44934 4.4375 -3
    endloop
  endfacet
  facet normal 0 0 1
    outer loop
      vertex 3.57007 4.87756 -3
      vertex 4.72302 5.07898 -3
      vertex 4.10962 5.20105 -3
    endloop
  endfacet
  facet normal 0 0 1
    outer loop
      vertex 4.72302 5.07898 -3
      vertex 3.57007 4.87756 -3
      vertex 5.44934 4.4375 -3
    endloop
  endfacet
  facet normal 0 0 1
    outer loop
      vertex 3.66345 5.54346 -3
      vertex 3.57007 4.87756 -3
      vertex 4.10962 5.20105 -3
    endloop
  endfacet
  facet normal 0 0 1
    outer loop
      vertex 3 6.01465 -3
      vertex 3.66345 5.54346 -3
      vertex 3.51025 6.00488 -3
    endloop
  endfacet
  facet normal -0 0 1
    outer loop
      vertex 3 6.01465 -3
      vertex 3.51025 6.00488 -3
      vertex 3.21729 6.74524 -3
    endloop
  endfacet
  facet normal 0 0 1
    outer loop
      vertex 3.66345 5.54346 -3
      vertex 3 6.01465 -3
      vertex 3.57007 4.87756 -3
    endloop
  endfacet
  facet normal -0 0 -1
    outer loop
      vertex 8.15747 6.06714 -4
      vertex 7.64783 6.03296 -4
      vertex 7.823 6.94543 -4
    endloop
  endfacet
  facet normal 0 0 -1
    outer loop
      vertex 7.48242 5.56543 -4
      vertex 8.15747 6.06714 -4
      vertex 7.57886 4.92395 -4
    endloop
  endfacet
  facet normal 0 0 -1
    outer loop
      vertex 8.15747 6.06714 -4
      vertex 7.48242 5.56543 -4
      vertex 7.64783 6.03296 -4
    endloop
  endfacet
  facet normal 0 0 -1
    outer loop
      vertex 7.57886 4.92395 -4
      vertex 6.85864 5.15039 -4
      vertex 7.48242 5.56543 -4
    endloop
  endfacet
  facet normal 0 0 -1
    outer loop
      vertex 5.44934 4.4375 -4
      vertex 6.85864 5.15039 -4
      vertex 7.57886 4.92395 -4
    endloop
  endfacet
  facet normal 0 0 -1
    outer loop
      vertex 6.85864 5.15039 -4
      vertex 5.44934 4.4375 -4
      vertex 5.69104 4.99231 -4
    endloop
  endfacet
  facet normal 0 0 -1
    outer loop
      vertex 4.72302 5.07898 -4
      vertex 5.69104 4.99231 -4
      vertex 5.44934 4.4375 -4
    endloop
  endfacet
  facet normal 0 0 -1
    outer loop
      vertex 5.69104 4.99231 -4
      vertex 4.72302 5.07898 -4
      vertex 5.51343 5.34204 -4
    endloop
  endfacet
  facet normal 0 0 -1
    outer loop
      vertex 3.57007 4.87756 -4
      vertex 4.72302 5.07898 -4
      vertex 5.44934 4.4375 -4
    endloop
  endfacet
  facet normal -0 0 -1
    outer loop
      vertex 4.72302 5.07898 -4
      vertex 3.57007 4.87756 -4
      vertex 4.10962 5.20105 -4
    endloop
  endfacet
  facet normal 0 0 -1
    outer loop
      vertex 3.57007 4.87756 -4
      vertex 3.66345 5.54346 -4
      vertex 4.10962 5.20105 -4
    endloop
  endfacet
  facet normal 0 0 -1
    outer loop
      vertex 3 6.01465 -4
      vertex 3.66345 5.54346 -4
      vertex 3.57007 4.87756 -4
    endloop
  endfacet
  facet normal 0 0 -1
    outer loop
      vertex 3.66345 5.54346 -4
      vertex 3 6.01465 -4
      vertex 3.51025 6.00488 -4
    endloop
  endfacet
  facet normal 0 0 -1
    outer loop
      vertex 3.51025 6.00488 -4
      vertex 3 6.01465 -4
      vertex 3.21729 6.74524 -4
    endloop
  endfacet
  facet normal 0 0 -1
    outer loop
      vertex 7.38232 6.59082 -4
      vertex 7.823 6.94543 -4
      vertex 7.64783 6.03296 -4
    endloop
  endfacet
  facet normal 0 0 -1
    outer loop
      vertex 7.38232 6.59082 -4
      vertex 6.90015 7.35559 -4
      vertex 7.823 6.94543 -4
    endloop
  endfacet
  facet normal 0 -0 -1
    outer loop
      vertex 6.90015 7.35559 -4
      vertex 7.38232 6.59082 -4
      vertex 6.85193 6.80139 -4
    endloop
  endfacet
  facet normal 0 0 -1
    outer loop
      vertex 5.81494 5.98352 -4
      vertex 6.36243 6.09521 -4
      vertex 6.19702 5.48486 -4
    endloop
  endfacet
  facet normal 0 0 -1
    outer loop
      vertex 5.51343 6.61523 -4
      vertex 6.36243 6.09521 -4
      vertex 5.81494 5.98352 -4
    endloop
  endfacet
  facet normal 0 0 -1
    outer loop
      vertex 5.51343 5.34204 -4
      vertex 6.19702 5.48486 -4
      vertex 5.69104 4.99231 -4
    endloop
  endfacet
  facet normal -0 0 -1
    outer loop
      vertex 6.19702 5.48486 -4
      vertex 5.51343 5.34204 -4
      vertex 5.81494 5.98352 -4
    endloop
  endfacet
  facet normal 0 0 -1
    outer loop
      vertex 6.36243 6.09521 -4
      vertex 5.51343 6.61523 -4
      vertex 5.90588 7.04431 -4
    endloop
  endfacet
  facet normal 0 0 -1
    outer loop
      vertex 5.51343 6.61523 -4
      vertex 4.72607 7.43616 -4
      vertex 5.90588 7.04431 -4
    endloop
  endfacet
  facet normal 0 0 -1
    outer loop
      vertex 4.68823 6.86609 -4
      vertex 4.72607 7.43616 -4
      vertex 5.51343 6.61523 -4
    endloop
  endfacet
  facet normal 0 0 -1
    outer loop
      vertex 4.68823 6.86609 -4
      vertex 3.84229 7.25183 -4
      vertex 4.72607 7.43616 -4
    endloop
  endfacet
  facet normal 0 0 -1
    outer loop
      vertex 3.82703 6.61218 -4
      vertex 3.84229 7.25183 -4
      vertex 4.68823 6.86609 -4
    endloop
  endfacet
  facet normal 0 0 -1
    outer loop
      vertex 3.21729 6.74524 -4
      vertex 3.82703 6.61218 -4
      vertex 3.51025 6.00488 -4
    endloop
  endfacet
  facet normal 0 0 -1
    outer loop
      vertex 3.82703 6.61218 -4
      vertex 3.21729 6.74524 -4
      vertex 3.84229 7.25183 -4
    endloop
  endfacet
  facet normal -0.629678 0.776856 0
    outer loop
      vertex 3.84229 7.25183 -4
      vertex 3.21729 6.74524 -3
      vertex 3.84229 7.25183 -3
    endloop
  endfacet
  facet normal -0.629678 0.776856 0
    outer loop
      vertex 3.21729 6.74524 -3
      vertex 3.84229 7.25183 -4
      vertex 3.21729 6.74524 -4
    endloop
  endfacet
  facet normal -0.20417 0.978935 0
    outer loop
      vertex 4.72607 7.43616 -4
      vertex 3.84229 7.25183 -3
      vertex 4.72607 7.43616 -3
    endloop
  endfacet
  facet normal -0.20417 0.978935 0
    outer loop
      vertex 3.84229 7.25183 -3
      vertex 4.72607 7.43616 -4
      vertex 3.84229 7.25183 -4
    endloop
  endfacet
  facet normal 0.315197 0.949026 -0
    outer loop
      vertex 5.90588 7.04431 -4
      vertex 4.72607 7.43616 -3
      vertex 5.90588 7.04431 -3
    endloop
  endfacet
  facet normal 0.315197 0.949026 0
    outer loop
      vertex 4.72607 7.43616 -3
      vertex 5.90588 7.04431 -4
      vertex 4.72607 7.43616 -4
    endloop
  endfacet
  facet normal 0.901161 0.433485 0
    outer loop
      vertex 6.36243 6.09521 -3
      vertex 5.90588 7.04431 -4
      vertex 5.90588 7.04431 -3
    endloop
  endfacet
  facet normal 0.901161 0.433485 0
    outer loop
      vertex 5.90588 7.04431 -4
      vertex 6.36243 6.09521 -3
      vertex 6.36243 6.09521 -4
    endloop
  endfacet
  facet normal 0.965186 -0.261565 0
    outer loop
      vertex 6.19702 5.48486 -3
      vertex 6.36243 6.09521 -4
      vertex 6.36243 6.09521 -3
    endloop
  endfacet
  facet normal 0.965186 -0.261565 0
    outer loop
      vertex 6.36243 6.09521 -4
      vertex 6.19702 5.48486 -3
      vertex 6.19702 5.48486 -4
    endloop
  endfacet
  facet normal 0.697535 -0.716551 0
    outer loop
      vertex 5.69104 4.99231 -4
      vertex 6.19702 5.48486 -3
      vertex 5.69104 4.99231 -3
    endloop
  endfacet
  facet normal 0.697535 -0.716551 0
    outer loop
      vertex 6.19702 5.48486 -3
      vertex 5.69104 4.99231 -4
      vertex 6.19702 5.48486 -4
    endloop
  endfacet
  facet normal -0.134165 0.990959 0
    outer loop
      vertex 6.85864 5.15039 -4
      vertex 5.69104 4.99231 -3
      vertex 6.85864 5.15039 -3
    endloop
  endfacet
  facet normal -0.134165 0.990959 0
    outer loop
      vertex 5.69104 4.99231 -3
      vertex 6.85864 5.15039 -4
      vertex 5.69104 4.99231 -4
    endloop
  endfacet
  facet normal -0.553948 0.832551 0
    outer loop
      vertex 7.48242 5.56543 -4
      vertex 6.85864 5.15039 -3
      vertex 7.48242 5.56543 -3
    endloop
  endfacet
  facet normal -0.553948 0.832551 0
    outer loop
      vertex 6.85864 5.15039 -3
      vertex 7.48242 5.56543 -4
      vertex 6.85864 5.15039 -4
    endloop
  endfacet
  facet normal -0.94274 0.333528 0
    outer loop
      vertex 7.48242 5.56543 -4
      vertex 7.64783 6.03296 -3
      vertex 7.64783 6.03296 -4
    endloop
  endfacet
  facet normal -0.94274 0.333528 0
    outer loop
      vertex 7.64783 6.03296 -3
      vertex 7.48242 5.56543 -4
      vertex 7.48242 5.56543 -3
    endloop
  endfacet
  facet normal -0.902952 -0.429742 0
    outer loop
      vertex 7.64783 6.03296 -4
      vertex 7.38232 6.59082 -3
      vertex 7.38232 6.59082 -4
    endloop
  endfacet
  facet normal -0.902952 -0.429742 0
    outer loop
      vertex 7.38232 6.59082 -3
      vertex 7.64783 6.03296 -4
      vertex 7.64783 6.03296 -3
    endloop
  endfacet
  facet normal -0.368992 -0.929432 0
    outer loop
      vertex 6.85193 6.80139 -4
      vertex 7.38232 6.59082 -3
      vertex 6.85193 6.80139 -3
    endloop
  endfacet
  facet normal -0.368992 -0.929432 -0
    outer loop
      vertex 7.38232 6.59082 -3
      vertex 6.85193 6.80139 -4
      vertex 7.38232 6.59082 -4
    endloop
  endfacet
  facet normal -0.996236 0.086677 0
    outer loop
      vertex 6.85193 6.80139 -4
      vertex 6.90015 7.35559 -3
      vertex 6.90015 7.35559 -4
    endloop
  endfacet
  facet normal -0.996236 0.086677 0
    outer loop
      vertex 6.90015 7.35559 -3
      vertex 6.85193 6.80139 -4
      vertex 6.85193 6.80139 -3
    endloop
  endfacet
  facet normal 0.406138 0.913812 -0
    outer loop
      vertex 7.823 6.94543 -4
      vertex 6.90015 7.35559 -3
      vertex 7.823 6.94543 -3
    endloop
  endfacet
  facet normal 0.406138 0.913812 0
    outer loop
      vertex 6.90015 7.35559 -3
      vertex 7.823 6.94543 -4
      vertex 6.90015 7.35559 -4
    endloop
  endfacet
  facet normal 0.934529 0.355887 0
    outer loop
      vertex 8.15747 6.06714 -3
      vertex 7.823 6.94543 -4
      vertex 7.823 6.94543 -3
    endloop
  endfacet
  facet normal 0.934529 0.355887 0
    outer loop
      vertex 7.823 6.94543 -4
      vertex 8.15747 6.06714 -3
      vertex 8.15747 6.06714 -4
    endloop
  endfacet
  facet normal 0.892225 -0.451591 0
    outer loop
      vertex 7.57886 4.92395 -3
      vertex 8.15747 6.06714 -4
      vertex 8.15747 6.06714 -3
    endloop
  endfacet
  facet normal 0.892225 -0.451591 0
    outer loop
      vertex 8.15747 6.06714 -4
      vertex 7.57886 4.92395 -3
      vertex 7.57886 4.92395 -4
    endloop
  endfacet
  facet normal 0.222696 -0.974888 0
    outer loop
      vertex 5.44934 4.4375 -4
      vertex 7.57886 4.92395 -3
      vertex 5.44934 4.4375 -3
    endloop
  endfacet
  facet normal 0.222696 -0.974888 0
    outer loop
      vertex 7.57886 4.92395 -3
      vertex 5.44934 4.4375 -4
      vertex 7.57886 4.92395 -4
    endloop
  endfacet
  facet normal -0.227999 -0.973661 0
    outer loop
      vertex 3.57007 4.87756 -4
      vertex 5.44934 4.4375 -3
      vertex 3.57007 4.87756 -3
    endloop
  endfacet
  facet normal -0.227999 -0.973661 -0
    outer loop
      vertex 5.44934 4.4375 -3
      vertex 3.57007 4.87756 -4
      vertex 5.44934 4.4375 -4
    endloop
  endfacet
  facet normal -0.893947 -0.448173 0
    outer loop
      vertex 3.57007 4.87756 -4
      vertex 3 6.01465 -3
      vertex 3 6.01465 -4
    endloop
  endfacet
  facet normal -0.893947 -0.448173 0
    outer loop
      vertex 3 6.01465 -3
      vertex 3.57007 4.87756 -4
      vertex 3.57007 4.87756 -3
    endloop
  endfacet
  facet normal -0.958507 0.28507 0
    outer loop
      vertex 3 6.01465 -4
      vertex 3.21729 6.74524 -3
      vertex 3.21729 6.74524 -4
    endloop
  endfacet
  facet normal -0.958507 0.28507 0
    outer loop
      vertex 3.21729 6.74524 -3
      vertex 3 6.01465 -4
      vertex 3 6.01465 -3
    endloop
  endfacet
  facet normal 0.608819 0.793309 -0
    outer loop
      vertex 4.10962 5.20105 -4
      vertex 3.66345 5.54346 -3
      vertex 4.10962 5.20105 -3
    endloop
  endfacet
  facet normal 0.608819 0.793309 0
    outer loop
      vertex 3.66345 5.54346 -3
      vertex 4.10962 5.20105 -4
      vertex 3.66345 5.54346 -4
    endloop
  endfacet
  facet normal 0.195178 0.980768 -0
    outer loop
      vertex 4.72302 5.07898 -4
      vertex 4.10962 5.20105 -3
      vertex 4.72302 5.07898 -3
    endloop
  endfacet
  facet normal 0.195178 0.980768 0
    outer loop
      vertex 4.10962 5.20105 -3
      vertex 4.72302 5.07898 -4
      vertex 4.10962 5.20105 -4
    endloop
  endfacet
  facet normal -0.315788 0.94883 0
    outer loop
      vertex 5.51343 5.34204 -4
      vertex 4.72302 5.07898 -3
      vertex 5.51343 5.34204 -3
    endloop
  endfacet
  facet normal -0.315788 0.94883 0
    outer loop
      vertex 4.72302 5.07898 -3
      vertex 5.51343 5.34204 -4
      vertex 4.72302 5.07898 -4
    endloop
  endfacet
  facet normal -0.905014 0.425382 0
    outer loop
      vertex 5.51343 5.34204 -4
      vertex 5.81494 5.98352 -3
      vertex 5.81494 5.98352 -4
    endloop
  endfacet
  facet normal -0.905014 0.425382 0
    outer loop
      vertex 5.81494 5.98352 -3
      vertex 5.51343 5.34204 -4
      vertex 5.51343 5.34204 -3
    endloop
  endfacet
  facet normal -0.902473 -0.430746 0
    outer loop
      vertex 5.81494 5.98352 -4
      vertex 5.51343 6.61523 -3
      vertex 5.51343 6.61523 -4
    endloop
  endfacet
  facet normal -0.902473 -0.430746 0
    outer loop
      vertex 5.51343 6.61523 -3
      vertex 5.81494 5.98352 -4
      vertex 5.81494 5.98352 -3
    endloop
  endfacet
  facet normal -0.290852 -0.956768 0
    outer loop
      vertex 4.68823 6.86609 -4
      vertex 5.51343 6.61523 -3
      vertex 4.68823 6.86609 -3
    endloop
  endfacet
  facet normal -0.290852 -0.956768 -0
    outer loop
      vertex 5.51343 6.61523 -3
      vertex 4.68823 6.86609 -4
      vertex 5.51343 6.61523 -4
    endloop
  endfacet
  facet normal 0.282792 -0.959181 0
    outer loop
      vertex 3.82703 6.61218 -4
      vertex 4.68823 6.86609 -3
      vertex 3.82703 6.61218 -3
    endloop
  endfacet
  facet normal 0.282792 -0.959181 0
    outer loop
      vertex 4.68823 6.86609 -3
      vertex 3.82703 6.61218 -4
      vertex 4.68823 6.86609 -4
    endloop
  endfacet
  facet normal 0.886633 -0.462475 0
    outer loop
      vertex 3.51025 6.00488 -3
      vertex 3.82703 6.61218 -4
      vertex 3.82703 6.61218 -3
    endloop
  endfacet
  facet normal 0.886633 -0.462475 0
    outer loop
      vertex 3.82703 6.61218 -4
      vertex 3.51025 6.00488 -3
      vertex 3.51025 6.00488 -4
    endloop
  endfacet
  facet normal 0.949059 0.315098 0
    outer loop
      vertex 3.66345 5.54346 -3
      vertex 3.51025 6.00488 -4
      vertex 3.51025 6.00488 -3
    endloop
  endfacet
  facet normal 0.949059 0.315098 0
    outer loop
      vertex 3.51025 6.00488 -4
      vertex 3.66345 5.54346 -3
      vertex 3.66345 5.54346 -4
    endloop
  endfacet
  facet normal -0 0 1
    outer loop
      vertex 5.27234 10.024 -3
      vertex 5.82532 10.0179 -3
      vertex 5.39624 10.649 -3
    endloop
  endfacet
  facet normal 0 0 1
    outer loop
      vertex 5.82532 10.0179 -3
      vertex 5.27234 10.024 -3
      vertex 5.54944 9.38074 -3
    endloop
  endfacet
  facet normal 0 0 1
    outer loop
      vertex 4.56799 10.2773 -3
      vertex 5.39624 10.649 -3
      vertex 4.58142 10.8737 -3
    endloop
  endfacet
  facet normal 0 0 1
    outer loop
      vertex 5.39624 10.649 -3
      vertex 4.56799 10.2773 -3
      vertex 5.27234 10.024 -3
    endloop
  endfacet
  facet normal -0 0 1
    outer loop
      vertex 3.46021 10.4366 -3
      vertex 4.56799 10.2773 -3
      vertex 4.58142 10.8737 -3
    endloop
  endfacet
  facet normal 0 0 1
    outer loop
      vertex 3 9.33069 -3
      vertex 3.81665 10.0039 -3
      vertex 3.46021 10.4366 -3
    endloop
  endfacet
  facet normal 0 0 1
    outer loop
      vertex 4.56799 10.2773 -3
      vertex 3.46021 10.4366 -3
      vertex 3.81665 10.0039 -3
    endloop
  endfacet
  facet normal -0 0 1
    outer loop
      vertex 7.65088 9.32153 -3
      vertex 8.16113 9.30872 -3
      vertex 7.98352 9.99902 -3
    endloop
  endfacet
  facet normal 0 0 1
    outer loop
      vertex 7.42383 8.77466 -3
      vertex 8.16113 9.30872 -3
      vertex 7.65088 9.32153 -3
    endloop
  endfacet
  facet normal 0 0 1
    outer loop
      vertex 7.42688 9.86169 -3
      vertex 7.98352 9.99902 -3
      vertex 7.49951 10.4818 -3
    endloop
  endfacet
  facet normal 0 0 1
    outer loop
      vertex 7.98352 9.99902 -3
      vertex 7.42688 9.86169 -3
      vertex 7.65088 9.32153 -3
    endloop
  endfacet
  facet normal 0 0 1
    outer loop
      vertex 7.49951 10.4818 -3
      vertex 6.8623 10.071 -3
      vertex 7.42688 9.86169 -3
    endloop
  endfacet
  facet normal 0 0 1
    outer loop
      vertex 6.84827 10.649 -3
      vertex 6.8623 10.071 -3
      vertex 7.49951 10.4818 -3
    endloop
  endfacet
  facet normal -0 0 1
    outer loop
      vertex 6.25256 10.4897 -3
      vertex 6.8623 10.071 -3
      vertex 6.84827 10.649 -3
    endloop
  endfacet
  facet normal 0 0 1
    outer loop
      vertex 6.25256 10.4897 -3
      vertex 6.22449 9.78357 -3
      vertex 6.8623 10.071 -3
    endloop
  endfacet
  facet normal -0 0 1
    outer loop
      vertex 5.82532 10.0179 -3
      vertex 6.22449 9.78357 -3
      vertex 6.25256 10.4897 -3
    endloop
  endfacet
  facet normal 0 0 1
    outer loop
      vertex 5.54944 9.38074 -3
      vertex 6.22449 9.78357 -3
      vertex 5.82532 10.0179 -3
    endloop
  endfacet
  facet normal 0 0 1
    outer loop
      vertex 8.16113 9.30872 -3
      vertex 7.42383 8.77466 -3
      vertex 7.81812 8.3999 -3
    endloop
  endfacet
  facet normal 0 0 1
    outer loop
      vertex 7.42383 8.77466 -3
      vertex 6.85193 7.93115 -3
      vertex 7.81812 8.3999 -3
    endloop
  endfacet
  facet normal 0 -0 1
    outer loop
      vertex 6.85193 7.93115 -3
      vertex 7.42383 8.77466 -3
      vertex 6.74146 8.4939 -3
    endloop
  endfacet
  facet normal 0 0 1
    outer loop
      vertex 6.22449 9.78357 -3
      vertex 5.54944 9.38074 -3
      vertex 6.01819 9.13721 -3
    endloop
  endfacet
  facet normal 0 0 1
    outer loop
      vertex 5.48047 8.98401 -3
      vertex 6.01819 9.13721 -3
      vertex 5.54944 9.38074 -3
    endloop
  endfacet
  facet normal 0 0 1
    outer loop
      vertex 6.01819 9.13721 -3
      vertex 5.48047 8.98401 -3
      vertex 6.0249 9.04626 -3
    endloop
  endfacet
  facet normal 0 0 1
    outer loop
      vertex 3.74585 8.76672 -3
      vertex 4.42273 7.875 -3
      vertex 4.50574 8.43713 -3
    endloop
  endfacet
  facet normal 0 0 1
    outer loop
      vertex 3.74585 8.76672 -3
      vertex 3.39612 8.32971 -3
      vertex 4.42273 7.875 -3
    endloop
  endfacet
  facet normal -0 0 1
    outer loop
      vertex 3 9.33069 -3
      vertex 3.74585 8.76672 -3
      vertex 3.51331 9.33374 -3
    endloop
  endfacet
  facet normal 0 0 1
    outer loop
      vertex 3.81665 10.0039 -3
      vertex 3 9.33069 -3
      vertex 3.51331 9.33374 -3
    endloop
  endfacet
  facet normal 0 0 1
    outer loop
      vertex 3.74585 8.76672 -3
      vertex 3 9.33069 -3
      vertex 3.39612 8.32971 -3
    endloop
  endfacet
  facet normal 0 0 -1
    outer loop
      vertex 4.42273 7.875 -4
      vertex 3.74585 8.76672 -4
      vertex 4.50574 8.43713 -4
    endloop
  endfacet
  facet normal 0 0 -1
    outer loop
      vertex 3.39612 8.32971 -4
      vertex 3.74585 8.76672 -4
      vertex 4.42273 7.875 -4
    endloop
  endfacet
  facet normal 0 0 -1
    outer loop
      vertex 3 9.33069 -4
      vertex 3.74585 8.76672 -4
      vertex 3.39612 8.32971 -4
    endloop
  endfacet
  facet normal 0 0 -1
    outer loop
      vertex 3.74585 8.76672 -4
      vertex 3 9.33069 -4
      vertex 3.51331 9.33374 -4
    endloop
  endfacet
  facet normal -0 0 -1
    outer loop
      vertex 3.51331 9.33374 -4
      vertex 3 9.33069 -4
      vertex 3.46021 10.4366 -4
    endloop
  endfacet
  facet normal 0 0 -1
    outer loop
      vertex 5.48047 8.98401 -4
      vertex 6.01819 9.13721 -4
      vertex 6.0249 9.04626 -4
    endloop
  endfacet
  facet normal 0 0 -1
    outer loop
      vertex 6.01819 9.13721 -4
      vertex 5.54944 9.38074 -4
      vertex 5.82532 10.0179 -4
    endloop
  endfacet
  facet normal -0 0 -1
    outer loop
      vertex 6.01819 9.13721 -4
      vertex 5.48047 8.98401 -4
      vertex 5.54944 9.38074 -4
    endloop
  endfacet
  facet normal -0 0 -1
    outer loop
      vertex 8.16113 9.30872 -4
      vertex 7.42383 8.77466 -4
      vertex 7.65088 9.32153 -4
    endloop
  endfacet
  facet normal 0 0 -1
    outer loop
      vertex 6.85193 7.93115 -4
      vertex 7.42383 8.77466 -4
      vertex 7.81812 8.3999 -4
    endloop
  endfacet
  facet normal 0 0 -1
    outer loop
      vertex 7.42383 8.77466 -4
      vertex 6.85193 7.93115 -4
      vertex 6.74146 8.4939 -4
    endloop
  endfacet
  facet normal 0 0 -1
    outer loop
      vertex 7.42383 8.77466 -4
      vertex 8.16113 9.30872 -4
      vertex 7.81812 8.3999 -4
    endloop
  endfacet
  facet normal 0 0 -1
    outer loop
      vertex 8.16113 9.30872 -4
      vertex 7.65088 9.32153 -4
      vertex 7.98352 9.99902 -4
    endloop
  endfacet
  facet normal 0 0 -1
    outer loop
      vertex 7.42688 9.86169 -4
      vertex 7.98352 9.99902 -4
      vertex 7.65088 9.32153 -4
    endloop
  endfacet
  facet normal -0 0 -1
    outer loop
      vertex 7.98352 9.99902 -4
      vertex 7.42688 9.86169 -4
      vertex 7.49951 10.4818 -4
    endloop
  endfacet
  facet normal 0 0 -1
    outer loop
      vertex 6.8623 10.071 -4
      vertex 7.49951 10.4818 -4
      vertex 7.42688 9.86169 -4
    endloop
  endfacet
  facet normal 0 0 -1
    outer loop
      vertex 6.8623 10.071 -4
      vertex 6.84827 10.649 -4
      vertex 7.49951 10.4818 -4
    endloop
  endfacet
  facet normal 0 0 -1
    outer loop
      vertex 6.8623 10.071 -4
      vertex 6.25256 10.4897 -4
      vertex 6.84827 10.649 -4
    endloop
  endfacet
  facet normal 0 0 -1
    outer loop
      vertex 6.22449 9.78357 -4
      vertex 6.25256 10.4897 -4
      vertex 6.8623 10.071 -4
    endloop
  endfacet
  facet normal 0 0 -1
    outer loop
      vertex 5.82532 10.0179 -4
      vertex 6.22449 9.78357 -4
      vertex 6.01819 9.13721 -4
    endloop
  endfacet
  facet normal 0 0 -1
    outer loop
      vertex 6.22449 9.78357 -4
      vertex 5.82532 10.0179 -4
      vertex 6.25256 10.4897 -4
    endloop
  endfacet
  facet normal 0 0 -1
    outer loop
      vertex 5.27234 10.024 -4
      vertex 5.82532 10.0179 -4
      vertex 5.54944 9.38074 -4
    endloop
  endfacet
  facet normal 0 0 -1
    outer loop
      vertex 5.82532 10.0179 -4
      vertex 5.27234 10.024 -4
      vertex 5.39624 10.649 -4
    endloop
  endfacet
  facet normal 0 0 -1
    outer loop
      vertex 4.56799 10.2773 -4
      vertex 5.39624 10.649 -4
      vertex 5.27234 10.024 -4
    endloop
  endfacet
  facet normal -0 0 -1
    outer loop
      vertex 5.39624 10.649 -4
      vertex 4.56799 10.2773 -4
      vertex 4.58142 10.8737 -4
    endloop
  endfacet
  facet normal 0 0 -1
    outer loop
      vertex 3.46021 10.4366 -4
      vertex 4.56799 10.2773 -4
      vertex 3.81665 10.0039 -4
    endloop
  endfacet
  facet normal 0 0 -1
    outer loop
      vertex 4.56799 10.2773 -4
      vertex 3.46021 10.4366 -4
      vertex 4.58142 10.8737 -4
    endloop
  endfacet
  facet normal 0 0 -1
    outer loop
      vertex 3.46021 10.4366 -4
      vertex 3.81665 10.0039 -4
      vertex 3.51331 9.33374 -4
    endloop
  endfacet
  facet normal -0.363156 0.931728 0
    outer loop
      vertex 4.58142 10.8737 -4
      vertex 3.46021 10.4366 -3
      vertex 4.58142 10.8737 -3
    endloop
  endfacet
  facet normal -0.363156 0.931728 0
    outer loop
      vertex 3.46021 10.4366 -3
      vertex 4.58142 10.8737 -4
      vertex 3.46021 10.4366 -4
    endloop
  endfacet
  facet normal 0.265744 0.964044 -0
    outer loop
      vertex 5.39624 10.649 -4
      vertex 4.58142 10.8737 -3
      vertex 5.39624 10.649 -3
    endloop
  endfacet
  facet normal 0.265744 0.964044 0
    outer loop
      vertex 4.58142 10.8737 -3
      vertex 5.39624 10.649 -4
      vertex 4.58142 10.8737 -4
    endloop
  endfacet
  facet normal 0.826971 0.562244 0
    outer loop
      vertex 5.82532 10.0179 -3
      vertex 5.39624 10.649 -4
      vertex 5.39624 10.649 -3
    endloop
  endfacet
  facet normal 0.826971 0.562244 0
    outer loop
      vertex 5.39624 10.649 -4
      vertex 5.82532 10.0179 -3
      vertex 5.82532 10.0179 -4
    endloop
  endfacet
  facet normal -0.74124 0.67124 0
    outer loop
      vertex 5.82532 10.0179 -4
      vertex 6.25256 10.4897 -3
      vertex 6.25256 10.4897 -4
    endloop
  endfacet
  facet normal -0.74124 0.67124 0
    outer loop
      vertex 6.25256 10.4897 -3
      vertex 5.82532 10.0179 -4
      vertex 5.82532 10.0179 -3
    endloop
  endfacet
  facet normal -0.25834 0.966054 0
    outer loop
      vertex 6.84827 10.649 -4
      vertex 6.25256 10.4897 -3
      vertex 6.84827 10.649 -3
    endloop
  endfacet
  facet normal -0.25834 0.966054 0
    outer loop
      vertex 6.25256 10.4897 -3
      vertex 6.84827 10.649 -4
      vertex 6.25256 10.4897 -4
    endloop
  endfacet
  facet normal 0.248725 0.968574 -0
    outer loop
      vertex 7.49951 10.4818 -4
      vertex 6.84827 10.649 -3
      vertex 7.49951 10.4818 -3
    endloop
  endfacet
  facet normal 0.248725 0.968574 0
    outer loop
      vertex 6.84827 10.649 -3
      vertex 7.49951 10.4818 -4
      vertex 6.84827 10.649 -4
    endloop
  endfacet
  facet normal 0.706213 0.707999 -0
    outer loop
      vertex 7.98352 9.99902 -4
      vertex 7.49951 10.4818 -3
      vertex 7.98352 9.99902 -3
    endloop
  endfacet
  facet normal 0.706213 0.707999 0
    outer loop
      vertex 7.49951 10.4818 -3
      vertex 7.98352 9.99902 -4
      vertex 7.49951 10.4818 -4
    endloop
  endfacet
  facet normal 0.968458 0.249179 0
    outer loop
      vertex 8.16113 9.30872 -3
      vertex 7.98352 9.99902 -4
      vertex 7.98352 9.99902 -3
    endloop
  endfacet
  facet normal 0.968458 0.249179 0
    outer loop
      vertex 7.98352 9.99902 -4
      vertex 8.16113 9.30872 -3
      vertex 8.16113 9.30872 -4
    endloop
  endfacet
  facet normal 0.935578 -0.35312 0
    outer loop
      vertex 7.81812 8.3999 -3
      vertex 8.16113 9.30872 -4
      vertex 8.16113 9.30872 -3
    endloop
  endfacet
  facet normal 0.935578 -0.35312 0
    outer loop
      vertex 8.16113 9.30872 -4
      vertex 7.81812 8.3999 -3
      vertex 7.81812 8.3999 -4
    endloop
  endfacet
  facet normal 0.436497 -0.899706 0
    outer loop
      vertex 6.85193 7.93115 -4
      vertex 7.81812 8.3999 -3
      vertex 6.85193 7.93115 -3
    endloop
  endfacet
  facet normal 0.436497 -0.899706 0
    outer loop
      vertex 7.81812 8.3999 -3
      vertex 6.85193 7.93115 -4
      vertex 7.81812 8.3999 -4
    endloop
  endfacet
  facet normal -0.98127 -0.192636 0
    outer loop
      vertex 6.85193 7.93115 -4
      vertex 6.74146 8.4939 -3
      vertex 6.74146 8.4939 -4
    endloop
  endfacet
  facet normal -0.98127 -0.192636 0
    outer loop
      vertex 6.74146 8.4939 -3
      vertex 6.85193 7.93115 -4
      vertex 6.85193 7.93115 -3
    endloop
  endfacet
  facet normal -0.3805 0.924781 0
    outer loop
      vertex 7.42383 8.77466 -4
      vertex 6.74146 8.4939 -3
      vertex 7.42383 8.77466 -3
    endloop
  endfacet
  facet normal -0.3805 0.924781 0
    outer loop
      vertex 6.74146 8.4939 -3
      vertex 7.42383 8.77466 -4
      vertex 6.74146 8.4939 -4
    endloop
  endfacet
  facet normal -0.923564 0.383444 0
    outer loop
      vertex 7.42383 8.77466 -4
      vertex 7.65088 9.32153 -3
      vertex 7.65088 9.32153 -4
    endloop
  endfacet
  facet normal -0.923564 0.383444 0
    outer loop
      vertex 7.65088 9.32153 -3
      vertex 7.42383 8.77466 -4
      vertex 7.42383 8.77466 -3
    endloop
  endfacet
  facet normal -0.923724 -0.383058 0
    outer loop
      vertex 7.65088 9.32153 -4
      vertex 7.42688 9.86169 -3
      vertex 7.42688 9.86169 -4
    endloop
  endfacet
  facet normal -0.923724 -0.383058 0
    outer loop
      vertex 7.42688 9.86169 -3
      vertex 7.65088 9.32153 -4
      vertex 7.65088 9.32153 -3
    endloop
  endfacet
  facet normal -0.347677 -0.937614 0
    outer loop
      vertex 6.8623 10.071 -4
      vertex 7.42688 9.86169 -3
      vertex 6.8623 10.071 -3
    endloop
  endfacet
  facet normal -0.347677 -0.937614 -0
    outer loop
      vertex 7.42688 9.86169 -3
      vertex 6.8623 10.071 -4
      vertex 7.42688 9.86169 -4
    endloop
  endfacet
  facet normal 0.410909 -0.911676 0
    outer loop
      vertex 6.22449 9.78357 -4
      vertex 6.8623 10.071 -3
      vertex 6.22449 9.78357 -3
    endloop
  endfacet
  facet normal 0.410909 -0.911676 0
    outer loop
      vertex 6.8623 10.071 -3
      vertex 6.22449 9.78357 -4
      vertex 6.8623 10.071 -4
    endloop
  endfacet
  facet normal 0.952654 -0.304058 0
    outer loop
      vertex 6.01819 9.13721 -3
      vertex 6.22449 9.78357 -4
      vertex 6.22449 9.78357 -3
    endloop
  endfacet
  facet normal 0.952654 -0.304058 0
    outer loop
      vertex 6.22449 9.78357 -4
      vertex 6.01819 9.13721 -3
      vertex 6.01819 9.13721 -4
    endloop
  endfacet
  facet normal 0.997286 0.0736251 0
    outer loop
      vertex 6.0249 9.04626 -3
      vertex 6.01819 9.13721 -4
      vertex 6.01819 9.13721 -3
    endloop
  endfacet
  facet normal 0.997286 0.0736251 0
    outer loop
      vertex 6.01819 9.13721 -4
      vertex 6.0249 9.04626 -3
      vertex 6.0249 9.04626 -4
    endloop
  endfacet
  facet normal 0.113609 -0.993525 0
    outer loop
      vertex 5.48047 8.98401 -4
      vertex 6.0249 9.04626 -3
      vertex 5.48047 8.98401 -3
    endloop
  endfacet
  facet normal 0.113609 -0.993525 0
    outer loop
      vertex 6.0249 9.04626 -3
      vertex 5.48047 8.98401 -4
      vertex 6.0249 9.04626 -4
    endloop
  endfacet
  facet normal -0.985223 0.171277 0
    outer loop
      vertex 5.48047 8.98401 -4
      vertex 5.54944 9.38074 -3
      vertex 5.54944 9.38074 -4
    endloop
  endfacet
  facet normal -0.985223 0.171277 0
    outer loop
      vertex 5.54944 9.38074 -3
      vertex 5.48047 8.98401 -4
      vertex 5.48047 8.98401 -3
    endloop
  endfacet
  facet normal -0.918422 -0.395601 0
    outer loop
      vertex 5.54944 9.38074 -4
      vertex 5.27234 10.024 -3
      vertex 5.27234 10.024 -4
    endloop
  endfacet
  facet normal -0.918422 -0.395601 0
    outer loop
      vertex 5.27234 10.024 -3
      vertex 5.54944 9.38074 -4
      vertex 5.54944 9.38074 -3
    endloop
  endfacet
  facet normal -0.338402 -0.941002 0
    outer loop
      vertex 4.56799 10.2773 -4
      vertex 5.27234 10.024 -3
      vertex 4.56799 10.2773 -3
    endloop
  endfacet
  facet normal -0.338402 -0.941002 -0
    outer loop
      vertex 5.27234 10.024 -3
      vertex 4.56799 10.2773 -4
      vertex 5.27234 10.024 -4
    endloop
  endfacet
  facet normal 0.341988 -0.939704 0
    outer loop
      vertex 3.81665 10.0039 -4
      vertex 4.56799 10.2773 -3
      vertex 3.81665 10.0039 -3
    endloop
  endfacet
  facet normal 0.341988 -0.939704 0
    outer loop
      vertex 4.56799 10.2773 -3
      vertex 3.81665 10.0039 -4
      vertex 4.56799 10.2773 -4
    endloop
  endfacet
  facet normal 0.911019 -0.412365 0
    outer loop
      vertex 3.51331 9.33374 -3
      vertex 3.81665 10.0039 -4
      vertex 3.81665 10.0039 -3
    endloop
  endfacet
  facet normal 0.911019 -0.412365 0
    outer loop
      vertex 3.81665 10.0039 -4
      vertex 3.51331 9.33374 -3
      vertex 3.51331 9.33374 -4
    endloop
  endfacet
  facet normal 0.925213 0.379447 0
    outer loop
      vertex 3.74585 8.76672 -3
      vertex 3.51331 9.33374 -4
      vertex 3.51331 9.33374 -3
    endloop
  endfacet
  facet normal 0.925213 0.379447 0
    outer loop
      vertex 3.51331 9.33374 -4
      vertex 3.74585 8.76672 -3
      vertex 3.74585 8.76672 -4
    endloop
  endfacet
  facet normal 0.397918 0.917421 -0
    outer loop
      vertex 4.50574 8.43713 -4
      vertex 3.74585 8.76672 -3
      vertex 4.50574 8.43713 -3
    endloop
  endfacet
  facet normal 0.397918 0.917421 0
    outer loop
      vertex 3.74585 8.76672 -3
      vertex 4.50574 8.43713 -4
      vertex 3.74585 8.76672 -4
    endloop
  endfacet
  facet normal 0.989273 -0.146082 0
    outer loop
      vertex 4.42273 7.875 -3
      vertex 4.50574 8.43713 -4
      vertex 4.50574 8.43713 -3
    endloop
  endfacet
  facet normal 0.989273 -0.146082 0
    outer loop
      vertex 4.50574 8.43713 -4
      vertex 4.42273 7.875 -3
      vertex 4.42273 7.875 -4
    endloop
  endfacet
  facet normal -0.404978 -0.914326 0
    outer loop
      vertex 3.39612 8.32971 -4
      vertex 4.42273 7.875 -3
      vertex 3.39612 8.32971 -3
    endloop
  endfacet
  facet normal -0.404978 -0.914326 -0
    outer loop
      vertex 4.42273 7.875 -3
      vertex 3.39612 8.32971 -4
      vertex 4.42273 7.875 -4
    endloop
  endfacet
  facet normal -0.929839 -0.367967 0
    outer loop
      vertex 3.39612 8.32971 -4
      vertex 3 9.33069 -3
      vertex 3 9.33069 -4
    endloop
  endfacet
  facet normal -0.929839 -0.367967 0
    outer loop
      vertex 3 9.33069 -3
      vertex 3.39612 8.32971 -4
      vertex 3.39612 8.32971 -3
    endloop
  endfacet
  facet normal -0.923258 0.384181 0
    outer loop
      vertex 3 9.33069 -4
      vertex 3.46021 10.4366 -3
      vertex 3.46021 10.4366 -4
    endloop
  endfacet
  facet normal -0.923258 0.384181 0
    outer loop
      vertex 3.46021 10.4366 -3
      vertex 3 9.33069 -4
      vertex 3 9.33069 -3
    endloop
  endfacet
  facet normal -1 0 0
    outer loop
      vertex 1.5 0.5 6.5
      vertex 1.5 1.5 7.5
      vertex 1.5 1.5 6.5
    endloop
  endfacet
  facet normal -1 -0 0
    outer loop
      vertex 1.5 1.5 7.5
      vertex 1.5 0.5 6.5
      vertex 1.5 0.5 7.5
    endloop
  endfacet
  facet normal 0 0 1
    outer loop
      vertex 3.5 3.5 7.5
      vertex 2.5 3.5 7.5
      vertex 3.5 2.5 7.5
    endloop
  endfacet
  facet normal 0 0 1
    outer loop
      vertex 4.5 2.5 7.5
      vertex 5.5 4.5 7.5
      vertex 4.5 4.5 7.5
    endloop
  endfacet
  facet normal -0 0 1
    outer loop
      vertex 5.5 10.5 7.5
      vertex 6.5 9.5 7.5
      vertex 6.5 10.5 7.5
    endloop
  endfacet
  facet normal 0 0 1
    outer loop
      vertex 6.5 9.5 7.5
      vertex 5.5 10.5 7.5
      vertex 6.5 8.5 7.5
    endloop
  endfacet
  facet normal 0 0 1
    outer loop
      vertex 5.5 7.5 7.5
      vertex 6.5 8.5 7.5
      vertex 5.5 10.5 7.5
    endloop
  endfacet
  facet normal -0 0 1
    outer loop
      vertex 6.5 9.5 7.5
      vertex 7.5 8.5 7.5
      vertex 7.5 9.5 7.5
    endloop
  endfacet
  facet normal 0 0 1
    outer loop
      vertex 7.5 8.5 7.5
      vertex 6.5 9.5 7.5
      vertex 6.5 8.5 7.5
    endloop
  endfacet
  facet normal 0 0 1
    outer loop
      vertex 7.5 3.5 7.5
      vertex 6.5 3.5 7.5
      vertex 7.5 1.5 7.5
    endloop
  endfacet
  facet normal -0 0 1
    outer loop
      vertex 8.5 3.5 7.5
      vertex 9.5 2.5 7.5
      vertex 9.5 3.5 7.5
    endloop
  endfacet
  facet normal 0 0 1
    outer loop
      vertex 9.5 2.5 7.5
      vertex 8.5 3.5 7.5
      vertex 8.5 2.5 7.5
    endloop
  endfacet
  facet normal 0 0 1
    outer loop
      vertex 8.5 7.5 7.5
      vertex 9.5 8.5 7.5
      vertex 8.5 8.5 7.5
    endloop
  endfacet
  facet normal 0 0 1
    outer loop
      vertex 9.5 8.5 7.5
      vertex 8.5 7.5 7.5
      vertex 9.5 6.5 7.5
    endloop
  endfacet
  facet normal -0 0 1
    outer loop
      vertex 6.5 7.5 7.5
      vertex 9.5 6.5 7.5
      vertex 8.5 7.5 7.5
    endloop
  endfacet
  facet normal 0 0 1
    outer loop
      vertex 6.5 8.5 7.5
      vertex 5.5 7.5 7.5
      vertex 6.5 7.5 7.5
    endloop
  endfacet
  facet normal 0 0 1
    outer loop
      vertex 4.5 6.5 7.5
      vertex 6.5 7.5 7.5
      vertex 5.5 7.5 7.5
    endloop
  endfacet
  facet normal 0 0 1
    outer loop
      vertex 4.5 6.5 7.5
      vertex 5.5 7.5 7.5
      vertex 4.5 7.5 7.5
    endloop
  endfacet
  facet normal 0 0 1
    outer loop
      vertex 6.5 7.5 7.5
      vertex 4.5 6.5 7.5
      vertex 9.5 6.5 7.5
    endloop
  endfacet
  facet normal 0 0 1
    outer loop
      vertex 9.5 8.5 7.5
      vertex 10.5 10.5 7.5
      vertex 9.5 10.5 7.5
    endloop
  endfacet
  facet normal 0 0 1
    outer loop
      vertex 9.5 6.5 7.5
      vertex 10.5 10.5 7.5
      vertex 9.5 8.5 7.5
    endloop
  endfacet
  facet normal 0 0 1
    outer loop
      vertex 10.5 10.5 7.5
      vertex 9.5 6.5 7.5
      vertex 10.5 0.5 7.5
    endloop
  endfacet
  facet normal -0 0 1
    outer loop
      vertex 9.5 3.5 7.5
      vertex 10.5 0.5 7.5
      vertex 9.5 6.5 7.5
    endloop
  endfacet
  facet normal -0 0 1
    outer loop
      vertex 9.5 2.5 7.5
      vertex 10.5 0.5 7.5
      vertex 9.5 3.5 7.5
    endloop
  endfacet
  facet normal -0 0 1
    outer loop
      vertex 9.5 1.5 7.5
      vertex 10.5 0.5 7.5
      vertex 9.5 2.5 7.5
    endloop
  endfacet
  facet normal -0 0 1
    outer loop
      vertex 7.5 1.5 7.5
      vertex 10.5 0.5 7.5
      vertex 9.5 1.5 7.5
    endloop
  endfacet
  facet normal 0 0 1
    outer loop
      vertex 6.5 1.5 7.5
      vertex 7.5 1.5 7.5
      vertex 6.5 3.5 7.5
    endloop
  endfacet
  facet normal -0 0 1
    outer loop
      vertex 6.5 1.5 7.5
      vertex 10.5 0.5 7.5
      vertex 7.5 1.5 7.5
    endloop
  endfacet
  facet normal -0 0 1
    outer loop
      vertex 5.5 1.5 7.5
      vertex 10.5 0.5 7.5
      vertex 6.5 1.5 7.5
    endloop
  endfacet
  facet normal 0 0 1
    outer loop
      vertex 5.5 4.5 7.5
      vertex 4.5 2.5 7.5
      vertex 5.5 1.5 7.5
    endloop
  endfacet
  facet normal -0 0 1
    outer loop
      vertex 3.5 2.5 7.5
      vertex 5.5 1.5 7.5
      vertex 4.5 2.5 7.5
    endloop
  endfacet
  facet normal 0 0 1
    outer loop
      vertex 2.5 1.5 7.5
      vertex 3.5 2.5 7.5
      vertex 2.5 3.5 7.5
    endloop
  endfacet
  facet normal 0 0 1
    outer loop
      vertex 2.5 1.5 7.5
      vertex 5.5 1.5 7.5
      vertex 3.5 2.5 7.5
    endloop
  endfacet
  facet normal 0 0 1
    outer loop
      vertex 1.5 0.5 7.5
      vertex 5.5 1.5 7.5
      vertex 2.5 1.5 7.5
    endloop
  endfacet
  facet normal 0 0 1
    outer loop
      vertex 1.5 0.5 7.5
      vertex 2.5 1.5 7.5
      vertex 1.5 1.5 7.5
    endloop
  endfacet
  facet normal 0 0 1
    outer loop
      vertex 5.5 1.5 7.5
      vertex 1.5 0.5 7.5
      vertex 10.5 0.5 7.5
    endloop
  endfacet
  facet normal 0 0 -1
    outer loop
      vertex 9.5 6.5 6.5
      vertex 8.5 7.5 6.5
      vertex 9.5 8.5 6.5
    endloop
  endfacet
  facet normal 0 0 -1
    outer loop
      vertex 9.5 6.5 6.5
      vertex 6.5 7.5 6.5
      vertex 8.5 7.5 6.5
    endloop
  endfacet
  facet normal 0 0 -1
    outer loop
      vertex 5.5 7.5 6.5
      vertex 6.5 8.5 6.5
      vertex 6.5 7.5 6.5
    endloop
  endfacet
  facet normal -0 0 -1
    outer loop
      vertex 6.5 8.5 6.5
      vertex 5.5 7.5 6.5
      vertex 6.5 9.5 6.5
    endloop
  endfacet
  facet normal 0 0 -1
    outer loop
      vertex 5.5 10.5 6.5
      vertex 6.5 9.5 6.5
      vertex 5.5 7.5 6.5
    endloop
  endfacet
  facet normal 0 0 -1
    outer loop
      vertex 4.5 6.5 6.5
      vertex 6.5 7.5 6.5
      vertex 9.5 6.5 6.5
    endloop
  endfacet
  facet normal -0 0 -1
    outer loop
      vertex 6.5 7.5 6.5
      vertex 4.5 6.5 6.5
      vertex 5.5 7.5 6.5
    endloop
  endfacet
  facet normal -0 0 -1
    outer loop
      vertex 5.5 7.5 6.5
      vertex 4.5 6.5 6.5
      vertex 4.5 7.5 6.5
    endloop
  endfacet
  facet normal 0 0 -1
    outer loop
      vertex 8.5 2.5 6.5
      vertex 9.5 3.5 6.5
      vertex 9.5 2.5 6.5
    endloop
  endfacet
  facet normal -0 0 -1
    outer loop
      vertex 9.5 3.5 6.5
      vertex 8.5 2.5 6.5
      vertex 8.5 3.5 6.5
    endloop
  endfacet
  facet normal 0 0 -1
    outer loop
      vertex 9.5 2.5 6.5
      vertex 10.5 0.5 6.5
      vertex 9.5 1.5 6.5
    endloop
  endfacet
  facet normal 0 0 -1
    outer loop
      vertex 10.5 0.5 6.5
      vertex 7.5 1.5 6.5
      vertex 9.5 1.5 6.5
    endloop
  endfacet
  facet normal 0 0 -1
    outer loop
      vertex 7.5 1.5 6.5
      vertex 6.5 1.5 6.5
      vertex 7.5 3.5 6.5
    endloop
  endfacet
  facet normal 0 0 -1
    outer loop
      vertex 10.5 0.5 6.5
      vertex 6.5 1.5 6.5
      vertex 7.5 1.5 6.5
    endloop
  endfacet
  facet normal 0 0 -1
    outer loop
      vertex 10.5 0.5 6.5
      vertex 5.5 1.5 6.5
      vertex 6.5 1.5 6.5
    endloop
  endfacet
  facet normal 0 0 -1
    outer loop
      vertex 5.5 1.5 6.5
      vertex 4.5 2.5 6.5
      vertex 5.5 4.5 6.5
    endloop
  endfacet
  facet normal 0 0 -1
    outer loop
      vertex 5.5 1.5 6.5
      vertex 3.5 2.5 6.5
      vertex 4.5 2.5 6.5
    endloop
  endfacet
  facet normal 0 0 -1
    outer loop
      vertex 2.5 3.5 6.5
      vertex 3.5 2.5 6.5
      vertex 2.5 1.5 6.5
    endloop
  endfacet
  facet normal 0 0 -1
    outer loop
      vertex 5.5 1.5 6.5
      vertex 2.5 1.5 6.5
      vertex 3.5 2.5 6.5
    endloop
  endfacet
  facet normal 0 0 -1
    outer loop
      vertex 1.5 0.5 6.5
      vertex 5.5 1.5 6.5
      vertex 10.5 0.5 6.5
    endloop
  endfacet
  facet normal -0 0 -1
    outer loop
      vertex 5.5 1.5 6.5
      vertex 1.5 0.5 6.5
      vertex 2.5 1.5 6.5
    endloop
  endfacet
  facet normal -0 0 -1
    outer loop
      vertex 2.5 1.5 6.5
      vertex 1.5 0.5 6.5
      vertex 1.5 1.5 6.5
    endloop
  endfacet
  facet normal 0 0 -1
    outer loop
      vertex 9.5 3.5 6.5
      vertex 10.5 0.5 6.5
      vertex 9.5 2.5 6.5
    endloop
  endfacet
  facet normal 0 0 -1
    outer loop
      vertex 9.5 6.5 6.5
      vertex 10.5 0.5 6.5
      vertex 9.5 3.5 6.5
    endloop
  endfacet
  facet normal 0 0 -1
    outer loop
      vertex 10.5 0.5 6.5
      vertex 9.5 6.5 6.5
      vertex 10.5 10.5 6.5
    endloop
  endfacet
  facet normal 0 0 -1
    outer loop
      vertex 9.5 8.5 6.5
      vertex 10.5 10.5 6.5
      vertex 9.5 6.5 6.5
    endloop
  endfacet
  facet normal -0 0 -1
    outer loop
      vertex 10.5 10.5 6.5
      vertex 9.5 8.5 6.5
      vertex 9.5 10.5 6.5
    endloop
  endfacet
  facet normal -0 0 -1
    outer loop
      vertex 9.5 8.5 6.5
      vertex 8.5 7.5 6.5
      vertex 8.5 8.5 6.5
    endloop
  endfacet
  facet normal -0 0 -1
    outer loop
      vertex 7.5 3.5 6.5
      vertex 6.5 1.5 6.5
      vertex 6.5 3.5 6.5
    endloop
  endfacet
  facet normal 0 0 -1
    outer loop
      vertex 6.5 8.5 6.5
      vertex 7.5 9.5 6.5
      vertex 7.5 8.5 6.5
    endloop
  endfacet
  facet normal -0 0 -1
    outer loop
      vertex 7.5 9.5 6.5
      vertex 6.5 8.5 6.5
      vertex 6.5 9.5 6.5
    endloop
  endfacet
  facet normal 0 0 -1
    outer loop
      vertex 6.5 9.5 6.5
      vertex 5.5 10.5 6.5
      vertex 6.5 10.5 6.5
    endloop
  endfacet
  facet normal -0 0 -1
    outer loop
      vertex 5.5 4.5 6.5
      vertex 4.5 2.5 6.5
      vertex 4.5 4.5 6.5
    endloop
  endfacet
  facet normal 0 0 -1
    outer loop
      vertex 3.5 2.5 6.5
      vertex 2.5 3.5 6.5
      vertex 3.5 3.5 6.5
    endloop
  endfacet
  facet normal 0 -1 0
    outer loop
      vertex 1.5 0.5 6.5
      vertex 10.5 0.5 7.5
      vertex 1.5 0.5 7.5
    endloop
  endfacet
  facet normal 0 -1 -0
    outer loop
      vertex 10.5 0.5 7.5
      vertex 1.5 0.5 6.5
      vertex 10.5 0.5 6.5
    endloop
  endfacet
  facet normal 0 1 -0
    outer loop
      vertex 9.5 1.5 6.5
      vertex 7.5 1.5 7.5
      vertex 9.5 1.5 7.5
    endloop
  endfacet
  facet normal 0 1 0
    outer loop
      vertex 7.5 1.5 7.5
      vertex 9.5 1.5 6.5
      vertex 7.5 1.5 6.5
    endloop
  endfacet
  facet normal 0 1 -0
    outer loop
      vertex 6.5 1.5 6.5
      vertex 5.5 1.5 7.5
      vertex 6.5 1.5 7.5
    endloop
  endfacet
  facet normal 0 1 0
    outer loop
      vertex 5.5 1.5 7.5
      vertex 6.5 1.5 6.5
      vertex 5.5 1.5 6.5
    endloop
  endfacet
  facet normal 0 1 -0
    outer loop
      vertex 2.5 1.5 6.5
      vertex 1.5 1.5 7.5
      vertex 2.5 1.5 7.5
    endloop
  endfacet
  facet normal 0 1 0
    outer loop
      vertex 1.5 1.5 7.5
      vertex 2.5 1.5 6.5
      vertex 1.5 1.5 6.5
    endloop
  endfacet
  facet normal 1 -0 0
    outer loop
      vertex 10.5 0.5 7.5
      vertex 10.5 10.5 6.5
      vertex 10.5 10.5 7.5
    endloop
  endfacet
  facet normal 1 0 0
    outer loop
      vertex 10.5 10.5 6.5
      vertex 10.5 0.5 7.5
      vertex 10.5 0.5 6.5
    endloop
  endfacet
  facet normal -1 0 0
    outer loop
      vertex 2.5 1.5 6.5
      vertex 2.5 3.5 7.5
      vertex 2.5 3.5 6.5
    endloop
  endfacet
  facet normal -1 -0 0
    outer loop
      vertex 2.5 3.5 7.5
      vertex 2.5 1.5 6.5
      vertex 2.5 1.5 7.5
    endloop
  endfacet
  facet normal 0 1 -0
    outer loop
      vertex 4.5 2.5 6.5
      vertex 3.5 2.5 7.5
      vertex 4.5 2.5 7.5
    endloop
  endfacet
  facet normal 0 1 0
    outer loop
      vertex 3.5 2.5 7.5
      vertex 4.5 2.5 6.5
      vertex 3.5 2.5 6.5
    endloop
  endfacet
  facet normal 1 -0 0
    outer loop
      vertex 5.5 1.5 7.5
      vertex 5.5 4.5 6.5
      vertex 5.5 4.5 7.5
    endloop
  endfacet
  facet normal 1 0 0
    outer loop
      vertex 5.5 4.5 6.5
      vertex 5.5 1.5 7.5
      vertex 5.5 1.5 6.5
    endloop
  endfacet
  facet normal -1 0 0
    outer loop
      vertex 6.5 1.5 6.5
      vertex 6.5 3.5 7.5
      vertex 6.5 3.5 6.5
    endloop
  endfacet
  facet normal -1 -0 0
    outer loop
      vertex 6.5 3.5 7.5
      vertex 6.5 1.5 6.5
      vertex 6.5 1.5 7.5
    endloop
  endfacet
  facet normal 1 -0 0
    outer loop
      vertex 7.5 1.5 7.5
      vertex 7.5 3.5 6.5
      vertex 7.5 3.5 7.5
    endloop
  endfacet
  facet normal 1 0 0
    outer loop
      vertex 7.5 3.5 6.5
      vertex 7.5 1.5 7.5
      vertex 7.5 1.5 6.5
    endloop
  endfacet
  facet normal -1 0 0
    outer loop
      vertex 9.5 1.5 6.5
      vertex 9.5 2.5 7.5
      vertex 9.5 2.5 6.5
    endloop
  endfacet
  facet normal -1 -0 0
    outer loop
      vertex 9.5 2.5 7.5
      vertex 9.5 1.5 6.5
      vertex 9.5 1.5 7.5
    endloop
  endfacet
  facet normal 0 -1 0
    outer loop
      vertex 8.5 2.5 6.5
      vertex 9.5 2.5 7.5
      vertex 8.5 2.5 7.5
    endloop
  endfacet
  facet normal 0 -1 -0
    outer loop
      vertex 9.5 2.5 7.5
      vertex 8.5 2.5 6.5
      vertex 9.5 2.5 6.5
    endloop
  endfacet
  facet normal -1 0 0
    outer loop
      vertex 0.5 2.5 6.5
      vertex 0.5 3.5 7.5
      vertex 0.5 3.5 6.5
    endloop
  endfacet
  facet normal -1 -0 0
    outer loop
      vertex 0.5 3.5 7.5
      vertex 0.5 2.5 6.5
      vertex 0.5 2.5 7.5
    endloop
  endfacet
  facet normal -0 0 1
    outer loop
      vertex 0.5 3.5 7.5
      vertex 1.5 2.5 7.5
      vertex 1.5 3.5 7.5
    endloop
  endfacet
  facet normal 0 0 1
    outer loop
      vertex 1.5 2.5 7.5
      vertex 0.5 3.5 7.5
      vertex 0.5 2.5 7.5
    endloop
  endfacet
  facet normal 1 -0 0
    outer loop
      vertex 1.5 2.5 7.5
      vertex 1.5 3.5 6.5
      vertex 1.5 3.5 7.5
    endloop
  endfacet
  facet normal 1 0 0
    outer loop
      vertex 1.5 3.5 6.5
      vertex 1.5 2.5 7.5
      vertex 1.5 2.5 6.5
    endloop
  endfacet
  facet normal 0 0 -1
    outer loop
      vertex 0.5 2.5 6.5
      vertex 1.5 3.5 6.5
      vertex 1.5 2.5 6.5
    endloop
  endfacet
  facet normal -0 0 -1
    outer loop
      vertex 1.5 3.5 6.5
      vertex 0.5 2.5 6.5
      vertex 0.5 3.5 6.5
    endloop
  endfacet
  facet normal 0 -1 0
    outer loop
      vertex 0.5 2.5 6.5
      vertex 1.5 2.5 7.5
      vertex 0.5 2.5 7.5
    endloop
  endfacet
  facet normal 0 -1 -0
    outer loop
      vertex 1.5 2.5 7.5
      vertex 0.5 2.5 6.5
      vertex 1.5 2.5 6.5
    endloop
  endfacet
  facet normal 0 1 -0
    outer loop
      vertex 1.5 3.5 6.5
      vertex 0.5 3.5 7.5
      vertex 1.5 3.5 7.5
    endloop
  endfacet
  facet normal 0 1 0
    outer loop
      vertex 0.5 3.5 7.5
      vertex 1.5 3.5 6.5
      vertex 0.5 3.5 6.5
    endloop
  endfacet
  facet normal 1 -0 0
    outer loop
      vertex 3.5 2.5 7.5
      vertex 3.5 3.5 6.5
      vertex 3.5 3.5 7.5
    endloop
  endfacet
  facet normal 1 0 0
    outer loop
      vertex 3.5 3.5 6.5
      vertex 3.5 2.5 7.5
      vertex 3.5 2.5 6.5
    endloop
  endfacet
  facet normal 0 1 -0
    outer loop
      vertex 3.5 3.5 6.5
      vertex 2.5 3.5 7.5
      vertex 3.5 3.5 7.5
    endloop
  endfacet
  facet normal 0 1 0
    outer loop
      vertex 2.5 3.5 7.5
      vertex 3.5 3.5 6.5
      vertex 2.5 3.5 6.5
    endloop
  endfacet
  facet normal -1 0 0
    outer loop
      vertex 4.5 2.5 6.5
      vertex 4.5 4.5 7.5
      vertex 4.5 4.5 6.5
    endloop
  endfacet
  facet normal -1 -0 0
    outer loop
      vertex 4.5 4.5 7.5
      vertex 4.5 2.5 6.5
      vertex 4.5 2.5 7.5
    endloop
  endfacet
  facet normal 0 1 -0
    outer loop
      vertex 7.5 3.5 6.5
      vertex 6.5 3.5 7.5
      vertex 7.5 3.5 7.5
    endloop
  endfacet
  facet normal 0 1 0
    outer loop
      vertex 6.5 3.5 7.5
      vertex 7.5 3.5 6.5
      vertex 6.5 3.5 6.5
    endloop
  endfacet
  facet normal -1 0 0
    outer loop
      vertex 8.5 2.5 6.5
      vertex 8.5 3.5 7.5
      vertex 8.5 3.5 6.5
    endloop
  endfacet
  facet normal -1 -0 0
    outer loop
      vertex 8.5 3.5 7.5
      vertex 8.5 2.5 6.5
      vertex 8.5 2.5 7.5
    endloop
  endfacet
  facet normal 0 1 -0
    outer loop
      vertex 9.5 3.5 6.5
      vertex 8.5 3.5 7.5
      vertex 9.5 3.5 7.5
    endloop
  endfacet
  facet normal 0 1 0
    outer loop
      vertex 8.5 3.5 7.5
      vertex 9.5 3.5 6.5
      vertex 8.5 3.5 6.5
    endloop
  endfacet
  facet normal -1 0 0
    outer loop
      vertex 9.5 3.5 6.5
      vertex 9.5 6.5 7.5
      vertex 9.5 6.5 6.5
    endloop
  endfacet
  facet normal -1 -0 0
    outer loop
      vertex 9.5 6.5 7.5
      vertex 9.5 3.5 6.5
      vertex 9.5 3.5 7.5
    endloop
  endfacet
  facet normal 0 1 -0
    outer loop
      vertex 5.5 4.5 6.5
      vertex 4.5 4.5 7.5
      vertex 5.5 4.5 7.5
    endloop
  endfacet
  facet normal 0 1 0
    outer loop
      vertex 4.5 4.5 7.5
      vertex 5.5 4.5 6.5
      vertex 4.5 4.5 6.5
    endloop
  endfacet
  facet normal -1 0 0
    outer loop
      vertex 7.5 3.5 6.5
      vertex 7.5 4.5 7.5
      vertex 7.5 4.5 6.5
    endloop
  endfacet
  facet normal -1 -0 0
    outer loop
      vertex 7.5 4.5 7.5
      vertex 7.5 3.5 6.5
      vertex 7.5 3.5 7.5
    endloop
  endfacet
  facet normal -0 0 1
    outer loop
      vertex 7.5 4.5 7.5
      vertex 8.5 3.5 7.5
      vertex 8.5 4.5 7.5
    endloop
  endfacet
  facet normal 0 0 1
    outer loop
      vertex 8.5 3.5 7.5
      vertex 7.5 4.5 7.5
      vertex 7.5 3.5 7.5
    endloop
  endfacet
  facet normal 1 -0 0
    outer loop
      vertex 8.5 3.5 7.5
      vertex 8.5 4.5 6.5
      vertex 8.5 4.5 7.5
    endloop
  endfacet
  facet normal 1 0 0
    outer loop
      vertex 8.5 4.5 6.5
      vertex 8.5 3.5 7.5
      vertex 8.5 3.5 6.5
    endloop
  endfacet
  facet normal 0 0 -1
    outer loop
      vertex 7.5 3.5 6.5
      vertex 8.5 4.5 6.5
      vertex 8.5 3.5 6.5
    endloop
  endfacet
  facet normal -0 0 -1
    outer loop
      vertex 8.5 4.5 6.5
      vertex 7.5 3.5 6.5
      vertex 7.5 4.5 6.5
    endloop
  endfacet
  facet normal 0 -1 0
    outer loop
      vertex 7.5 3.5 6.5
      vertex 8.5 3.5 7.5
      vertex 7.5 3.5 7.5
    endloop
  endfacet
  facet normal 0 -1 -0
    outer loop
      vertex 8.5 3.5 7.5
      vertex 7.5 3.5 6.5
      vertex 8.5 3.5 6.5
    endloop
  endfacet
  facet normal 0 1 -0
    outer loop
      vertex 8.5 4.5 6.5
      vertex 7.5 4.5 7.5
      vertex 8.5 4.5 7.5
    endloop
  endfacet
  facet normal 0 1 0
    outer loop
      vertex 7.5 4.5 7.5
      vertex 8.5 4.5 6.5
      vertex 7.5 4.5 6.5
    endloop
  endfacet
  facet normal -1 0 0
    outer loop
      vertex 0.5 4.5 6.5
      vertex 0.5 5.5 7.5
      vertex 0.5 5.5 6.5
    endloop
  endfacet
  facet normal -1 -0 0
    outer loop
      vertex 0.5 5.5 7.5
      vertex 0.5 4.5 6.5
      vertex 0.5 4.5 7.5
    endloop
  endfacet
  facet normal -0 0 1
    outer loop
      vertex 0.5 5.5 7.5
      vertex 1.5 4.5 7.5
      vertex 1.5 5.5 7.5
    endloop
  endfacet
  facet normal 0 0 1
    outer loop
      vertex 1.5 4.5 7.5
      vertex 0.5 5.5 7.5
      vertex 0.5 4.5 7.5
    endloop
  endfacet
  facet normal 1 -0 0
    outer loop
      vertex 1.5 4.5 7.5
      vertex 1.5 5.5 6.5
      vertex 1.5 5.5 7.5
    endloop
  endfacet
  facet normal 1 0 0
    outer loop
      vertex 1.5 5.5 6.5
      vertex 1.5 4.5 7.5
      vertex 1.5 4.5 6.5
    endloop
  endfacet
  facet normal 0 0 -1
    outer loop
      vertex 0.5 4.5 6.5
      vertex 1.5 5.5 6.5
      vertex 1.5 4.5 6.5
    endloop
  endfacet
  facet normal -0 0 -1
    outer loop
      vertex 1.5 5.5 6.5
      vertex 0.5 4.5 6.5
      vertex 0.5 5.5 6.5
    endloop
  endfacet
  facet normal 0 -1 0
    outer loop
      vertex 0.5 4.5 6.5
      vertex 1.5 4.5 7.5
      vertex 0.5 4.5 7.5
    endloop
  endfacet
  facet normal 0 -1 -0
    outer loop
      vertex 1.5 4.5 7.5
      vertex 0.5 4.5 6.5
      vertex 1.5 4.5 6.5
    endloop
  endfacet
  facet normal 0 1 -0
    outer loop
      vertex 1.5 5.5 6.5
      vertex 0.5 5.5 7.5
      vertex 1.5 5.5 7.5
    endloop
  endfacet
  facet normal 0 1 0
    outer loop
      vertex 0.5 5.5 7.5
      vertex 1.5 5.5 6.5
      vertex 0.5 5.5 6.5
    endloop
  endfacet
  facet normal -1 0 0
    outer loop
      vertex 2.5 4.5 6.5
      vertex 2.5 5.5 7.5
      vertex 2.5 5.5 6.5
    endloop
  endfacet
  facet normal -1 -0 0
    outer loop
      vertex 2.5 5.5 7.5
      vertex 2.5 4.5 6.5
      vertex 2.5 4.5 7.5
    endloop
  endfacet
  facet normal -0 0 1
    outer loop
      vertex 2.5 5.5 7.5
      vertex 3.5 4.5 7.5
      vertex 3.5 5.5 7.5
    endloop
  endfacet
  facet normal 0 0 1
    outer loop
      vertex 3.5 4.5 7.5
      vertex 2.5 5.5 7.5
      vertex 2.5 4.5 7.5
    endloop
  endfacet
  facet normal 1 -0 0
    outer loop
      vertex 3.5 4.5 7.5
      vertex 3.5 5.5 6.5
      vertex 3.5 5.5 7.5
    endloop
  endfacet
  facet normal 1 0 0
    outer loop
      vertex 3.5 5.5 6.5
      vertex 3.5 4.5 7.5
      vertex 3.5 4.5 6.5
    endloop
  endfacet
  facet normal 0 1 -0
    outer loop
      vertex 3.5 5.5 6.5
      vertex 2.5 5.5 7.5
      vertex 3.5 5.5 7.5
    endloop
  endfacet
  facet normal 0 1 0
    outer loop
      vertex 2.5 5.5 7.5
      vertex 3.5 5.5 6.5
      vertex 2.5 5.5 6.5
    endloop
  endfacet
  facet normal 0 0 -1
    outer loop
      vertex 2.5 4.5 6.5
      vertex 3.5 5.5 6.5
      vertex 3.5 4.5 6.5
    endloop
  endfacet
  facet normal -0 0 -1
    outer loop
      vertex 3.5 5.5 6.5
      vertex 2.5 4.5 6.5
      vertex 2.5 5.5 6.5
    endloop
  endfacet
  facet normal 0 -1 0
    outer loop
      vertex 2.5 4.5 6.5
      vertex 3.5 4.5 7.5
      vertex 2.5 4.5 7.5
    endloop
  endfacet
  facet normal 0 -1 -0
    outer loop
      vertex 3.5 4.5 7.5
      vertex 2.5 4.5 6.5
      vertex 3.5 4.5 6.5
    endloop
  endfacet
  facet normal -1 0 0
    outer loop
      vertex 6.5 4.5 6.5
      vertex 6.5 5.5 7.5
      vertex 6.5 5.5 6.5
    endloop
  endfacet
  facet normal -1 -0 0
    outer loop
      vertex 6.5 5.5 7.5
      vertex 6.5 4.5 6.5
      vertex 6.5 4.5 7.5
    endloop
  endfacet
  facet normal -0 0 1
    outer loop
      vertex 6.5 5.5 7.5
      vertex 7.5 4.5 7.5
      vertex 7.5 5.5 7.5
    endloop
  endfacet
  facet normal 0 0 1
    outer loop
      vertex 7.5 4.5 7.5
      vertex 6.5 5.5 7.5
      vertex 6.5 4.5 7.5
    endloop
  endfacet
  facet normal 1 -0 0
    outer loop
      vertex 7.5 4.5 7.5
      vertex 7.5 5.5 6.5
      vertex 7.5 5.5 7.5
    endloop
  endfacet
  facet normal 1 0 0
    outer loop
      vertex 7.5 5.5 6.5
      vertex 7.5 4.5 7.5
      vertex 7.5 4.5 6.5
    endloop
  endfacet
  facet normal 0 1 -0
    outer loop
      vertex 7.5 5.5 6.5
      vertex 6.5 5.5 7.5
      vertex 7.5 5.5 7.5
    endloop
  endfacet
  facet normal 0 1 0
    outer loop
      vertex 6.5 5.5 7.5
      vertex 7.5 5.5 6.5
      vertex 6.5 5.5 6.5
    endloop
  endfacet
  facet normal 0 0 -1
    outer loop
      vertex 6.5 4.5 6.5
      vertex 7.5 5.5 6.5
      vertex 7.5 4.5 6.5
    endloop
  endfacet
  facet normal -0 0 -1
    outer loop
      vertex 7.5 5.5 6.5
      vertex 6.5 4.5 6.5
      vertex 6.5 5.5 6.5
    endloop
  endfacet
  facet normal 0 -1 0
    outer loop
      vertex 6.5 4.5 6.5
      vertex 7.5 4.5 7.5
      vertex 6.5 4.5 7.5
    endloop
  endfacet
  facet normal 0 -1 -0
    outer loop
      vertex 7.5 4.5 7.5
      vertex 6.5 4.5 6.5
      vertex 7.5 4.5 6.5
    endloop
  endfacet
  facet normal -1 0 0
    outer loop
      vertex 1.5 5.5 6.5
      vertex 1.5 6.5 7.5
      vertex 1.5 6.5 6.5
    endloop
  endfacet
  facet normal -1 -0 0
    outer loop
      vertex 1.5 6.5 7.5
      vertex 1.5 5.5 6.5
      vertex 1.5 5.5 7.5
    endloop
  endfacet
  facet normal -0 0 1
    outer loop
      vertex 1.5 6.5 7.5
      vertex 2.5 5.5 7.5
      vertex 2.5 6.5 7.5
    endloop
  endfacet
  facet normal 0 0 1
    outer loop
      vertex 2.5 5.5 7.5
      vertex 1.5 6.5 7.5
      vertex 1.5 5.5 7.5
    endloop
  endfacet
  facet normal 1 -0 0
    outer loop
      vertex 2.5 5.5 7.5
      vertex 2.5 6.5 6.5
      vertex 2.5 6.5 7.5
    endloop
  endfacet
  facet normal 1 0 0
    outer loop
      vertex 2.5 6.5 6.5
      vertex 2.5 5.5 7.5
      vertex 2.5 5.5 6.5
    endloop
  endfacet
  facet normal 0 1 -0
    outer loop
      vertex 2.5 6.5 6.5
      vertex 1.5 6.5 7.5
      vertex 2.5 6.5 7.5
    endloop
  endfacet
  facet normal 0 1 0
    outer loop
      vertex 1.5 6.5 7.5
      vertex 2.5 6.5 6.5
      vertex 1.5 6.5 6.5
    endloop
  endfacet
  facet normal 0 0 -1
    outer loop
      vertex 1.5 5.5 6.5
      vertex 2.5 6.5 6.5
      vertex 2.5 5.5 6.5
    endloop
  endfacet
  facet normal -0 0 -1
    outer loop
      vertex 2.5 6.5 6.5
      vertex 1.5 5.5 6.5
      vertex 1.5 6.5 6.5
    endloop
  endfacet
  facet normal 0 -1 0
    outer loop
      vertex 1.5 5.5 6.5
      vertex 2.5 5.5 7.5
      vertex 1.5 5.5 7.5
    endloop
  endfacet
  facet normal 0 -1 -0
    outer loop
      vertex 2.5 5.5 7.5
      vertex 1.5 5.5 6.5
      vertex 2.5 5.5 6.5
    endloop
  endfacet
  facet normal 0 -1 0
    outer loop
      vertex 4.5 6.5 6.5
      vertex 9.5 6.5 7.5
      vertex 4.5 6.5 7.5
    endloop
  endfacet
  facet normal 0 -1 -0
    outer loop
      vertex 9.5 6.5 7.5
      vertex 4.5 6.5 6.5
      vertex 9.5 6.5 6.5
    endloop
  endfacet
  facet normal -1 0 0
    outer loop
      vertex 0.5 6.5 6.5
      vertex 0.5 7.5 7.5
      vertex 0.5 7.5 6.5
    endloop
  endfacet
  facet normal -1 -0 0
    outer loop
      vertex 0.5 7.5 7.5
      vertex 0.5 6.5 6.5
      vertex 0.5 6.5 7.5
    endloop
  endfacet
  facet normal -0 0 1
    outer loop
      vertex 0.5 7.5 7.5
      vertex 1.5 6.5 7.5
      vertex 1.5 7.5 7.5
    endloop
  endfacet
  facet normal 0 0 1
    outer loop
      vertex 1.5 6.5 7.5
      vertex 0.5 7.5 7.5
      vertex 0.5 6.5 7.5
    endloop
  endfacet
  facet normal 1 -0 0
    outer loop
      vertex 1.5 6.5 7.5
      vertex 1.5 7.5 6.5
      vertex 1.5 7.5 7.5
    endloop
  endfacet
  facet normal 1 0 0
    outer loop
      vertex 1.5 7.5 6.5
      vertex 1.5 6.5 7.5
      vertex 1.5 6.5 6.5
    endloop
  endfacet
  facet normal 0 1 -0
    outer loop
      vertex 1.5 7.5 6.5
      vertex 0.5 7.5 7.5
      vertex 1.5 7.5 7.5
    endloop
  endfacet
  facet normal 0 1 0
    outer loop
      vertex 0.5 7.5 7.5
      vertex 1.5 7.5 6.5
      vertex 0.5 7.5 6.5
    endloop
  endfacet
  facet normal 0 0 -1
    outer loop
      vertex 0.5 6.5 6.5
      vertex 1.5 7.5 6.5
      vertex 1.5 6.5 6.5
    endloop
  endfacet
  facet normal -0 0 -1
    outer loop
      vertex 1.5 7.5 6.5
      vertex 0.5 6.5 6.5
      vertex 0.5 7.5 6.5
    endloop
  endfacet
  facet normal 0 -1 0
    outer loop
      vertex 0.5 6.5 6.5
      vertex 1.5 6.5 7.5
      vertex 0.5 6.5 7.5
    endloop
  endfacet
  facet normal 0 -1 -0
    outer loop
      vertex 1.5 6.5 7.5
      vertex 0.5 6.5 6.5
      vertex 1.5 6.5 6.5
    endloop
  endfacet
  facet normal -1 0 0
    outer loop
      vertex 4.5 6.5 6.5
      vertex 4.5 7.5 7.5
      vertex 4.5 7.5 6.5
    endloop
  endfacet
  facet normal -1 -0 0
    outer loop
      vertex 4.5 7.5 7.5
      vertex 4.5 6.5 6.5
      vertex 4.5 6.5 7.5
    endloop
  endfacet
  facet normal 0 1 -0
    outer loop
      vertex 8.5 7.5 6.5
      vertex 6.5 7.5 7.5
      vertex 8.5 7.5 7.5
    endloop
  endfacet
  facet normal 0 1 0
    outer loop
      vertex 6.5 7.5 7.5
      vertex 8.5 7.5 6.5
      vertex 6.5 7.5 6.5
    endloop
  endfacet
  facet normal 0 1 -0
    outer loop
      vertex 5.5 7.5 6.5
      vertex 4.5 7.5 7.5
      vertex 5.5 7.5 7.5
    endloop
  endfacet
  facet normal 0 1 0
    outer loop
      vertex 4.5 7.5 7.5
      vertex 5.5 7.5 6.5
      vertex 4.5 7.5 6.5
    endloop
  endfacet
  facet normal -1 0 0
    outer loop
      vertex 1.5 7.5 6.5
      vertex 1.5 8.5 7.5
      vertex 1.5 8.5 6.5
    endloop
  endfacet
  facet normal -1 -0 0
    outer loop
      vertex 1.5 8.5 7.5
      vertex 1.5 7.5 6.5
      vertex 1.5 7.5 7.5
    endloop
  endfacet
  facet normal -0 0 1
    outer loop
      vertex 1.5 8.5 7.5
      vertex 2.5 7.5 7.5
      vertex 2.5 8.5 7.5
    endloop
  endfacet
  facet normal 0 0 1
    outer loop
      vertex 2.5 7.5 7.5
      vertex 1.5 8.5 7.5
      vertex 1.5 7.5 7.5
    endloop
  endfacet
  facet normal 1 -0 0
    outer loop
      vertex 2.5 7.5 7.5
      vertex 2.5 8.5 6.5
      vertex 2.5 8.5 7.5
    endloop
  endfacet
  facet normal 1 0 0
    outer loop
      vertex 2.5 8.5 6.5
      vertex 2.5 7.5 7.5
      vertex 2.5 7.5 6.5
    endloop
  endfacet
  facet normal 0 0 -1
    outer loop
      vertex 1.5 7.5 6.5
      vertex 2.5 8.5 6.5
      vertex 2.5 7.5 6.5
    endloop
  endfacet
  facet normal -0 0 -1
    outer loop
      vertex 2.5 8.5 6.5
      vertex 1.5 7.5 6.5
      vertex 1.5 8.5 6.5
    endloop
  endfacet
  facet normal 0 -1 0
    outer loop
      vertex 1.5 7.5 6.5
      vertex 2.5 7.5 7.5
      vertex 1.5 7.5 7.5
    endloop
  endfacet
  facet normal 0 -1 -0
    outer loop
      vertex 2.5 7.5 7.5
      vertex 1.5 7.5 6.5
      vertex 2.5 7.5 6.5
    endloop
  endfacet
  facet normal 0 1 -0
    outer loop
      vertex 2.5 8.5 6.5
      vertex 1.5 8.5 7.5
      vertex 2.5 8.5 7.5
    endloop
  endfacet
  facet normal 0 1 0
    outer loop
      vertex 1.5 8.5 7.5
      vertex 2.5 8.5 6.5
      vertex 1.5 8.5 6.5
    endloop
  endfacet
  facet normal -1 0 0
    outer loop
      vertex 3.5 7.5 6.5
      vertex 3.5 10.5 7.5
      vertex 3.5 10.5 6.5
    endloop
  endfacet
  facet normal -1 -0 0
    outer loop
      vertex 3.5 10.5 7.5
      vertex 3.5 7.5 6.5
      vertex 3.5 7.5 7.5
    endloop
  endfacet
  facet normal -0 0 1
    outer loop
      vertex 3.5 10.5 7.5
      vertex 4.5 7.5 7.5
      vertex 4.5 10.5 7.5
    endloop
  endfacet
  facet normal 0 0 1
    outer loop
      vertex 4.5 7.5 7.5
      vertex 3.5 10.5 7.5
      vertex 3.5 7.5 7.5
    endloop
  endfacet
  facet normal 1 -0 0
    outer loop
      vertex 4.5 7.5 7.5
      vertex 4.5 10.5 6.5
      vertex 4.5 10.5 7.5
    endloop
  endfacet
  facet normal 1 0 0
    outer loop
      vertex 4.5 10.5 6.5
      vertex 4.5 7.5 7.5
      vertex 4.5 7.5 6.5
    endloop
  endfacet
  facet normal 0 0 -1
    outer loop
      vertex 3.5 7.5 6.5
      vertex 4.5 10.5 6.5
      vertex 4.5 7.5 6.5
    endloop
  endfacet
  facet normal -0 0 -1
    outer loop
      vertex 4.5 10.5 6.5
      vertex 3.5 7.5 6.5
      vertex 3.5 10.5 6.5
    endloop
  endfacet
  facet normal 0 -1 0
    outer loop
      vertex 3.5 7.5 6.5
      vertex 4.5 7.5 7.5
      vertex 3.5 7.5 7.5
    endloop
  endfacet
  facet normal 0 -1 -0
    outer loop
      vertex 4.5 7.5 7.5
      vertex 3.5 7.5 6.5
      vertex 4.5 7.5 6.5
    endloop
  endfacet
  facet normal -1 0 0
    outer loop
      vertex 5.5 7.5 6.5
      vertex 5.5 10.5 7.5
      vertex 5.5 10.5 6.5
    endloop
  endfacet
  facet normal -1 -0 0
    outer loop
      vertex 5.5 10.5 7.5
      vertex 5.5 7.5 6.5
      vertex 5.5 7.5 7.5
    endloop
  endfacet
  facet normal 1 -0 0
    outer loop
      vertex 6.5 7.5 7.5
      vertex 6.5 8.5 6.5
      vertex 6.5 8.5 7.5
    endloop
  endfacet
  facet normal 1 0 0
    outer loop
      vertex 6.5 8.5 6.5
      vertex 6.5 7.5 7.5
      vertex 6.5 7.5 6.5
    endloop
  endfacet
  facet normal 0 -1 0
    outer loop
      vertex 6.5 8.5 6.5
      vertex 7.5 8.5 7.5
      vertex 6.5 8.5 7.5
    endloop
  endfacet
  facet normal 0 -1 -0
    outer loop
      vertex 7.5 8.5 7.5
      vertex 6.5 8.5 6.5
      vertex 7.5 8.5 6.5
    endloop
  endfacet
  facet normal -1 0 0
    outer loop
      vertex 8.5 7.5 6.5
      vertex 8.5 8.5 7.5
      vertex 8.5 8.5 6.5
    endloop
  endfacet
  facet normal -1 -0 0
    outer loop
      vertex 8.5 8.5 7.5
      vertex 8.5 7.5 6.5
      vertex 8.5 7.5 7.5
    endloop
  endfacet
  facet normal 0 1 -0
    outer loop
      vertex 9.5 8.5 6.5
      vertex 8.5 8.5 7.5
      vertex 9.5 8.5 7.5
    endloop
  endfacet
  facet normal 0 1 0
    outer loop
      vertex 8.5 8.5 7.5
      vertex 9.5 8.5 6.5
      vertex 8.5 8.5 6.5
    endloop
  endfacet
  facet normal -1 0 0
    outer loop
      vertex 0.5 8.5 6.5
      vertex 0.5 9.5 7.5
      vertex 0.5 9.5 6.5
    endloop
  endfacet
  facet normal -1 -0 0
    outer loop
      vertex 0.5 9.5 7.5
      vertex 0.5 8.5 6.5
      vertex 0.5 8.5 7.5
    endloop
  endfacet
  facet normal -0 0 1
    outer loop
      vertex 0.5 9.5 7.5
      vertex 1.5 8.5 7.5
      vertex 1.5 9.5 7.5
    endloop
  endfacet
  facet normal 0 0 1
    outer loop
      vertex 1.5 8.5 7.5
      vertex 0.5 9.5 7.5
      vertex 0.5 8.5 7.5
    endloop
  endfacet
  facet normal 1 -0 0
    outer loop
      vertex 1.5 8.5 7.5
      vertex 1.5 9.5 6.5
      vertex 1.5 9.5 7.5
    endloop
  endfacet
  facet normal 1 0 0
    outer loop
      vertex 1.5 9.5 6.5
      vertex 1.5 8.5 7.5
      vertex 1.5 8.5 6.5
    endloop
  endfacet
  facet normal 0 1 -0
    outer loop
      vertex 1.5 9.5 6.5
      vertex 0.5 9.5 7.5
      vertex 1.5 9.5 7.5
    endloop
  endfacet
  facet normal 0 1 0
    outer loop
      vertex 0.5 9.5 7.5
      vertex 1.5 9.5 6.5
      vertex 0.5 9.5 6.5
    endloop
  endfacet
  facet normal 0 0 -1
    outer loop
      vertex 0.5 8.5 6.5
      vertex 1.5 9.5 6.5
      vertex 1.5 8.5 6.5
    endloop
  endfacet
  facet normal -0 0 -1
    outer loop
      vertex 1.5 9.5 6.5
      vertex 0.5 8.5 6.5
      vertex 0.5 9.5 6.5
    endloop
  endfacet
  facet normal 0 -1 0
    outer loop
      vertex 0.5 8.5 6.5
      vertex 1.5 8.5 7.5
      vertex 0.5 8.5 7.5
    endloop
  endfacet
  facet normal 0 -1 -0
    outer loop
      vertex 1.5 8.5 7.5
      vertex 0.5 8.5 6.5
      vertex 1.5 8.5 6.5
    endloop
  endfacet
  facet normal 0 1 -0
    outer loop
      vertex 7.5 9.5 6.5
      vertex 6.5 9.5 7.5
      vertex 7.5 9.5 7.5
    endloop
  endfacet
  facet normal 0 1 0
    outer loop
      vertex 6.5 9.5 7.5
      vertex 7.5 9.5 6.5
      vertex 6.5 9.5 6.5
    endloop
  endfacet
  facet normal 1 -0 0
    outer loop
      vertex 7.5 8.5 7.5
      vertex 7.5 9.5 6.5
      vertex 7.5 9.5 7.5
    endloop
  endfacet
  facet normal 1 0 0
    outer loop
      vertex 7.5 9.5 6.5
      vertex 7.5 8.5 7.5
      vertex 7.5 8.5 6.5
    endloop
  endfacet
  facet normal -1 0 0
    outer loop
      vertex 9.5 8.5 6.5
      vertex 9.5 10.5 7.5
      vertex 9.5 10.5 6.5
    endloop
  endfacet
  facet normal -1 -0 0
    outer loop
      vertex 9.5 10.5 7.5
      vertex 9.5 8.5 6.5
      vertex 9.5 8.5 7.5
    endloop
  endfacet
  facet normal -1 0 0
    outer loop
      vertex 1.5 9.5 6.5
      vertex 1.5 10.5 7.5
      vertex 1.5 10.5 6.5
    endloop
  endfacet
  facet normal -1 -0 0
    outer loop
      vertex 1.5 10.5 7.5
      vertex 1.5 9.5 6.5
      vertex 1.5 9.5 7.5
    endloop
  endfacet
  facet normal -0 0 1
    outer loop
      vertex 1.5 10.5 7.5
      vertex 2.5 9.5 7.5
      vertex 2.5 10.5 7.5
    endloop
  endfacet
  facet normal 0 0 1
    outer loop
      vertex 2.5 9.5 7.5
      vertex 1.5 10.5 7.5
      vertex 1.5 9.5 7.5
    endloop
  endfacet
  facet normal 1 -0 0
    outer loop
      vertex 2.5 9.5 7.5
      vertex 2.5 10.5 6.5
      vertex 2.5 10.5 7.5
    endloop
  endfacet
  facet normal 1 0 0
    outer loop
      vertex 2.5 10.5 6.5
      vertex 2.5 9.5 7.5
      vertex 2.5 9.5 6.5
    endloop
  endfacet
  facet normal 0 1 -0
    outer loop
      vertex 2.5 10.5 6.5
      vertex 1.5 10.5 7.5
      vertex 2.5 10.5 7.5
    endloop
  endfacet
  facet normal 0 1 0
    outer loop
      vertex 1.5 10.5 7.5
      vertex 2.5 10.5 6.5
      vertex 1.5 10.5 6.5
    endloop
  endfacet
  facet normal 0 0 -1
    outer loop
      vertex 1.5 9.5 6.5
      vertex 2.5 10.5 6.5
      vertex 2.5 9.5 6.5
    endloop
  endfacet
  facet normal -0 0 -1
    outer loop
      vertex 2.5 10.5 6.5
      vertex 1.5 9.5 6.5
      vertex 1.5 10.5 6.5
    endloop
  endfacet
  facet normal 0 -1 0
    outer loop
      vertex 1.5 9.5 6.5
      vertex 2.5 9.5 7.5
      vertex 1.5 9.5 7.5
    endloop
  endfacet
  facet normal 0 -1 -0
    outer loop
      vertex 2.5 9.5 7.5
      vertex 1.5 9.5 6.5
      vertex 2.5 9.5 6.5
    endloop
  endfacet
  facet normal 0 1 -0
    outer loop
      vertex 4.5 10.5 6.5
      vertex 3.5 10.5 7.5
      vertex 4.5 10.5 7.5
    endloop
  endfacet
  facet normal 0 1 0
    outer loop
      vertex 3.5 10.5 7.5
      vertex 4.5 10.5 6.5
      vertex 3.5 10.5 6.5
    endloop
  endfacet
  facet normal 1 -0 0
    outer loop
      vertex 6.5 9.5 7.5
      vertex 6.5 10.5 6.5
      vertex 6.5 10.5 7.5
    endloop
  endfacet
  facet normal 1 0 0
    outer loop
      vertex 6.5 10.5 6.5
      vertex 6.5 9.5 7.5
      vertex 6.5 9.5 6.5
    endloop
  endfacet
  facet normal 0 1 -0
    outer loop
      vertex 6.5 10.5 6.5
      vertex 5.5 10.5 7.5
      vertex 6.5 10.5 7.5
    endloop
  endfacet
  facet normal 0 1 0
    outer loop
      vertex 5.5 10.5 7.5
      vertex 6.5 10.5 6.5
      vertex 5.5 10.5 6.5
    endloop
  endfacet
  facet normal -1 0 0
    outer loop
      vertex 7.5 9.5 6.5
      vertex 7.5 10.5 7.5
      vertex 7.5 10.5 6.5
    endloop
  endfacet
  facet normal -1 -0 0
    outer loop
      vertex 7.5 10.5 7.5
      vertex 7.5 9.5 6.5
      vertex 7.5 9.5 7.5
    endloop
  endfacet
  facet normal -0 0 1
    outer loop
      vertex 7.5 10.5 7.5
      vertex 8.5 9.5 7.5
      vertex 8.5 10.5 7.5
    endloop
  endfacet
  facet normal 0 0 1
    outer loop
      vertex 8.5 9.5 7.5
      vertex 7.5 10.5 7.5
      vertex 7.5 9.5 7.5
    endloop
  endfacet
  facet normal 1 -0 0
    outer loop
      vertex 8.5 9.5 7.5
      vertex 8.5 10.5 6.5
      vertex 8.5 10.5 7.5
    endloop
  endfacet
  facet normal 1 0 0
    outer loop
      vertex 8.5 10.5 6.5
      vertex 8.5 9.5 7.5
      vertex 8.5 9.5 6.5
    endloop
  endfacet
  facet normal 0 1 -0
    outer loop
      vertex 8.5 10.5 6.5
      vertex 7.5 10.5 7.5
      vertex 8.5 10.5 7.5
    endloop
  endfacet
  facet normal 0 1 0
    outer loop
      vertex 7.5 10.5 7.5
      vertex 8.5 10.5 6.5
      vertex 7.5 10.5 6.5
    endloop
  endfacet
  facet normal 0 0 -1
    outer loop
      vertex 7.5 9.5 6.5
      vertex 8.5 10.5 6.5
      vertex 8.5 9.5 6.5
    endloop
  endfacet
  facet normal -0 0 -1
    outer loop
      vertex 8.5 10.5 6.5
      vertex 7.5 9.5 6.5
      vertex 7.5 10.5 6.5
    endloop
  endfacet
  facet normal 0 -1 0
    outer loop
      vertex 7.5 9.5 6.5
      vertex 8.5 9.5 7.5
      vertex 7.5 9.5 7.5
    endloop
  endfacet
  facet normal 0 -1 -0
    outer loop
      vertex 8.5 9.5 7.5
      vertex 7.5 9.5 6.5
      vertex 8.5 9.5 6.5
    endloop
  endfacet
  facet normal 0 1 -0
    outer loop
      vertex 10.5 10.5 6.5
      vertex 9.5 10.5 7.5
      vertex 10.5 10.5 7.5
    endloop
  endfacet
  facet normal 0 1 0
    outer loop
      vertex 9.5 10.5 7.5
      vertex 10.5 10.5 6.5
      vertex 9.5 10.5 6.5
    endloop
  endfacet
endsolid OpenSCAD_Model
